<!-- Generated by IcoMoon.io -->
<svg version="1.1" xmlns="http://www.w3.org/2000/svg" width="32" height="32" viewBox="0 0 32 32">
<title>Academia1</title>
<path d="M17.403 27.56c0 0.469-0.003 0.938-0.003 1.41 4.11 0.006 8.219 0 12.329 0.003 0-0.469-0.003-0.938-0.003-1.407-0.826-0.166-1.846-0.399-2.164-1.298-3.156-7.853-6.358-15.691-9.472-23.559-2.276-0.039-4.551-0.024-6.827-0.009 0.424 0.95 0.778 1.931 1.217 2.875-2.666 6.927-5.375 13.842-8.080 20.754-0.306 0.881-1.307 1.077-2.109 1.244 0 0.463-0.003 0.929-0.003 1.395 2.621 0.012 5.241 0.003 7.862 0.006-0.003-0.475-0.003-0.947-0.006-1.419-0.823-0.127-1.767-0.112-2.436-0.681-0.527-0.508-0.294-1.301-0.076-1.898 0.524-1.353 1.020-2.718 1.592-4.052 3.175 0.018 6.346-0.003 9.521 0.009 0.436 1.083 0.872 2.17 1.307 3.256 0.291 0.732 0.554 1.552 0.318 2.339-0.611 1.014-1.937 0.953-2.966 1.032zM10.17 18.406c1.217-3.232 2.506-6.44 3.698-9.681 1.286 3.229 2.581 6.455 3.871 9.681-2.524 0.012-5.045 0.012-7.569 0z"></path>
</svg>
