<!-- Generated by IcoMoon.io -->
<svg version="1.1" xmlns="http://www.w3.org/2000/svg" width="27" height="32" viewBox="0 0 27 32">
<title>Academia</title>
<path d="M9.83 17.547c1.683 0.008 3.363 0.008 5.046 0-0.859-2.151-1.723-4.301-2.58-6.454-0.795 2.161-1.654 4.299-2.465 6.454zM25.932 3.618c-1.006-1.007-2.218-1.51-3.636-1.51h-17.151c-1.418 0-2.628 0.503-3.636 1.51-1.007 1.005-1.51 2.218-1.51 3.636v17.151c0 1.418 0.503 2.631 1.51 3.638 1.007 1.003 2.22 1.508 3.636 1.508h17.151c1.418 0 2.63-0.505 3.636-1.51 1.007-1.007 1.511-2.218 1.511-3.636v-17.151c0-1.418-0.504-2.631-1.511-3.636zM14.65 24.59c0-0.315 0.002-0.627 0.002-0.94 0.686-0.052 1.57-0.012 1.977-0.688 0.157-0.524-0.018-1.071-0.212-1.559-0.291-0.724-0.581-1.449-0.872-2.171-2.116-0.008-4.231 0.006-6.347-0.006-0.381 0.89-0.712 1.8-1.061 2.701-0.145 0.397-0.301 0.926 0.050 1.265 0.446 0.379 1.075 0.369 1.624 0.454 0.002 0.315 0.002 0.629 0.004 0.946-1.747-0.002-3.494 0.004-5.241-0.004 0-0.311 0.002-0.621 0.002-0.93 0.535-0.111 1.202-0.242 1.406-0.829 1.804-4.608 3.609-9.218 5.387-13.836-0.293-0.629-0.529-1.283-0.811-1.917 1.517-0.010 3.034-0.020 4.551 0.006 2.076 5.245 4.211 10.471 6.315 15.706 0.212 0.599 0.892 0.755 1.443 0.866 0 0.313 0.002 0.625 0.002 0.938-2.74-0.002-5.48 0.002-8.219-0.002z"></path>
</svg>
