<!-- Generated by IcoMoon.io -->
<svg version="1.1" xmlns="http://www.w3.org/2000/svg" width="27" height="32" viewBox="0 0 27 32">
<title>Acclaim1</title>
<path d="M25.932 3.618c-1.006-1.007-2.218-1.51-3.636-1.51h-17.151c-1.418 0-2.628 0.503-3.636 1.51-1.007 1.005-1.51 2.218-1.51 3.636v17.151c0 1.418 0.503 2.631 1.51 3.638 1.007 1.003 2.22 1.508 3.636 1.508h17.151c1.418 0 2.63-0.505 3.636-1.51 1.007-1.007 1.511-2.218 1.511-3.636v-17.151c0-1.418-0.504-2.631-1.511-3.636zM21.657 24.976c-0.498 0.012-7.116-6.839-7.936-7.165-0.82 0.325-7.438 7.177-7.936 7.165v-3.441c0.359-0.624 7.182-6.98 7.936-7.498 0.753 0.517 7.577 6.873 7.936 7.498v3.441zM21.657 17.62c-0.498 0.012-7.116-6.839-7.936-7.165-0.82 0.325-7.438 7.177-7.936 7.165v-3.441c0.359-0.625 7.182-6.98 7.936-7.498 0.753 0.517 7.577 6.873 7.936 7.498v3.441z"></path>
</svg>
