<!-- Generated by IcoMoon.io -->
<svg version="1.1" xmlns="http://www.w3.org/2000/svg" width="27" height="32" viewBox="0 0 27 32">
<title>ACM1</title>
<path d="M6.713 15.802c0 3.87 3.139 7.007 7.009 7.007 3.872 0 7.007-3.136 7.007-7.007 0-3.872-3.134-7.011-7.007-7.011-3.87 0-7.009 3.139-7.009 7.011zM13.721 9.493c3.477 0 6.295 2.819 6.295 6.295s-2.819 6.295-6.295 6.295-6.295-2.819-6.295-6.295 2.819-6.295 6.295-6.295zM11.846 17.043c0.154 0.13 0.334 0.227 0.539 0.291 0.208 0.062 0.441 0.096 0.691 0.096 0.133 0 0.238-0.009 0.319-0.024 0.079-0.015 0.169-0.028 0.259-0.058 0.077-0.019 0.145-0.045 0.216-0.073 0.073-0.032 0.135-0.060 0.188-0.083v-0.809h-0.122c-0.028 0.032-0.069 0.069-0.113 0.107-0.045 0.043-0.101 0.079-0.167 0.118-0.062 0.036-0.139 0.071-0.227 0.098-0.092 0.024-0.199 0.039-0.319 0.039-0.238 0-0.424-0.075-0.565-0.223-0.141-0.15-0.214-0.379-0.214-0.68 0-0.284 0.071-0.511 0.201-0.678 0.133-0.171 0.321-0.255 0.563-0.255 0.107 0 0.203 0.015 0.293 0.041 0.081 0.030 0.163 0.056 0.231 0.098 0.066 0.034 0.122 0.073 0.18 0.12 0.054 0.039 0.103 0.079 0.137 0.116h0.122v-0.811c-0.169-0.086-0.336-0.148-0.505-0.184-0.165-0.041-0.336-0.062-0.503-0.062-0.223 0-0.436 0.030-0.64 0.092-0.208 0.060-0.385 0.154-0.537 0.28-0.16 0.13-0.282 0.297-0.374 0.501-0.094 0.208-0.137 0.449-0.137 0.742 0 0.267 0.041 0.505 0.126 0.704 0.086 0.197 0.203 0.361 0.357 0.496zM9.287 15.428c-0.235 0.032-0.441 0.090-0.612 0.171-0.167 0.081-0.295 0.193-0.387 0.332-0.090 0.137-0.135 0.319-0.135 0.548 0 0.276 0.090 0.498 0.267 0.68 0.175 0.178 0.398 0.272 0.665 0.272 0.146 0 0.257-0.011 0.336-0.034 0.083-0.017 0.163-0.049 0.248-0.094 0.088-0.045 0.154-0.083 0.203-0.128 0.054-0.045 0.111-0.092 0.175-0.143v0.319h0.95v-2.069c0-0.355-0.12-0.623-0.362-0.798-0.24-0.171-0.618-0.261-1.14-0.261-0.216 0-0.426 0.019-0.635 0.058s-0.359 0.069-0.454 0.098v0.734h0.077c0.145-0.062 0.291-0.118 0.438-0.154 0.15-0.043 0.278-0.064 0.392-0.064 0.248 0 0.432 0.032 0.556 0.096 0.122 0.062 0.186 0.18 0.186 0.345v0.019c-0.276 0.015-0.531 0.045-0.77 0.075zM10.049 16.555c-0.069 0.066-0.145 0.122-0.235 0.156-0.083 0.043-0.169 0.056-0.246 0.056-0.152 0-0.265-0.024-0.34-0.077s-0.116-0.152-0.116-0.293c0-0.094 0.026-0.171 0.073-0.231 0.043-0.060 0.107-0.103 0.19-0.13 0.094-0.036 0.193-0.056 0.289-0.066 0.096-0.013 0.225-0.028 0.385-0.045v0.631zM25.932 3.618c-1.006-1.007-2.218-1.51-3.636-1.51h-17.151c-1.418 0-2.628 0.503-3.636 1.51-1.007 1.005-1.51 2.218-1.51 3.636v17.151c0 1.418 0.503 2.631 1.51 3.638 1.007 1.003 2.22 1.508 3.636 1.508h17.151c1.418 0 2.63-0.505 3.636-1.51 1.007-1.007 1.511-2.218 1.511-3.636v-17.151c0-1.418-0.504-2.631-1.511-3.636zM13.721 27.263l-11.434-11.434 11.434-11.434 11.434 11.434-11.434 11.434zM15.506 15.195c0.069-0.047 0.141-0.090 0.216-0.128 0.075-0.034 0.15-0.051 0.229-0.051 0.101 0 0.18 0.013 0.24 0.045 0.056 0.030 0.096 0.075 0.126 0.141 0.028 0.064 0.041 0.15 0.049 0.252 0.006 0.105 0.009 0.229 0.009 0.377v1.519h0.948v-2.154c0.083-0.056 0.16-0.103 0.231-0.135 0.073-0.032 0.143-0.045 0.216-0.045 0.101 0 0.182 0.013 0.238 0.045 0.056 0.030 0.101 0.075 0.126 0.141 0.028 0.064 0.045 0.15 0.051 0.252 0.006 0.105 0.009 0.229 0.009 0.377v1.519h0.946v-1.975c0-0.218-0.019-0.392-0.064-0.526-0.041-0.135-0.103-0.25-0.19-0.349-0.075-0.088-0.171-0.156-0.282-0.203-0.113-0.043-0.24-0.069-0.381-0.069-0.165 0-0.327 0.045-0.49 0.137-0.158 0.092-0.332 0.223-0.513 0.392-0.075-0.178-0.18-0.308-0.325-0.396-0.137-0.088-0.302-0.133-0.486-0.133-0.173 0-0.327 0.039-0.462 0.111-0.137 0.075-0.284 0.18-0.438 0.31v-0.336h-0.948v3.036h0.948v-2.155z"></path>
</svg>
