<!-- Generated by IcoMoon.io -->
<svg version="1.1" xmlns="http://www.w3.org/2000/svg" width="32" height="32" viewBox="0 0 32 32">
<title>ACMDL</title>
<path d="M14.019 13.174c-0.139-0.107-0.26-0.187-0.444-0.185-0.698 0.009-1.397 0.004-2.096 0.004h-0.24v5.304c0.663 0 1.302-0.032 1.936 0.010 0.477 0.032 0.853-0.079 1.121-0.477 0.075-0.112 0.152-0.251 0.154-0.379 0.012-1.067-0.016-2.135 0.018-3.201 0.014-0.452-0.086-0.797-0.449-1.076zM29.535 16.017c0.059-0.059 0.135-0.102 0.22-0.165-0.622-0.618-1.206-1.197-1.788-1.777-0.349-0.347-0.7-0.691-1.039-1.047-0.053-0.055-0.083-0.175-0.064-0.249 0.326-1.248 0.662-2.493 0.995-3.739 0.006-0.021 0.006-0.044 0.010-0.086-0.702-0.191-1.405-0.382-2.107-0.573-0.554-0.151-1.106-0.309-1.664-0.445-0.155-0.038-0.206-0.111-0.243-0.252-0.317-1.203-0.641-2.404-0.964-3.605-0.012-0.043-0.034-0.084-0.060-0.148-0.467 0.123-0.93 0.242-1.391 0.366-0.812 0.217-1.624 0.437-2.437 0.651-0.057 0.015-0.149 0.007-0.185-0.030-0.934-0.933-1.862-1.872-2.792-2.81h-0.092c-0.926 0.931-1.851 1.864-2.782 2.791-0.043 0.043-0.141 0.066-0.201 0.050-0.474-0.121-0.944-0.257-1.416-0.383-0.812-0.217-1.625-0.431-2.433-0.645-0.015 0.024-0.027 0.035-0.031 0.049-0.326 1.222-0.658 2.442-0.972 3.667-0.051 0.2-0.15 0.281-0.334 0.329-1.159 0.303-2.316 0.617-3.475 0.919-0.19 0.049-0.23 0.107-0.173 0.312 0.326 1.176 0.624 2.36 0.948 3.536 0.041 0.15 0.004 0.224-0.089 0.316-0.866 0.862-1.726 1.731-2.597 2.588-0.149 0.147-0.161 0.228-0.004 0.382 0.872 0.856 1.731 1.726 2.597 2.587 0.102 0.101 0.13 0.183 0.088 0.337-0.325 1.176-0.626 2.358-0.95 3.535-0.053 0.193-0.004 0.25 0.173 0.297 1.186 0.314 2.369 0.641 3.557 0.948 0.156 0.040 0.21 0.116 0.245 0.246 0.172 0.648 0.344 1.296 0.516 1.944 0.162 0.609 0.325 1.218 0.488 1.829 1.295-0.345 2.566-0.685 3.84-1.017 0.070-0.018 0.185 0.005 0.235 0.054 0.928 0.92 1.849 1.846 2.771 2.771h0.092c0.348-0.356 0.695-0.714 1.046-1.068 0.558-0.562 1.12-1.119 1.677-1.681 0.089-0.090 0.163-0.115 0.299-0.077 1.192 0.325 2.388 0.636 3.583 0.951 0.065 0.017 0.131 0.027 0.216 0.044 0.141-0.518 0.28-1.024 0.416-1.53 0.201-0.745 0.401-1.489 0.597-2.235 0.032-0.12 0.072-0.187 0.213-0.225 1.239-0.327 2.475-0.668 3.712-1.006 0.028-0.008 0.054-0.020 0.091-0.033-0.332-1.239-0.659-2.471-0.997-3.699-0.050-0.181-0.033-0.296 0.109-0.435 0.856-0.839 1.699-1.692 2.548-2.539zM15.605 18.445c-0.346 0.349-0.695 0.695-1.059 1.024-0.099 0.089-0.257 0.157-0.388 0.158-1.422 0.011-2.844 0.006-4.266 0.006-0.022 0-0.044-0.008-0.082-0.015v-7.963h0.235c1.322 0 2.644 0.001 3.966-0.001 0.251-0 0.46 0.079 0.637 0.259 0.317 0.324 0.636 0.646 0.962 0.962 0.187 0.181 0.274 0.401 0.275 0.652 0.004 1.422 0.002 2.844 0.002 4.266-0 0.258-0.106 0.475-0.282 0.652zM23.575 19.621h-5.327v-7.952h1.414v6.616h3.912v1.337z"></path>
</svg>
