<!-- Generated by IcoMoon.io -->
<svg version="1.1" xmlns="http://www.w3.org/2000/svg" width="27" height="32" viewBox="0 0 27 32">
<title>ACMDL1</title>
<path d="M13.391 13.368c-0.272-0.263-0.537-0.531-0.802-0.801-0.147-0.151-0.322-0.217-0.531-0.216-1.102 0.002-2.203 0.001-3.305 0.001h-0.196v6.635c0.032 0.006 0.050 0.012 0.068 0.012 1.185 0.001 2.37 0.004 3.555-0.005 0.109-0.001 0.241-0.058 0.323-0.132 0.304-0.274 0.595-0.562 0.883-0.853 0.146-0.147 0.235-0.329 0.235-0.543 0-1.185 0.002-2.37-0.001-3.555-0.001-0.209-0.073-0.392-0.229-0.543zM12.424 17.181c-0.001 0.106-0.066 0.223-0.128 0.316-0.223 0.331-0.537 0.424-0.934 0.398-0.528-0.035-1.061-0.009-1.614-0.009v-4.42h0.2c0.582 0 1.164 0.005 1.746-0.003 0.154-0.002 0.254 0.065 0.37 0.154 0.303 0.232 0.386 0.52 0.374 0.897-0.028 0.888-0.004 1.778-0.015 2.667zM16.767 12.362h-1.179v6.627h4.439v-1.114h-3.26v-5.513zM25.932 3.618c-1.006-1.007-2.218-1.51-3.636-1.51h-17.151c-1.418 0-2.628 0.503-3.636 1.51-1.007 1.005-1.51 2.218-1.51 3.636v17.151c0 1.418 0.503 2.631 1.51 3.638 1.007 1.003 2.22 1.508 3.636 1.508h17.151c1.418 0 2.63-0.505 3.636-1.51 1.007-1.007 1.511-2.218 1.511-3.636v-17.151c0-1.418-0.504-2.631-1.511-3.636zM24.994 15.986c-0.708 0.705-1.41 1.416-2.123 2.116-0.118 0.116-0.133 0.212-0.091 0.363 0.282 1.023 0.554 2.050 0.831 3.082-0.030 0.011-0.053 0.021-0.076 0.028-1.031 0.281-2.060 0.566-3.093 0.838-0.117 0.031-0.151 0.087-0.178 0.187-0.164 0.621-0.331 1.242-0.498 1.862-0.114 0.422-0.229 0.843-0.347 1.275-0.071-0.014-0.126-0.023-0.18-0.037-0.996-0.262-1.992-0.521-2.986-0.793-0.114-0.031-0.175-0.011-0.249 0.064-0.464 0.469-0.933 0.933-1.398 1.401-0.293 0.295-0.581 0.593-0.871 0.89h-0.077c-0.769-0.771-1.536-1.543-2.309-2.309-0.041-0.041-0.137-0.061-0.196-0.045-1.061 0.277-2.121 0.56-3.2 0.847-0.136-0.509-0.271-1.017-0.406-1.525-0.144-0.54-0.287-1.080-0.431-1.62-0.029-0.109-0.074-0.171-0.204-0.205-0.99-0.256-1.976-0.529-2.964-0.79-0.147-0.039-0.188-0.086-0.144-0.247 0.27-0.98 0.521-1.965 0.792-2.945 0.035-0.128 0.012-0.196-0.073-0.281-0.722-0.718-1.438-1.443-2.164-2.156-0.131-0.129-0.12-0.196 0.004-0.318 0.726-0.714 1.442-1.438 2.164-2.156 0.077-0.077 0.109-0.139 0.074-0.264-0.27-0.981-0.519-1.967-0.79-2.947-0.047-0.17-0.014-0.219 0.144-0.26 0.966-0.251 1.93-0.513 2.896-0.765 0.153-0.040 0.236-0.107 0.278-0.274 0.261-1.021 0.538-2.038 0.81-3.056 0.003-0.012 0.013-0.021 0.025-0.041 0.674 0.178 1.351 0.357 2.028 0.537 0.394 0.105 0.785 0.218 1.18 0.319 0.050 0.013 0.132-0.006 0.168-0.042 0.775-0.772 1.546-1.549 2.318-2.325h0.077c0.774 0.782 1.548 1.564 2.326 2.342 0.030 0.030 0.107 0.037 0.154 0.025 0.678-0.178 1.354-0.362 2.031-0.542 0.385-0.103 0.77-0.202 1.16-0.305 0.022 0.053 0.040 0.087 0.050 0.123 0.269 1.001 0.54 2.002 0.803 3.004 0.031 0.118 0.074 0.178 0.203 0.21 0.465 0.113 0.925 0.246 1.387 0.371 0.585 0.159 1.17 0.318 1.756 0.477-0.004 0.034-0.004 0.054-0.009 0.071-0.277 1.038-0.557 2.076-0.829 3.116-0.016 0.062 0.009 0.161 0.053 0.207 0.283 0.296 0.576 0.584 0.866 0.873 0.485 0.483 0.972 0.966 1.49 1.481-0.071 0.052-0.134 0.088-0.183 0.137z"></path>
</svg>
