<!-- Generated by IcoMoon.io -->
<svg version="1.1" xmlns="http://www.w3.org/2000/svg" width="27" height="32" viewBox="0 0 27 32">
<title>ADS</title>
<path d="M12.991 20.436c2.544 0.403 4.933-1.333 5.336-3.877s-1.333-4.933-3.877-5.336-4.933 1.333-5.336 3.877 1.333 4.933 3.877 5.336zM14.415 14.042c-0.167-0.090-0.412-0.136-0.735-0.136-0.363 0-0.619 0.089-0.77 0.266-0.108 0.131-0.18 0.308-0.215 0.531h-1.461c0.032-0.506 0.174-0.923 0.427-1.249 0.402-0.51 1.092-0.765 2.070-0.765 0.637 0 1.202 0.126 1.697 0.377s0.742 0.726 0.742 1.424v2.657c0 0.184 0.004 0.407 0.011 0.669 0.011 0.198 0.041 0.333 0.090 0.404s0.124 0.129 0.223 0.175v0.223h-1.647c-0.046-0.117-0.078-0.227-0.096-0.329s-0.032-0.22-0.043-0.351c-0.21 0.227-0.453 0.42-0.727 0.579-0.328 0.188-0.698 0.282-1.112 0.282-0.527 0-0.963-0.15-1.307-0.449s-0.516-0.723-0.516-1.273c0-0.712 0.277-1.227 0.83-1.546 0.303-0.173 0.75-0.298 1.338-0.372l0.519-0.064c0.282-0.035 0.483-0.080 0.605-0.133 0.218-0.092 0.327-0.236 0.327-0.43 0-0.237-0.083-0.401-0.25-0.492zM13.96 16.053l-0.345 0.064c-0.323 0.057-0.555 0.126-0.696 0.207-0.239 0.138-0.358 0.353-0.358 0.643 0 0.259 0.073 0.445 0.219 0.561s0.323 0.173 0.531 0.173c0.331 0 0.636-0.096 0.915-0.287s0.424-0.54 0.434-1.047v-0.563c-0.097 0.060-0.195 0.109-0.294 0.146s-0.234 0.072-0.407 0.104zM25.932 3.618c-1.006-1.007-2.218-1.51-3.636-1.51h-17.151c-1.418 0-2.628 0.503-3.636 1.51-1.007 1.005-1.51 2.218-1.51 3.636v17.151c0 1.418 0.503 2.631 1.51 3.638 1.007 1.003 2.22 1.508 3.636 1.508h17.151c1.418 0 2.63-0.505 3.636-1.51 1.007-1.007 1.511-2.218 1.511-3.636v-17.151c0-1.418-0.504-2.631-1.511-3.636zM8.186 6.324c1.203 0 2.178 0.975 2.178 2.178s-0.975 2.178-2.178 2.178-2.178-0.975-2.178-2.178c0-1.203 0.975-2.178 2.178-2.178zM6.042 11.435c0.14 0.074 0.38 0.335 0.38 0.335-0.972 1.738-1.251 3.643-0.857 5.617l-0.426 0.266c-0.469-2.123-0.135-4.34 0.903-6.218zM6.867 21.28l-4.16 2.701c-0.533 0.346-1.245 0.195-1.591-0.338s-0.195-1.245 0.338-1.591l4.159-2.701c0.363-0.236 0.809-0.24 1.167-0.051l1.095-0.684c-0.575-1.166-0.808-2.515-0.589-3.897 0.135-0.855 0.431-1.644 0.852-2.342 0.72 0.010 1.452-0.18 2.109-0.59 0.878-0.549 1.46-1.39 1.701-2.319 0.88-0.249 1.828-0.316 2.791-0.164 3.553 0.563 5.977 3.899 5.414 7.452s-3.899 5.977-7.452 5.414c-1.779-0.282-3.275-1.259-4.255-2.61l-1.059 0.662c0.033 0.408-0.153 0.82-0.52 1.058zM18.517 23.268c-3.286 2.053-7.396 1.695-10.258-0.597l0.425-0.266c2.703 2.078 6.52 2.376 9.582 0.463 3.938-2.461 5.135-7.648 2.675-11.585-1.688-2.701-4.377-4.139-7.348-3.965-0.812 0.048-1.501 0.283-1.501 0.283s-0.036-0.247-0.088-0.398c3.638-0.983 7.074 0.21 9.336 3.83 2.599 4.159 1.334 9.637-2.825 12.236z"></path>
</svg>
