<!-- Generated by IcoMoon.io -->
<svg version="1.1" xmlns="http://www.w3.org/2000/svg" width="32" height="32" viewBox="0 0 32 32">
<title>ADS1</title>
<path d="M28.026 10.231c3.277 5.244 1.682 12.152-3.562 15.429-4.144 2.589-9.326 2.137-12.935-0.753l0.536-0.335c3.409 2.621 8.222 2.997 12.083 0.584 4.966-3.103 6.476-9.643 3.373-14.609-2.129-3.406-5.519-5.22-9.265-5-1.024 0.060-1.892 0.357-1.892 0.357s-0.045-0.312-0.111-0.502c4.587-1.239 8.921 0.264 11.773 4.829zM7.593 18.581l0.538-0.336c-0.497-2.489-0.145-4.891 1.081-7.083 0 0-0.302-0.329-0.479-0.422-1.309 2.369-1.731 5.164-1.139 7.841zM21.63 19.297c-0.063-0.089-0.101-0.259-0.114-0.509-0.009-0.33-0.013-0.612-0.013-0.844v-3.35c0-0.88-0.312-1.478-0.935-1.796s-1.337-0.476-2.14-0.476c-1.234 0-2.104 0.322-2.611 0.965-0.319 0.411-0.498 0.936-0.538 1.575h1.843c0.045-0.281 0.136-0.505 0.272-0.67 0.19-0.223 0.514-0.335 0.971-0.335 0.407 0 0.716 0.057 0.927 0.171s0.316 0.32 0.316 0.62c0 0.246-0.137 0.427-0.412 0.543-0.153 0.067-0.407 0.123-0.763 0.168l-0.655 0.080c-0.742 0.094-1.305 0.25-1.687 0.469-0.697 0.402-1.046 1.052-1.046 1.95 0 0.692 0.217 1.227 0.65 1.605s0.983 0.566 1.648 0.566c0.521 0 0.988-0.118 1.402-0.355 0.346-0.201 0.651-0.444 0.917-0.73 0.013 0.165 0.031 0.313 0.054 0.442s0.063 0.268 0.121 0.415h2.077v-0.281c-0.125-0.058-0.219-0.132-0.282-0.221zM19.6 16.959c-0.014 0.639-0.196 1.079-0.548 1.32s-0.736 0.362-1.153 0.362c-0.263 0-0.487-0.073-0.67-0.218s-0.276-0.381-0.276-0.707c0-0.366 0.15-0.637 0.451-0.811 0.178-0.103 0.47-0.19 0.878-0.261l0.435-0.080c0.217-0.040 0.388-0.084 0.513-0.131s0.248-0.108 0.37-0.184v0.71zM14.182 7.041c0-1.517-1.229-2.746-2.746-2.746s-2.746 1.23-2.746 2.746 1.23 2.746 2.746 2.746 2.746-1.23 2.746-2.746zM19.699 8.053c-1.214-0.192-2.409-0.108-3.519 0.207-0.303 1.171-1.038 2.232-2.145 2.924-0.828 0.517-1.75 0.757-2.659 0.744-0.531 0.88-0.904 1.876-1.074 2.953-0.276 1.742 0.018 3.443 0.743 4.913l-1.381 0.863c-0.45-0.239-1.013-0.233-1.471 0.064l-5.245 3.406c-0.672 0.436-0.863 1.335-0.427 2.007s1.335 0.863 2.006 0.427l5.245-3.406c0.463-0.3 0.697-0.82 0.656-1.334l1.335-0.834c1.235 1.704 3.122 2.936 5.365 3.292 4.48 0.71 8.687-2.347 9.397-6.827s-2.347-8.687-6.827-9.397zM24.224 17.201c-0.508 3.208-3.521 5.397-6.729 4.889s-5.397-3.521-4.889-6.729 3.521-5.397 6.729-4.889 5.397 3.521 4.889 6.729z"></path>
</svg>
