<!-- Generated by IcoMoon.io -->
<svg version="1.1" xmlns="http://www.w3.org/2000/svg" width="32" height="32" viewBox="0 0 32 32">
<title>arXiv</title>
<path d="M13.978 12.452c0 1.112-0.419 2.013-0.937 2.013s-0.937-0.901-0.937-2.013c0-1.112 0.419-2.013 0.937-2.013s0.937 0.901 0.937 2.013zM19.913 12.452c0 1.112-0.419 2.013-0.936 2.013s-0.936-0.901-0.936-2.013c0-1.112 0.419-2.013 0.936-2.013s0.936 0.901 0.936 2.013zM21.483 16.844h-0.992c0 0.521 0.193 0.999 0.507 1.381-0.337 0.846-2.357 1.905-4.99 1.905-2.632 0-4.653-1.059-4.99-1.905 0.313-0.382 0.508-0.86 0.508-1.381h-0.993c0 0.699-0.619 1.267-1.378 1.267v0.993c0.384 0 0.744-0.097 1.065-0.253 0.728 1.223 2.975 2.272 5.788 2.272 2.814 0 5.059-1.050 5.787-2.272 0.322 0.156 0.681 0.253 1.065 0.253v-0.993c-0.759 0-1.378-0.568-1.378-1.267zM29.864 24.685c-0.297-0.552-0.554-0.662-1.036-0.812-0.414-0.125-1.142-0.067-1.77 0.177-0.143 0.056-0.272 0.146-0.409 0.22-0.406 0.218-0.651 0.175-0.96-0.155-0.178-0.191-0.735-0.695-1.5-1.42 1.561-1.858 2.503-4.25 2.503-6.866 0-2.615-0.942-5.008-2.503-6.866 0.765-0.725 1.321-1.227 1.498-1.419 0.309-0.331 0.554-0.373 0.96-0.154 0.136 0.073 0.266 0.163 0.409 0.219 0.626 0.245 1.355 0.303 1.77 0.176 0.481-0.148 0.739-0.259 1.036-0.811 0.182-0.425 0.249-0.801 0.116-1.277-0.133-0.475-0.677-0.779-1.36-0.898-0.548-0.096-0.323-0.185-0.333-0.677-0.013-0.737-0.278-1.316-0.907-1.71-0.476-0.295-1.021-0.318-1.548-0.299-0.725 0.023-1.472 0.382-1.655 0.813-0.218 0.509 0.027 0.837 0.227 1.202 0.258 0.466 0.132 0.932-0.202 1.321-0.361 0.423-1.247 1.333-1.752 1.87-1.791-1.358-4.019-2.174-6.441-2.174-2.423 0-4.651 0.816-6.443 2.175-0.505-0.538-1.391-1.449-1.752-1.872-0.334-0.389-0.459-0.855-0.202-1.322 0.2-0.363 0.444-0.691 0.228-1.2-0.184-0.432-0.931-0.789-1.656-0.813-0.527-0.020-1.073 0.003-1.549 0.299-0.628 0.392-0.893 0.973-0.907 1.708-0.009 0.492 0.217 0.582-0.333 0.678-0.683 0.117-1.226 0.423-1.36 0.897-0.133 0.477-0.066 0.853 0.116 1.277 0.297 0.552 0.555 0.663 1.036 0.812 0.414 0.126 1.143 0.067 1.771-0.176 0.143-0.057 0.272-0.147 0.409-0.219 0.406-0.219 0.65-0.177 0.96 0.153 0.179 0.193 0.735 0.696 1.498 1.42-1.561 1.858-2.503 4.251-2.503 6.866 0 2.616 0.944 5.010 2.503 6.867-0.764 0.725-1.32 1.228-1.498 1.419-0.31 0.33-0.554 0.373-0.96 0.155-0.136-0.074-0.266-0.164-0.409-0.22-0.627-0.244-1.357-0.303-1.771-0.177-0.481 0.15-0.739 0.26-1.036 0.812-0.182 0.425-0.249 0.801-0.116 1.277 0.134 0.474 0.677 0.779 1.36 0.898 0.549 0.096 0.324 0.185 0.333 0.677 0.013 0.737 0.279 1.316 0.907 1.71 0.476 0.295 1.022 0.318 1.549 0.299 0.725-0.022 1.472-0.382 1.656-0.813 0.217-0.508-0.028-0.839-0.228-1.201-0.257-0.465-0.132-0.931 0.202-1.321 0.361-0.422 1.247-1.333 1.752-1.871 1.792 1.359 4.020 2.175 6.443 2.175s4.65-0.816 6.441-2.175c0.505 0.538 1.392 1.449 1.753 1.871 0.334 0.39 0.459 0.856 0.202 1.321-0.201 0.363-0.444 0.693-0.228 1.201 0.184 0.431 0.931 0.791 1.656 0.813 0.527 0.019 1.073-0.004 1.549-0.299 0.628-0.393 0.892-0.973 0.906-1.71 0.010-0.491-0.216-0.581 0.334-0.677 0.682-0.118 1.226-0.423 1.359-0.898 0.134-0.477 0.065-0.852-0.117-1.277zM16.009 25.853c-5.527 0-10.024-4.497-10.024-10.024 0-5.526 4.497-10.023 10.024-10.023 5.525 0 10.023 4.497 10.023 10.023 0 5.527-4.498 10.024-10.023 10.024z"></path>
</svg>
