<!-- Generated by IcoMoon.io -->
<svg version="1.1" xmlns="http://www.w3.org/2000/svg" width="32" height="32" viewBox="0 0 32 32">
<title>bioRxiv1</title>
<path d="M24.011 16.786c0.421-0.553 0.843-1.025 1.173-1.554 0.882-1.415 2.263-3.664 2.584-4.283 0.164-0.331 0.402-0.566 0.553-0.581s0.343-0.020 0.506 0.082c0.163 0.102 0.288 0.348 0.174 0.83s-0.18 0.657-0.338 1.028c-0.925 2.025-2.282 3.768-3.709 5.455-0.269 0.318-0.281 0.551-0.13 0.911 0.644 1.538 1.247 3.092 1.887 4.632 0.213 0.512 0.475 1.004 0.738 1.494 0.265 0.495 0.455 0.756 1.26 0.745 0.332-0.001 0.963-0.090 1.016 0.391 0.058 0.525-0.579 0.603-0.959 0.681-0.429 0.087-0.645 0.121-1.084 0.122-1.012 0.002-2.207-0.385-2.702-1.284-0.507-0.92-0.781-1.591-1.246-2.847-0.305-0.825-0.648-1.637-1.007-2.555-0.202 0.217-0.392 0.368-0.516 0.562-1.531 2.076-2.42 3.755-3.106 4.934-0.541 0.93-0.586 1.34-1.228 1.206-0.586-0.239-0.417-1.025-0.37-1.224 0.272-1.173 1.131-2.326 1.801-3.339 0.749-1.132 1.669-2.15 2.49-3.237 0.121-0.161 0.205-0.467 0.136-0.637-0.736-1.81-1.501-3.609-2.268-5.406-0.418-0.891-0.702-1.459-2.344-1.397-0.272-0.025-0.436-0.096-0.432-0.41 0-0.38 0.257-0.515 0.445-0.571 1.856-0.551 3.72-0.389 4.686 1.686 0.598 1.285 1.128 2.601 1.69 3.903 0.083 0.191 0.172 0.379 0.302 0.662zM2.287 21.558c0.432-0.324 0.732-0.632 0.902-0.925s0.255-0.648 0.255-1.064v-12.562c0-0.355-0.073-0.702-0.218-1.041-0.097-0.154-0.194-0.301-0.291-0.44s-0.274-0.355-0.532-0.648h5.737c1.866 0 3.327 0.378 4.384 1.134s1.585 1.805 1.585 3.146c0 1.049-0.355 1.928-1.064 2.637-0.401 0.401-0.795 0.694-1.18 0.879s-0.995 0.378-1.828 0.578l1.55 2.059c0.324 0.432 0.763 0.964 1.319 1.596 0.617 0.694 1.28 1.404 1.99 2.128 0.632 0.663 1.13 1.145 1.492 1.446s0.914 0.659 1.654 1.076h-3.748c-0.617 0-1.28-0.355-1.99-1.064-0.833-0.848-1.681-1.889-2.545-3.123-0.586-0.787-1.103-1.511-1.55-2.175-0.355-0.524-0.864-1.319-1.527-2.383 2.899-0.401 4.349-1.527 4.349-3.378 0-1.727-1.226-2.591-3.678-2.591h-0.925v12.675c0 0.448 0.081 0.811 0.243 1.089s0.474 0.595 0.937 0.95h-5.321z"></path>
</svg>
