<!-- Generated by IcoMoon.io -->
<svg version="1.1" xmlns="http://www.w3.org/2000/svg" width="27" height="32" viewBox="0 0 27 32">
<title>bioRxiv</title>
<path d="M25.932 3.618c-1.006-1.007-2.218-1.51-3.636-1.51h-17.151c-1.418 0-2.628 0.503-3.636 1.51-1.007 1.005-1.51 2.218-1.51 3.636v17.151c0 1.418 0.503 2.631 1.51 3.638 1.007 1.003 2.22 1.508 3.636 1.508h17.151c1.418 0 2.63-0.505 3.636-1.51 1.007-1.007 1.511-2.218 1.511-3.636v-17.151c0-1.418-0.504-2.631-1.511-3.636zM12.579 19.648c-0.411 0-0.854-0.236-1.326-0.709-0.555-0.565-1.121-1.259-1.697-2.082-0.391-0.524-0.735-1.008-1.033-1.45-0.237-0.349-0.576-0.879-1.018-1.589 1.933-0.267 2.899-1.018 2.899-2.252 0-1.151-0.817-1.727-2.452-1.727h-0.617v8.45c0 0.299 0.054 0.541 0.162 0.726s0.316 0.397 0.625 0.633h-3.547c0.288-0.216 0.488-0.421 0.602-0.617s0.17-0.432 0.17-0.709v-8.375c0-0.236-0.048-0.468-0.145-0.694-0.065-0.103-0.129-0.201-0.194-0.293s-0.183-0.236-0.355-0.432h3.825c1.244 0 2.218 0.252 2.923 0.756s1.057 1.203 1.057 2.098c0 0.699-0.237 1.285-0.71 1.758-0.267 0.267-0.53 0.463-0.787 0.586s-0.663 0.252-1.218 0.386l1.033 1.373c0.216 0.288 0.509 0.643 0.879 1.064 0.411 0.463 0.853 0.936 1.326 1.419 0.421 0.442 0.753 0.763 0.995 0.964s0.609 0.44 1.103 0.717h-2.499zM22.227 23.021c-0.286 0.058-0.43 0.081-0.723 0.081-0.674 0.002-1.472-0.257-1.802-0.856-0.338-0.613-0.52-1.061-0.83-1.898-0.204-0.55-0.432-1.091-0.671-1.703-0.135 0.145-0.262 0.246-0.344 0.375-1.021 1.384-1.614 2.503-2.071 3.29-0.36 0.62-0.391 0.893-0.819 0.804-0.39-0.16-0.278-0.683-0.247-0.816 0.181-0.782 0.754-1.55 1.201-2.226 0.499-0.755 1.113-1.433 1.66-2.158 0.081-0.107 0.137-0.311 0.091-0.425-0.491-1.207-1-2.406-1.512-3.604-0.278-0.594-0.468-0.973-1.563-0.932-0.181-0.016-0.291-0.064-0.288-0.273 0-0.254 0.171-0.344 0.297-0.381 1.237-0.367 2.48-0.259 3.124 1.124 0.399 0.857 0.752 1.734 1.127 2.602 0.055 0.127 0.115 0.252 0.201 0.442 0.281-0.369 0.562-0.683 0.782-1.036 0.588-0.943 1.509-2.443 1.723-2.855 0.109-0.221 0.268-0.377 0.369-0.387s0.229-0.013 0.338 0.055 0.192 0.232 0.116 0.553c-0.076 0.321-0.12 0.438-0.225 0.685-0.617 1.35-1.522 2.512-2.473 3.637-0.179 0.212-0.187 0.367-0.087 0.608 0.429 1.025 0.832 2.061 1.258 3.088 0.142 0.341 0.317 0.67 0.492 0.996 0.177 0.33 0.303 0.504 0.84 0.497 0.221-0.001 0.642-0.060 0.677 0.26 0.039 0.35-0.386 0.402-0.639 0.454z"></path>
</svg>
