<!-- Generated by IcoMoon.io -->
<svg version="1.1" xmlns="http://www.w3.org/2000/svg" width="32" height="32" viewBox="0 0 32 32">
<title>Coursera</title>
<path d="M29.721 15.606c-0.005-0.108-0.012-0.213-0.020-0.319 0 0 0-0.001 0-0.002s0-0.001 0-0.002c-0.102-1.157-0.484-2.24-1.133-3.218-0.29-0.436-0.621-0.833-0.991-1.188-0.541-0.521-1.168-0.951-1.874-1.292-1.063-0.508-2.237-0.764-3.489-0.764-0.122 0-0.251 0.002-0.38 0.007-0.88 0.040-1.731 0.207-2.531 0.501-0.806 0.291-1.509 0.676-2.084 1.139-0.117 0.093-0.244 0.207-0.381 0.332l-0.098 0.097-0.135 0.143h0.002l-0.063 0.062-0.031 0.033-0.161 0.169c-0.119 0.134-0.232 0.267-0.338 0.398l-0.001-0.002-0.004-0.004c-0.22 0.267-0.423 0.544-0.573 0.793-0.101 0.16-0.2 0.324-0.295 0.488l-1.311 2.651 0.002 0.002-0.069 0.135-0.145 0.293c-0.288 0.582-0.596 1.162-0.94 1.641-0.767 0.842-1.635 1.254-2.751 1.254-0.078 0-0.158-0.004-0.239-0.008-0.672-0.027-1.248-0.186-1.76-0.488-0.055-0.032-0.108-0.066-0.159-0.1-0.418-0.277-0.738-0.634-0.977-1.078-0.27-0.504-0.39-1.019-0.373-1.565 0.001-0.015 0.002-0.028 0.002-0.040 0.036-0.869 0.367-1.544 1.035-2.128 0.162-0.14 0.332-0.259 0.51-0.365 0.025-0.015 0.050-0.029 0.075-0.042 0.496-0.27 1.060-0.405 1.707-0.405l0.201 0.006c1.027 0.039 1.82 0.36 2.452 0.987l1.982-3.559c-0.474-0.317-1.010-0.59-1.6-0.812-0.022-0.008-0.046-0.018-0.069-0.025-0.071-0.025-0.14-0.051-0.213-0.074-0.627-0.21-1.285-0.339-1.963-0.397v0c-0.016-0.003-0.035-0.005-0.052-0.007-0.104-0.006-0.21-0.019-0.314-0.024-0.113-0.005-0.227-0.007-0.339-0.007h-0.064c-1.246 0.005-2.405 0.26-3.464 0.766-1.186 0.572-2.148 1.404-2.86 2.477-0.711 1.073-1.099 2.264-1.155 3.542-0.005 0.11-0.007 0.218-0.007 0.325-0.001 1.788 0.651 3.36 1.946 4.679 1.352 1.385 3.111 2.131 5.222 2.219 0.136 0.006 0.269 0.009 0.403 0.009 1.194 0 2.3-0.213 3.291-0.638 0.248-0.106 0.488-0.23 0.734-0.368 0.134-0.077 0.26-0.159 0.385-0.246l0.093-0.062 0.156-0.107c0.188-0.135 0.363-0.28 0.534-0.435l0.059-0.057c0.1-0.096 0.2-0.192 0.295-0.291l0.355-0.402 0.136-0.17 0.063-0.093 0.063-0.091c0.528-0.887 2.247-4.116 2.247-4.116v-0.007l0.102-0.197 0.085-0.154c0.253-0.461 0.436-0.789 0.678-1.133l0.006-0.010c0.565-0.819 1.537-1.403 2.682-1.502 1.921-0.165 3.605 1.097 3.76 2.819s-1.279 3.253-3.2 3.419c-0.4 0.034-0.789 0.007-1.155-0.073l-0.009 0.004c-1.41-0.293-2.307-1.322-2.75-1.781l-1.849 3.399c0 0 0.574 0.579 0.968 0.869s0.904 0.573 1.31 0.749c0.987 0.421 2.059 0.674 3.245 0.674 0.137 0 0.11 0 0.252-0.006 2.11-0.088 3.99-0.897 5.346-2.281 1.284-1.315 1.981-2.817 1.988-4.594v-0.053c-0.001-0.098-0.004-0.198-0.008-0.298z"></path>
</svg>
