<!-- Generated by IcoMoon.io -->
<svg version="1.1" xmlns="http://www.w3.org/2000/svg" width="27" height="32" viewBox="0 0 27 32">
<title>Coursera1</title>
<path d="M25.932 3.618c-1.007-1.007-2.218-1.51-3.636-1.51h-17.151c-1.418 0-2.628 0.503-3.636 1.51-1.007 1.005-1.51 2.218-1.51 3.636v17.151c0 1.418 0.503 2.631 1.51 3.638 1.007 1.003 2.22 1.508 3.636 1.508h17.151c1.418 0 2.628-0.505 3.636-1.51 1.007-1.007 1.51-2.218 1.51-3.636v-17.151c0-1.418-0.503-2.631-1.51-3.636zM25.155 15.936c-0.006 1.481-0.586 2.732-1.657 3.828-1.13 1.154-2.697 1.828-4.455 1.901-0.119 0.005-0.096 0.005-0.21 0.005-0.988 0-1.882-0.21-2.704-0.561-0.339-0.147-0.763-0.384-1.092-0.624s-0.807-0.724-0.807-0.724l1.541-2.833c0.369 0.383 1.117 1.24 2.292 1.484l0.008-0.003c0.306 0.067 0.63 0.090 0.963 0.061 1.601-0.138 2.795-1.414 2.667-2.849s-1.532-2.487-3.133-2.35c-0.954 0.082-1.764 0.568-2.235 1.251l-0.006 0.008c-0.202 0.287-0.354 0.56-0.565 0.944l-0.071 0.128-0.085 0.164v0.005c0 0-1.432 2.691-1.872 3.43l-0.053 0.076-0.053 0.077-0.113 0.142-0.296 0.335c-0.079 0.083-0.162 0.163-0.246 0.243l-0.050 0.047c-0.142 0.129-0.289 0.251-0.445 0.363l-0.13 0.089-0.077 0.052c-0.104 0.073-0.21 0.141-0.321 0.205-0.205 0.115-0.405 0.219-0.612 0.307-0.826 0.354-1.747 0.531-2.742 0.531-0.111 0-0.223-0.003-0.336-0.008-1.759-0.074-3.225-0.695-4.352-1.849-1.080-1.1-1.623-2.41-1.622-3.9 0-0.089 0.002-0.179 0.006-0.271 0.046-1.065 0.37-2.057 0.962-2.951 0.594-0.894 1.395-1.588 2.384-2.064 0.882-0.422 1.848-0.634 2.886-0.638h0.053c0.093 0.001 0.188 0.002 0.282 0.006 0.087 0.004 0.175 0.015 0.261 0.020 0.014 0.002 0.029 0.003 0.043 0.005 0.565 0.049 1.113 0.156 1.636 0.331 0.060 0.019 0.118 0.041 0.177 0.062 0.019 0.006 0.039 0.014 0.057 0.021 0.492 0.185 0.938 0.412 1.333 0.677l-1.652 2.966c-0.527-0.522-1.187-0.79-2.043-0.822l-0.168-0.005c-0.539 0-1.009 0.112-1.422 0.337-0.021 0.011-0.042 0.023-0.063 0.035-0.148 0.088-0.289 0.187-0.425 0.304-0.556 0.487-0.832 1.049-0.862 1.773 0 0.010-0.001 0.021-0.002 0.033-0.014 0.455 0.086 0.884 0.311 1.304 0.2 0.37 0.466 0.667 0.814 0.899 0.043 0.029 0.087 0.056 0.132 0.084 0.426 0.252 0.906 0.384 1.466 0.407 0.068 0.004 0.135 0.007 0.2 0.007 0.93 0 1.653-0.343 2.292-1.045 0.287-0.399 0.544-0.883 0.783-1.367l0.121-0.244 0.057-0.112-0.002-0.002 1.093-2.21c0.079-0.137 0.162-0.274 0.246-0.407 0.125-0.207 0.294-0.438 0.477-0.66l0.003 0.003 0.001 0.002c0.088-0.109 0.183-0.22 0.281-0.332l0.134-0.141 0.025-0.028 0.053-0.052h-0.002l0.112-0.119 0.082-0.081c0.114-0.104 0.22-0.2 0.317-0.277 0.479-0.385 1.064-0.706 1.736-0.949 0.667-0.245 1.376-0.384 2.109-0.418 0.108-0.004 0.214-0.005 0.316-0.005 1.044 0 2.022 0.213 2.908 0.636 0.588 0.284 1.111 0.643 1.561 1.077 0.309 0.296 0.585 0.626 0.826 0.99 0.541 0.815 0.859 1.718 0.944 2.682 0 0.001 0 0.002 0 0.002v0.002c0.007 0.089 0.013 0.176 0.017 0.266 0.003 0.084 0.006 0.166 0.006 0.248v0.044z"></path>
</svg>
