<!-- Generated by IcoMoon.io -->
<svg version="1.1" xmlns="http://www.w3.org/2000/svg" width="27" height="32" viewBox="0 0 27 32">
<title>CV</title>
<path d="M25.932 3.904c-1.006-1.007-2.218-1.51-3.636-1.51h-17.151c-1.418 0-2.628 0.503-3.636 1.51-1.007 1.005-1.51 2.218-1.51 3.636v17.151c0 1.418 0.503 2.631 1.51 3.638 1.007 1.003 2.22 1.508 3.636 1.508h17.151c1.418 0 2.63-0.505 3.636-1.51 1.007-1.007 1.511-2.218 1.511-3.636v-17.151c0-1.418-0.504-2.631-1.511-3.636zM11.769 21.36c-0.467 0.327-1.542 0.967-3.070 0.967-2.915 0-5.269-2.12-5.269-5.846 0-3.257 2.214-5.829 5.331-5.829 1.263 0 2.385 0.437 3.211 1.091 0.764 0.608 1.122 1.216 1.434 1.762l-2.182 1.090c-0.156-0.358-0.344-0.732-0.826-1.137-0.531-0.421-1.060-0.546-1.513-0.546-1.777 0-2.712 1.653-2.712 3.492 0 2.417 1.232 3.616 2.712 3.616 1.434 0 2.012-0.998 2.385-1.636l2.168 1.107c-0.406 0.638-0.796 1.263-1.669 1.87zM20.193 21.999h-2.805l-3.772-11.005h2.931l2.276 7.826 2.259-7.826h2.931l-3.819 11.005z"></path>
</svg>
