<!-- Generated by IcoMoon.io -->
<svg version="1.1" xmlns="http://www.w3.org/2000/svg" width="32" height="32" viewBox="0 0 32 32">
<title>CV1</title>
<path d="M15.63 20.337c-0.541 0.851-1.061 1.684-2.225 2.493-0.623 0.437-2.056 1.289-4.094 1.289-3.887 0-7.025-2.826-7.025-7.795 0-4.342 2.951-7.773 7.108-7.773 1.684 0 3.18 0.582 4.282 1.455 1.019 0.811 1.496 1.621 1.912 2.349l-2.909 1.454c-0.208-0.477-0.459-0.976-1.102-1.516-0.707-0.562-1.413-0.728-2.017-0.728-2.369 0-3.616 2.203-3.616 4.655 0 3.222 1.643 4.821 3.616 4.821 1.912 0 2.682-1.33 3.18-2.181l2.89 1.476zM25.821 9.009h3.907l-5.092 14.674h-3.74l-5.029-14.674h3.907l3.034 10.435z"></path>
</svg>
