<!-- Generated by IcoMoon.io -->
<svg version="1.1" xmlns="http://www.w3.org/2000/svg" width="27" height="32" viewBox="0 0 27 32">
<title>Dataverse</title>
<path d="M12.364 18.004c-1.724 0-3.126 1.402-3.126 3.126s1.402 3.126 3.126 3.126 3.126-1.402 3.126-3.126-1.402-3.126-3.126-3.126zM16.446 8.412c0-0.622-0.506-1.129-1.129-1.129s-1.129 0.506-1.129 1.129 0.506 1.129 1.129 1.129 1.129-0.506 1.129-1.129zM16.472 12.69c-0.956 0-1.733 0.778-1.733 1.733s0.778 1.733 1.733 1.733c0.956 0 1.733-0.778 1.733-1.733s-0.777-1.733-1.733-1.733zM25.932 3.618c-1.006-1.007-2.218-1.51-3.636-1.51h-17.151c-1.418 0-2.628 0.503-3.636 1.51-1.007 1.005-1.51 2.218-1.51 3.636v17.151c0 1.418 0.503 2.631 1.51 3.638 1.007 1.003 2.22 1.508 3.636 1.508h17.151c1.418 0 2.63-0.505 3.636-1.51 1.007-1.007 1.511-2.218 1.511-3.636v-17.151c0-1.418-0.504-2.631-1.511-3.636zM16.472 16.877c-0.282 0-0.553-0.050-0.806-0.139l-0.846 1.432c0.849 0.706 1.391 1.77 1.391 2.958 0 2.121-1.726 3.847-3.847 3.847s-3.847-1.726-3.847-3.847 1.726-3.847 3.847-3.847c0.674 0 1.308 0.175 1.86 0.481l0.803-1.36c-0.611-0.447-1.010-1.167-1.010-1.98 0-1.105 0.734-2.040 1.739-2.347l-0.368-1.938c-0.024 0.001-0.047 0.004-0.071 0.004-0.954 0-1.73-0.776-1.73-1.73s0.776-1.73 1.73-1.73 1.73 0.776 1.73 1.73c0 0.677-0.391 1.262-0.959 1.546l0.382 2.011c0.001 0 0.001-0 0.002-0 1.353 0 2.454 1.101 2.454 2.454s-1.101 2.454-2.455 2.454z"></path>
</svg>
