<!-- Generated by IcoMoon.io -->
<svg version="1.1" xmlns="http://www.w3.org/2000/svg" width="32" height="32" viewBox="0 0 32 32">
<title>Dataverse1</title>
<path d="M20.133 10.038c-0.001 0-0.002 0-0.002 0l-0.573-3.017c0.851-0.426 1.438-1.304 1.438-2.319 0-1.431-1.164-2.595-2.594-2.595s-2.595 1.164-2.595 2.595c0 1.431 1.164 2.595 2.595 2.595 0.036 0 0.071-0.004 0.107-0.005l0.552 2.907c-1.508 0.461-2.609 1.864-2.609 3.521 0 1.22 0.598 2.299 1.515 2.97l-1.205 2.040c-0.827-0.459-1.778-0.721-2.789-0.721-3.182 0-5.771 2.589-5.771 5.771s2.589 5.771 5.771 5.771 5.771-2.589 5.771-5.771c0-1.782-0.813-3.378-2.086-4.438l1.269-2.148c0.379 0.132 0.785 0.208 1.208 0.208 2.030 0 3.682-1.652 3.682-3.682s-1.652-3.682-3.682-3.682zM18.661 23.78c0 2.585-2.103 4.689-4.689 4.689s-4.689-2.103-4.689-4.689c0-2.585 2.103-4.689 4.689-4.689s4.689 2.103 4.689 4.689zM18.402 6.396c-0.934 0-1.693-0.759-1.693-1.693s0.76-1.693 1.693-1.693c0.934 0 1.693 0.759 1.693 1.693s-0.759 1.693-1.693 1.693zM20.133 16.32c-1.433 0-2.6-1.166-2.6-2.6s1.166-2.6 2.6-2.6 2.6 1.166 2.6 2.6c0 1.434-1.166 2.6-2.6 2.6z"></path>
</svg>
