<!-- Generated by IcoMoon.io -->
<svg version="1.1" xmlns="http://www.w3.org/2000/svg" width="27" height="32" viewBox="0 0 27 32">
<title>dblp</title>
<path d="M13.429 17.401l-0.139-0.080-0.906-3.449c-0.060-0.229 0.094-0.51 0.342-0.626l0.861-0.401-0.612-2.312c-0.001-0.002-0.002-0.005-0.002-0.007-0.101-0.036-0.225-0.030-0.347 0.027l-4.317 2.013 0.493 1.865c0.051 0.193 0.257 0.446 0.458 0.562l4.031 2.327 0.437 1.663 0.107-0.050-0.405-1.532zM14.015 14.469l0.171 0.099-0.469-1.784-0.131 0.061 0.429 1.624zM14.943 17.978l-0.928-3.509-1.242-0.717c-0.201-0.116-0.323-0.053-0.272 0.141l0.928 3.508 1.242 0.717c0.201 0.116 0.323 0.053 0.272-0.14zM25.932 3.618c-1.006-1.007-2.218-1.51-3.636-1.51h-17.151c-1.418 0-2.628 0.503-3.636 1.51-1.007 1.005-1.51 2.218-1.51 3.636v17.151c0 1.418 0.503 2.631 1.51 3.638 1.007 1.003 2.22 1.508 3.636 1.508h17.151c1.418 0 2.63-0.505 3.636-1.51 1.007-1.007 1.511-2.218 1.511-3.636v-17.151c0-1.418-0.504-2.631-1.511-3.636zM20.594 18.521l-1.482 0.691 1.5 5.672c0.051 0.193-0.072 0.256-0.272 0.14l-5.412-3.125c-0.201-0.116-0.407-0.369-0.458-0.562l-0.030-0.111c-0.087-0.041-0.154-0.114-0.181-0.217l-0.532-2.026-4.783 2.23c-0.248 0.116-0.501 0.024-0.561-0.205l-1.876-7.137c-0.060-0.229 0.094-0.51 0.342-0.626l1.458-0.68-1.476-5.58c-0.051-0.193 0.072-0.256 0.272-0.141l5.412 3.124c0.198 0.115 0.402 0.363 0.456 0.556 0.103 0.037 0.182 0.117 0.213 0.232l0.532 2.026 4.783-2.23c0.248-0.116 0.501-0.024 0.561 0.205l1.876 7.137c0.060 0.229-0.094 0.51-0.342 0.626zM18.185 16.877l-3.999-2.309 0.875 3.328c0.060 0.229-0.094 0.51-0.342 0.625l-0.885 0.413 0.606 2.293c0.106 0.050 0.243 0.051 0.379-0.012l4.293-2.002-0.469-1.773c-0.051-0.193-0.257-0.446-0.458-0.562z"></path>
</svg>
