<!-- Generated by IcoMoon.io -->
<svg version="1.1" xmlns="http://www.w3.org/2000/svg" width="32" height="32" viewBox="0 0 32 32">
<title>dblp1</title>
<path d="M15.803 11.194l0.197-0.091-0.799-3.038c-0.046-0.173-0.165-0.294-0.319-0.349 0.001 0.003 0.002 0.007 0.003 0.010l0.918 3.468zM9.313 14.417c-0.301-0.174-0.611-0.553-0.687-0.843l-0.74-2.798-2.187 1.020c-0.373 0.174-0.604 0.596-0.513 0.939l2.814 10.706c0.090 0.343 0.469 0.481 0.842 0.308l7.175-3.346-0.655-2.494-6.048-3.492zM16.015 20.402l0.799 3.038c0.040 0.154 0.142 0.264 0.272 0.326l-0.909-3.439-0.162 0.075zM26.83 18.77l-2.814-10.706c-0.090-0.343-0.469-0.481-0.842-0.308l-7.175 3.346 0.703 2.676 6 3.463c0.301 0.174 0.611 0.553 0.687 0.844l0.703 2.66 2.223-1.037c0.374-0.173 0.605-0.595 0.515-0.938zM14.883 7.715c-0.081-0.289-0.386-0.662-0.684-0.834l-8.118-4.687c-0.301-0.174-0.485-0.079-0.408 0.212l2.214 8.37 6.475-3.020c0.184-0.086 0.369-0.095 0.521-0.041zM14.585 12.554l1.863 1.075-0.644-2.435-1.291 0.603c-0.372 0.174-0.603 0.596-0.512 0.939l1.36 5.173 0.209 0.12-1.392-5.262c-0.079-0.29 0.105-0.385 0.407-0.212zM17.086 23.767l0.045 0.167c0.077 0.289 0.386 0.669 0.687 0.843l8.118 4.687c0.301 0.174 0.485 0.079 0.408-0.21l-2.25-8.508-6.44 3.003c-0.205 0.096-0.409 0.094-0.568 0.019zM17.84 18.893c0.077 0.289-0.108 0.384-0.408 0.21l-1.863-1.075 0.608 2.298 1.328-0.619c0.372-0.174 0.603-0.596 0.512-0.939l-1.313-4.992-0.256-0.148 1.392 5.263z"></path>
</svg>
