<!-- Generated by IcoMoon.io -->
<svg version="1.1" xmlns="http://www.w3.org/2000/svg" width="27" height="32" viewBox="0 0 27 32">
<title>Depsy</title>
<path d="M25.932 3.618c-1.006-1.007-2.218-1.51-3.636-1.51h-17.151c-1.418 0-2.628 0.503-3.636 1.51-1.007 1.005-1.51 2.218-1.51 3.636v17.151c0 1.418 0.503 2.631 1.51 3.638 1.007 1.003 2.22 1.508 3.636 1.508h17.151c1.418 0 2.63-0.505 3.636-1.51 1.007-1.007 1.511-2.218 1.511-3.636v-17.151c0-1.418-0.504-2.631-1.511-3.636zM13.721 24.976c-5.052 0-9.147-4.095-9.147-9.147s4.095-9.147 9.147-9.147c1.282 0 2.502 0.264 3.609 0.74h-1.329v5.545c-0.499-0.507-1.043-0.886-1.631-1.14s-1.217-0.38-1.887-0.38c-1.457 0-2.694 0.551-3.713 1.653s-1.528 2.516-1.528 4.241c0 1.663 0.526 3.055 1.579 4.174s2.301 1.679 3.744 1.679c0.643 0 1.239-0.115 1.79-0.344s1.099-0.604 1.646-1.124v1.181h2.803v-14.684c2.451 1.641 4.064 4.435 4.064 7.606 0 5.052-4.095 9.147-9.147 9.147zM16.124 17.3c0 0.993-0.29 1.796-0.87 2.408s-1.31 0.919-2.19 0.919c-0.853 0-1.571-0.311-2.154-0.934s-0.875-1.417-0.875-2.382c0-0.958 0.287-1.744 0.86-2.357s1.293-0.919 2.159-0.919c0.887 0 1.62 0.301 2.2 0.904s0.87 1.39 0.87 2.362z"></path>
</svg>
