<!-- Generated by IcoMoon.io -->
<svg version="1.1" xmlns="http://www.w3.org/2000/svg" width="32" height="32" viewBox="0 0 32 32">
<title>Depsy1</title>
<path d="M23.632 4.421v22.025h-4.205v-1.771c-0.821 0.78-1.644 1.343-2.469 1.687s-1.721 0.516-2.685 0.516c-2.164 0-4.036-0.839-5.616-2.518s-2.369-3.766-2.369-6.261c0-2.588 0.764-4.708 2.292-6.361s3.385-2.48 5.569-2.48c1.005 0 1.948 0.19 2.83 0.57s1.698 0.95 2.446 1.71v-8.318h1.994c-1.661-0.714-3.491-1.11-5.414-1.11-7.578 0-13.721 6.143-13.721 13.721s6.143 13.721 13.721 13.721 13.721-6.143 13.721-13.721c0-4.756-2.421-8.947-6.096-11.409zM15.007 13.138c-1.3 0-2.379 0.46-3.239 1.379s-1.29 2.097-1.29 3.535c0 1.448 0.437 2.639 1.312 3.573s1.952 1.402 3.231 1.402c1.32 0 2.415-0.459 3.285-1.379s1.305-2.123 1.305-3.612c0-1.458-0.435-2.639-1.305-3.543s-1.97-1.355-3.3-1.355z"></path>
</svg>
