<!-- Generated by IcoMoon.io -->
<svg version="1.1" xmlns="http://www.w3.org/2000/svg" width="32" height="32" viewBox="0 0 32 32">
<title>DOI</title>
<path d="M8.24 13.976c-0.538 0-1.037 0.391-1.382 0.798-0.28 0.329-0.42 0.837-0.42 1.26s0.159 0.893 0.439 1.222c0.34 0.406 0.707 0.685 1.251 0.685 0.489 0 1.070-0.205 1.405-0.54 0.34-0.335 0.623-0.897 0.623-1.386 0-0.483-0.133-1.062-0.473-1.396-0.34-0.341-0.959-0.642-1.442-0.642zM17.902 14.109c-0.56 0-1.016 0.22-1.367 0.66-0.285 0.353-0.428 0.756-0.428 1.208 0 0.458 0.143 0.863 0.428 1.216 0.351 0.44 0.807 0.66 1.367 0.66 0.5 0 0.922-0.18 1.268-0.539 0.346-0.365 0.519-0.811 0.519-1.338 0-0.521-0.176-0.961-0.527-1.321-0.346-0.365-0.766-0.548-1.26-0.548zM16.008 2.108c-7.578 0-13.721 6.143-13.721 13.721s6.143 13.721 13.721 13.721 13.721-6.143 13.721-13.721c0-7.578-6.143-13.721-13.721-13.721zM12.753 20.022h-2.541v-1.035c-0.258 0.324-0.865 0.654-1.129 0.802-0.461 0.258-1.087 0.426-1.675 0.426-0.95 0-1.795-0.3-2.536-0.953-0.884-0.78-1.299-1.971-1.299-3.256 0-1.307 0.453-2.35 1.359-3.129 0.719-0.62 1.599-1.117 2.532-1.117 0.543 0 1.214 0.049 1.691 0.279 0.275 0.132 0.766 0.442 1.057 0.744v-5.45h2.541v12.689zM21.451 18.853c-0.845 0.973-2.029 1.46-3.549 1.46-1.526 0-2.712-0.487-3.558-1.46-0.697-0.799-1.046-1.781-1.046-2.945 0-1.048 0.351-1.978 1.054-2.789 0.851-0.979 2.062-1.468 3.632-1.468 1.444 0 2.597 0.489 3.459 1.468 0.703 0.799 1.054 1.752 1.054 2.858 0 1.118-0.349 2.076-1.046 2.876zM23.596 7.831c0.296-0.296 0.656-0.445 1.079-0.445s0.782 0.148 1.079 0.445c0.296 0.291 0.445 0.648 0.445 1.071 0 0.428-0.148 0.791-0.445 1.087-0.291 0.291-0.651 0.436-1.079 0.436-0.423 0-0.782-0.148-1.079-0.445-0.291-0.296-0.436-0.656-0.436-1.079s0.145-0.78 0.436-1.071zM26.026 20.016h-2.701v-8.069h2.701v8.069z"></path>
</svg>
