<!-- Generated by IcoMoon.io -->
<svg version="1.1" xmlns="http://www.w3.org/2000/svg" width="27" height="32" viewBox="0 0 27 32">
<title>DOI1</title>
<path d="M15.039 13.043c-1.047 0-1.854 0.326-2.421 0.979-0.469 0.541-0.703 1.16-0.703 1.859 0 0.776 0.232 1.431 0.697 1.964 0.564 0.649 1.354 0.973 2.372 0.973 1.014 0 1.803-0.325 2.366-0.973 0.465-0.533 0.697-1.172 0.697-1.917 0-0.738-0.234-1.373-0.703-1.906-0.575-0.653-1.343-0.979-2.306-0.979zM15.829 16.82c-0.231 0.239-0.512 0.359-0.845 0.359-0.373 0-0.677-0.147-0.911-0.44-0.19-0.236-0.285-0.506-0.285-0.811 0-0.301 0.095-0.57 0.285-0.805 0.234-0.294 0.538-0.44 0.911-0.44 0.329 0 0.609 0.122 0.84 0.365 0.234 0.239 0.351 0.533 0.351 0.88 0 0.351-0.115 0.649-0.346 0.892zM9.857 13.799c-0.194-0.201-0.522-0.408-0.705-0.496-0.318-0.154-0.765-0.186-1.128-0.186-0.622 0-1.208 0.331-1.688 0.745-0.604 0.52-0.906 1.215-0.906 2.086 0 0.856 0.277 1.651 0.866 2.171 0.494 0.436 1.058 0.636 1.691 0.636 0.392 0 0.809-0.112 1.117-0.284 0.176-0.099 0.58-0.319 0.752-0.535v0.69h1.694v-8.459h-1.694v3.633zM9.403 16.877c-0.223 0.223-0.611 0.36-0.936 0.36-0.362 0-0.607-0.186-0.834-0.456-0.187-0.22-0.293-0.533-0.293-0.815s0.093-0.62 0.28-0.84c0.231-0.271 0.563-0.532 0.922-0.532 0.322 0 0.735 0.201 0.961 0.428 0.227 0.223 0.315 0.609 0.315 0.931 0 0.326-0.189 0.701-0.416 0.924zM18.599 18.62h1.801v-5.379h-1.801v5.379zM18.78 10.497c-0.194 0.194-0.291 0.432-0.291 0.714s0.097 0.522 0.291 0.719c0.198 0.198 0.437 0.296 0.719 0.296 0.285 0 0.525-0.097 0.719-0.291 0.198-0.198 0.297-0.439 0.297-0.725 0-0.282-0.099-0.52-0.297-0.714-0.198-0.198-0.437-0.296-0.719-0.296s-0.522 0.099-0.719 0.296zM25.932 3.618c-1.006-1.007-2.218-1.51-3.636-1.51h-17.151c-1.418 0-2.628 0.503-3.636 1.51-1.007 1.005-1.51 2.218-1.51 3.636v17.151c0 1.418 0.503 2.631 1.51 3.638 1.007 1.003 2.22 1.508 3.636 1.508h17.151c1.418 0 2.63-0.505 3.636-1.51 1.007-1.007 1.511-2.218 1.511-3.636v-17.151c0-1.418-0.504-2.631-1.511-3.636zM13.721 24.976c-5.052 0-9.147-4.096-9.147-9.147s4.095-9.147 9.147-9.147 9.147 4.095 9.147 9.147c0 5.052-4.095 9.147-9.147 9.147z"></path>
</svg>
