<!-- Generated by IcoMoon.io -->
<svg version="1.1" xmlns="http://www.w3.org/2000/svg" width="27" height="32" viewBox="0 0 27 32">
<title>Dryad1</title>
<path d="M25.931 3.617c-1.006-1.007-2.217-1.509-3.635-1.509h-17.151c-1.418 0-2.629 0.502-3.636 1.509-1.007 1.005-1.509 2.218-1.509 3.636v17.151c0 1.418 0.502 2.631 1.509 3.638 1.007 1.003 2.219 1.507 3.636 1.507h17.151c1.418 0 2.63-0.504 3.636-1.509 1.006-1.007 1.509-2.218 1.509-3.636v-17.151c0-1.418-0.503-2.631-1.51-3.636zM22.837 16.489c-0.51 5.907-5.264 8.528-9.016 8.505 0.128-1.302 0.313-2.589 1.105-3.662 0.462-0.628 1.185-0.826 1.969-0.738 0.674 0.075 1.213 0.161 1.888 0.192 0.369-0.024 0.784-0.071 1.203-0.309-0.98-0.087-2.847-0.199-2.888-0.621 0.031-0.548 0.653-0.877 1.265-1.231 1.050-0.609 1.833-1.403 2.295-2.517 0.025-0.062 0.212-0.643 0.201-0.598-1.145 1.418-2.414 2.403-3.597 3.324-0.396 0.306-0.907 0.48-1.385 0.662-0.188 0.071-0.568 0.071-0.619-0.024-0.095-0.181-0.078-0.479 0.001-0.686 0.305-0.79 0.755-1.538 0.962-2.35 0.279-1.095 0.399-2.272 0.499-3.401 0.111-1.254 0.075-2.502 0.103-3.765 0.005-0.2 0-0.561-0.069-0.783-0.238 0.272-0.247 0.712-0.247 0.712-0.215 1.19-0.161 2.861-0.398 2.804-0.238-0.057-1.061-2.548-0.853-3.987-0.537 0.33-0.361 1.508-0.167 2.208 0.167 0.595 0.36 1.213 0.581 1.76 0.232 0.576 0.122 1.247 0.111 1.872-0.007 0.402-0.112 0.807-0.213 1.202-0.123 0.486-0.407 0.624-0.791 0.303-0.456-0.382-0.874-0.839-1.209-1.333-0.962-1.418-1.746-2.921-1.904-4.674-0.019-0.206-0.103-0.405-0.173-0.672-0.316 0.808-0.15 1.211-0.090 1.762 0.21 1.967 1.325 3.519 2.43 5.073 0.534 0.751 0.701 1.536 0.368 2.459-0.393 1.092-1.070 1.453-2.203 1.024-1.258-0.474-1.74-1.516-2.051-2.753-0.264-1.053-0.312-2.271-0.446-4.035-0.069-0.896-0.215-1.49-0.572-1.549 0.066 0.429 0.224 1.109 0.287 1.584 0.118 0.88 0.088 1.468-0.024 2.347-0.033 0.273-0.22 0.478-0.316 0.422-0.756-0.439-1.035-2.067-1.111-2.735-0.415 0.491 0.054 2.138 1.067 3.407 0.352 0.405 0.521 0.882 0.774 1.366 0.2 0.386 0.168 0.77-0.141 1.082-0.32 0.325-0.783 0.385-1.201 0.278-0.233-0.062-0.52-0.188-0.874-0.296 0.37 0.561 0.956 0.566 1.398 0.615 0.444 0.051 0.822 0.021 1.267 0.021 0.728 0 1.11 0.606 1.475 1.094 0.979 1.313 0.966 2.741 0.524 4.227-0.055 0.185-0.083 0.378-0.134 0.565-0.017 0.065-0.064 0.121-0.095 0.178-5.071-1.177-7.724-5.689-7.178-9.878 0.764-5.873 5.671-8.562 9.807-8.129 5.981 0.63 8.745 5.515 8.385 9.678z"></path>
</svg>
