<!-- Generated by IcoMoon.io -->
<svg version="1.1" xmlns="http://www.w3.org/2000/svg" width="32" height="32" viewBox="0 0 32 32">
<title>Dryad</title>
<path d="M25.407 22.777c-1.472-0.129-4.271-0.297-4.332-0.931 0.046-0.821 0.979-1.314 1.898-1.847 1.575-0.915 2.749-2.104 3.443-3.776 0.039-0.091 0.317-0.965 0.303-0.898-1.717 2.127-3.62 3.604-5.397 4.985-0.595 0.46-1.36 0.72-2.076 0.994-0.281 0.108-0.852 0.108-0.928-0.035-0.143-0.271-0.118-0.718 0.002-1.027 0.457-1.186 1.133-2.307 1.442-3.524 0.42-1.644 0.599-3.409 0.748-5.101 0.166-1.882 0.113-3.754 0.153-5.647 0.007-0.3 0-0.842-0.103-1.173-0.357 0.408-0.372 1.068-0.372 1.068-0.324 1.786-0.24 4.291-0.597 4.207-0.358-0.085-1.593-3.82-1.278-5.981-0.806 0.496-0.542 2.263-0.249 3.311 0.249 0.891 0.541 1.819 0.871 2.64 0.349 0.864 0.184 1.872 0.167 2.807-0.011 0.603-0.168 1.211-0.318 1.802-0.186 0.729-0.611 0.936-1.188 0.453-0.685-0.573-1.31-1.259-1.812-1.999-1.443-2.128-2.621-4.382-2.856-7.013-0.029-0.308-0.153-0.606-0.26-1.008-0.477 1.211-0.228 1.812-0.139 2.64 0.316 2.95 1.987 5.28 3.644 7.609 0.8 1.127 1.051 2.303 0.551 3.691-0.589 1.637-1.604 2.178-3.306 1.538-1.887-0.712-2.61-2.275-3.077-4.13-0.397-1.58-0.469-3.407-0.669-6.054-0.101-1.347-0.322-2.237-0.855-2.328 0.1 0.644 0.336 1.664 0.431 2.375 0.176 1.319 0.132 2.203-0.034 3.522-0.049 0.409-0.33 0.717-0.473 0.633-1.135-0.656-1.553-3.1-1.669-4.101-0.623 0.736 0.080 3.208 1.6 5.113 0.528 0.606 0.782 1.321 1.162 2.050 0.3 0.58 0.252 1.154-0.21 1.622-0.479 0.488-1.174 0.579-1.802 0.416-0.35-0.091-0.781-0.28-1.31-0.444 0.556 0.842 1.434 0.848 2.097 0.924 0.665 0.075 1.233 0.029 1.9 0.029 1.093 0.001 1.666 0.91 2.213 1.643 1.468 1.97 1.449 4.112 0.786 6.34-0.082 0.278-0.125 0.568-0.2 0.848-0.025 0.096-0.095 0.182-0.143 0.266-7.606-1.764-11.586-8.531-10.768-14.816 1.146-8.808 8.507-12.843 14.71-12.192 8.974 0.94 13.12 8.266 12.58 14.512-0.766 8.861-7.898 12.791-13.524 12.758 0.191-1.953 0.47-3.882 1.657-5.493 0.693-0.941 1.778-1.238 2.953-1.107 1.011 0.116 1.819 0.242 2.832 0.288 0.553-0.037 1.177-0.104 1.805-0.462z"></path>
</svg>
