<!-- Generated by IcoMoon.io -->
<svg version="1.1" xmlns="http://www.w3.org/2000/svg" width="27" height="32" viewBox="0 0 27 32">
<title>Figshare1</title>
<path d="M25.933 3.617c-1.007-1.007-2.218-1.509-3.636-1.509h-17.151c-1.418 0-2.629 0.502-3.636 1.509-1.007 1.005-1.509 2.218-1.509 3.636v17.151c0 1.418 0.502 2.631 1.509 3.638 1.007 1.003 2.221 1.507 3.636 1.507h17.151c1.418 0 2.629-0.504 3.636-1.509 1.007-1.007 1.509-2.218 1.509-3.636v-17.151c0-1.418-0.502-2.631-1.509-3.636zM22.446 13.245c-0.003 0.42-0.356 0.766-0.774 0.759-0.415-0.006-0.768-0.366-0.76-0.779 0.007-0.42 0.362-0.764 0.781-0.759 0.42 0.007 0.757 0.356 0.754 0.779zM6.744 16.287c0.365 0.001 0.641 0.284 0.638 0.651-0.005 0.365-0.288 0.639-0.657 0.632-0.36-0.006-0.637-0.296-0.628-0.663 0.009-0.35 0.293-0.622 0.647-0.62zM6.097 14.709c0.005-0.349 0.288-0.635 0.636-0.641 0.354-0.005 0.649 0.29 0.649 0.649s-0.294 0.655-0.646 0.652c-0.358-0.006-0.643-0.3-0.639-0.66zM7.289 15.81c0.008-0.288 0.257-0.525 0.549-0.521 0.295 0.003 0.533 0.244 0.532 0.537-0.002 0.289-0.246 0.536-0.536 0.539-0.295 0.003-0.552-0.26-0.544-0.555zM8.731 11.476c-0.366 0.005-0.677-0.302-0.669-0.659s0.302-0.639 0.663-0.638c0.364 0 0.649 0.285 0.651 0.644 0.001 0.361-0.285 0.651-0.645 0.653zM9.508 12.363c0 0.289-0.269 0.555-0.557 0.55-0.287-0.002-0.531-0.25-0.533-0.54-0.005-0.319 0.217-0.549 0.534-0.55 0.302-0.002 0.557 0.246 0.556 0.54zM8.656 14.012c-0.003 0.292-0.246 0.536-0.534 0.539-0.293 0.003-0.551-0.261-0.548-0.555 0.006-0.292 0.247-0.529 0.542-0.531 0.31-0.001 0.544 0.236 0.54 0.547zM8.888 14.605c0.242 0.008 0.445 0.221 0.439 0.461-0.006 0.239-0.22 0.448-0.459 0.446-0.249-0.002-0.457-0.225-0.447-0.477 0.011-0.245 0.222-0.438 0.466-0.43zM8.131 17.109c0.297 0.005 0.525 0.24 0.52 0.54-0.001 0.295-0.241 0.534-0.534 0.535-0.288 0.001-0.532-0.244-0.535-0.535-0.002-0.305 0.242-0.545 0.549-0.54zM8.723 20.166c0.357 0 0.652 0.296 0.652 0.653 0 0.356-0.3 0.655-0.652 0.655-0.349 0-0.656-0.309-0.656-0.655 0.001-0.35 0.305-0.653 0.656-0.653zM8.947 19.837c-0.295-0.006-0.535-0.263-0.529-0.566 0.003-0.314 0.236-0.533 0.557-0.525 0.288 0.007 0.536 0.26 0.533 0.543-0.002 0.288-0.274 0.555-0.56 0.548zM8.424 16.585c0.005-0.247 0.204-0.439 0.453-0.437 0.248 0.002 0.45 0.205 0.446 0.447-0.003 0.244-0.21 0.444-0.454 0.44-0.248-0.003-0.447-0.205-0.445-0.451zM9.287 15.811c0.008-0.206 0.185-0.367 0.393-0.358 0.201 0.009 0.357 0.173 0.357 0.373-0.002 0.206-0.175 0.375-0.382 0.37-0.204-0.005-0.374-0.183-0.368-0.385zM17.008 15.604c-0.167-0.003-0.297-0.141-0.295-0.308 0.002-0.168 0.135-0.296 0.306-0.293 0.17 0.002 0.296 0.133 0.294 0.304-0.005 0.169-0.138 0.3-0.305 0.296zM17.312 16.345c-0.001 0.17-0.13 0.303-0.298 0.304-0.164 0-0.3-0.137-0.301-0.303 0-0.167 0.131-0.301 0.3-0.301 0.17 0 0.301 0.129 0.3 0.3zM17.208 14.565c0.001-0.216 0.159-0.372 0.373-0.369 0.214 0.003 0.365 0.16 0.364 0.378-0.001 0.21-0.166 0.376-0.374 0.373-0.206-0.002-0.367-0.172-0.362-0.382zM17.179 12.798c-0.241-0.005-0.43-0.193-0.434-0.437-0.003-0.254 0.186-0.448 0.441-0.449s0.445 0.189 0.445 0.446c-0.002 0.253-0.199 0.445-0.452 0.44zM17.003 13.062c0.199 0.001 0.375 0.183 0.374 0.381-0.002 0.199-0.183 0.376-0.381 0.373-0.199-0.002-0.374-0.182-0.372-0.381 0.002-0.197 0.183-0.375 0.378-0.373zM16.709 14.005c0.17 0.008 0.293 0.139 0.289 0.31-0.003 0.178-0.142 0.306-0.326 0.294-0.189-0.014-0.285-0.119-0.284-0.31 0.001-0.183 0.133-0.303 0.32-0.294zM16.065 17.879c0.184-0.007 0.325 0.123 0.326 0.302 0.001 0.167-0.129 0.301-0.3 0.308-0.175 0.006-0.33-0.136-0.33-0.304-0.001-0.157 0.141-0.3 0.304-0.305zM15.767 13.46c0.003-0.16 0.145-0.303 0.304-0.306 0.157-0.005 0.308 0.134 0.317 0.292 0.010 0.167-0.135 0.326-0.303 0.33-0.165 0.005-0.32-0.15-0.318-0.316zM16.090 12.912c-0.197-0.008-0.357-0.175-0.357-0.373 0.002-0.209 0.17-0.369 0.384-0.361 0.198 0.007 0.357 0.17 0.357 0.367-0.001 0.199-0.186 0.375-0.384 0.367zM15.943 11.902c-0.24-0.002-0.449-0.214-0.448-0.453 0.001-0.241 0.208-0.444 0.453-0.443 0.25 0.001 0.442 0.196 0.441 0.448 0.001 0.245-0.204 0.449-0.446 0.447zM15.532 12.852c-0.001 0.17-0.128 0.298-0.3 0.297-0.17 0-0.3-0.127-0.298-0.298 0-0.172 0.127-0.298 0.3-0.298 0.172 0 0.298 0.127 0.298 0.3zM15.54 10.775c-0.288 0.001-0.556-0.264-0.555-0.552 0.001-0.293 0.258-0.541 0.56-0.539 0.311 0.002 0.536 0.236 0.531 0.552-0.003 0.292-0.248 0.536-0.536 0.539zM15.341 11.967c-0.001 0.202-0.157 0.357-0.358 0.362-0.207 0.005-0.365-0.141-0.374-0.345-0.009-0.215 0.143-0.382 0.356-0.385 0.209-0.003 0.376 0.16 0.376 0.368zM14.475 11.426c-0.246-0.005-0.448-0.206-0.449-0.449 0-0.244 0.229-0.469 0.469-0.462 0.239 0.007 0.439 0.216 0.44 0.46 0.001 0.266-0.191 0.456-0.46 0.452zM13.513 12.529c0 0.158-0.143 0.297-0.306 0.302-0.185 0.005-0.322-0.125-0.322-0.304 0-0.167 0.129-0.3 0.302-0.305 0.175-0.005 0.329 0.139 0.327 0.308zM13.34 11.77c-0.001-0.2 0.168-0.376 0.369-0.384 0.194-0.006 0.381 0.168 0.391 0.366 0.010 0.194-0.162 0.381-0.36 0.392-0.212 0.011-0.398-0.164-0.4-0.374zM13.176 18.808c0.164-0.014 0.325 0.135 0.332 0.302 0.006 0.157-0.132 0.308-0.29 0.318-0.165 0.013-0.324-0.134-0.33-0.301-0.003-0.158 0.13-0.308 0.289-0.319zM13.715 19.515c0.206 0 0.364 0.151 0.369 0.352 0.008 0.208-0.159 0.381-0.365 0.381-0.202 0.001-0.38-0.177-0.373-0.377 0.006-0.199 0.166-0.353 0.368-0.356zM13.937 19.116c0.001-0.164 0.142-0.304 0.305-0.303 0.165 0.001 0.297 0.138 0.297 0.309-0.001 0.166-0.138 0.304-0.302 0.303-0.16-0.001-0.302-0.148-0.301-0.309zM14.23 12.828c-0.167-0.006-0.301-0.146-0.294-0.31 0.006-0.167 0.142-0.292 0.313-0.287 0.169 0.005 0.297 0.139 0.292 0.309s-0.142 0.294-0.311 0.288zM13.72 10.475c-0.302 0-0.553-0.255-0.548-0.55 0.007-0.289 0.254-0.528 0.545-0.529 0.31 0 0.543 0.239 0.539 0.551-0.005 0.297-0.238 0.528-0.536 0.528zM13.401 10.983c-0.005 0.25-0.199 0.443-0.45 0.441-0.249-0.001-0.449-0.198-0.45-0.443-0.002-0.253 0.215-0.468 0.463-0.461 0.245 0.009 0.44 0.215 0.438 0.462zM12.839 11.96c0.001 0.213-0.16 0.373-0.374 0.373-0.205 0-0.36-0.149-0.368-0.352-0.008-0.214 0.148-0.381 0.359-0.385 0.214-0.003 0.378 0.155 0.383 0.365zM12.514 12.833c0.011 0.17-0.133 0.319-0.31 0.319-0.166 0.001-0.309-0.135-0.311-0.297-0.002-0.16 0.136-0.302 0.302-0.308 0.169-0.005 0.31 0.119 0.319 0.286zM11.905 10.764c-0.288 0.005-0.536-0.238-0.542-0.529-0.007-0.296 0.224-0.539 0.518-0.548 0.297-0.009 0.542 0.218 0.55 0.512 0.010 0.305-0.228 0.561-0.526 0.565zM11.479 11.007c0.254-0.006 0.45 0.182 0.454 0.432s-0.184 0.454-0.429 0.461c-0.245 0.008-0.452-0.191-0.456-0.437-0.006-0.25 0.183-0.45 0.431-0.456zM11.35 12.178c0.202 0.007 0.352 0.166 0.35 0.368-0.002 0.2-0.16 0.361-0.357 0.366-0.207 0.005-0.374-0.164-0.372-0.374 0-0.21 0.166-0.368 0.378-0.36zM11.358 13.77c-0.161-0.001-0.297-0.142-0.296-0.309 0.001-0.166 0.137-0.306 0.3-0.305 0.162 0 0.297 0.141 0.297 0.309-0.001 0.167-0.139 0.306-0.301 0.305zM11.657 18.193c-0.006 0.172-0.135 0.293-0.31 0.287-0.17-0.006-0.294-0.135-0.288-0.309 0.006-0.172 0.136-0.294 0.31-0.288 0.173 0.007 0.294 0.136 0.288 0.31zM11.052 14.318c-0.007 0.166-0.148 0.294-0.314 0.29-0.166-0.006-0.303-0.146-0.297-0.309s0.149-0.295 0.313-0.289c0.167 0.005 0.304 0.145 0.298 0.308zM10.415 15.606c-0.166-0.003-0.308-0.142-0.309-0.302 0-0.168 0.154-0.32 0.322-0.316 0.162 0.005 0.306 0.149 0.309 0.309 0.005 0.166-0.149 0.313-0.322 0.309zM10.734 16.336c0.007 0.16-0.135 0.31-0.296 0.316-0.169 0.008-0.327-0.141-0.326-0.31 0.001-0.162 0.144-0.303 0.309-0.305s0.31 0.138 0.313 0.3zM10.43 13.809c-0.194-0.003-0.36-0.172-0.364-0.366-0.003-0.199 0.18-0.381 0.378-0.377 0.194 0.005 0.356 0.169 0.358 0.368 0.002 0.209-0.167 0.38-0.373 0.375zM10.248 12.798c-0.247 0-0.452-0.202-0.452-0.445 0-0.244 0.204-0.441 0.453-0.441 0.252 0 0.445 0.191 0.445 0.441 0.001 0.248-0.197 0.445-0.446 0.445zM9.862 14.194c0.204 0.001 0.376 0.169 0.38 0.37 0.002 0.202-0.167 0.376-0.368 0.381-0.212 0.005-0.4-0.178-0.394-0.383 0.005-0.196 0.183-0.368 0.383-0.368zM9.873 16.707c0.19 0.006 0.359 0.177 0.359 0.368 0.001 0.204-0.17 0.369-0.381 0.366-0.212-0.006-0.368-0.176-0.357-0.388 0.011-0.196 0.183-0.352 0.378-0.346zM10.267 18.841c0.253 0.008 0.434 0.2 0.431 0.457-0.001 0.252-0.196 0.449-0.443 0.453-0.245 0.005-0.469-0.22-0.465-0.463 0.003-0.249 0.222-0.454 0.477-0.447zM10.433 18.571c-0.202-0.003-0.361-0.159-0.366-0.357-0.003-0.206 0.167-0.376 0.374-0.374 0.202 0.002 0.359 0.159 0.361 0.359 0.003 0.214-0.157 0.374-0.369 0.372zM10.742 17.643c-0.161-0.001-0.304-0.148-0.302-0.309 0.002-0.16 0.15-0.304 0.31-0.303 0.16 0.003 0.304 0.151 0.303 0.31-0.005 0.161-0.151 0.304-0.311 0.302zM11.342 18.728c0.207 0.003 0.365 0.172 0.361 0.385-0.005 0.215-0.161 0.368-0.375 0.366-0.215-0.005-0.365-0.162-0.364-0.381 0.003-0.208 0.17-0.374 0.377-0.37zM11.482 19.749c0.255-0.005 0.447 0.177 0.455 0.432 0.008 0.258-0.197 0.471-0.449 0.47-0.241-0.001-0.447-0.207-0.449-0.452-0.002-0.247 0.193-0.446 0.444-0.451zM11.887 18.802c-0.003-0.162 0.152-0.32 0.316-0.321s0.325 0.158 0.313 0.32c-0.015 0.183-0.123 0.29-0.303 0.31-0.16 0.016-0.322-0.144-0.326-0.309zM12.477 19.303c0.201 0.008 0.366 0.186 0.361 0.39-0.007 0.2-0.186 0.373-0.384 0.366-0.206-0.008-0.364-0.18-0.357-0.39 0.006-0.207 0.177-0.374 0.38-0.366zM12.949 20.219c0.242-0.002 0.445 0.201 0.445 0.449 0 0.249-0.194 0.447-0.441 0.448s-0.444-0.196-0.445-0.445c-0.001-0.246 0.198-0.452 0.441-0.453zM13.724 21.17c0.292 0.005 0.528 0.247 0.527 0.542 0 0.295-0.236 0.537-0.527 0.541-0.301 0.003-0.552-0.254-0.545-0.552 0.008-0.293 0.256-0.534 0.545-0.531zM14.035 20.665c0.003-0.239 0.217-0.451 0.454-0.447 0.242 0.003 0.444 0.213 0.441 0.455-0.002 0.248-0.202 0.444-0.449 0.441-0.241-0.001-0.449-0.21-0.446-0.449zM14.608 19.678c0-0.201 0.158-0.364 0.356-0.369 0.201-0.006 0.377 0.17 0.377 0.375-0.001 0.194-0.166 0.362-0.358 0.367-0.208 0.006-0.376-0.161-0.375-0.373zM15.226 19.103c-0.161-0.005-0.296-0.149-0.292-0.312 0.003-0.167 0.143-0.304 0.305-0.302 0.165 0.005 0.295 0.145 0.292 0.312-0.002 0.168-0.144 0.305-0.305 0.302zM15.955 19.748c0.258 0.005 0.439 0.188 0.439 0.447 0 0.258-0.214 0.471-0.459 0.462-0.238-0.008-0.45-0.224-0.452-0.459 0-0.254 0.21-0.454 0.471-0.451zM16.102 19.479c-0.2-0.001-0.376-0.172-0.381-0.37-0.003-0.197 0.172-0.375 0.37-0.381 0.214-0.007 0.393 0.17 0.391 0.383-0.003 0.204-0.174 0.368-0.381 0.368zM16.39 17.36c-0.013-0.176 0.126-0.33 0.297-0.334 0.162-0.003 0.303 0.134 0.308 0.301 0.006 0.169-0.121 0.312-0.286 0.321-0.16 0.010-0.309-0.126-0.319-0.288zM16.989 17.838c0.209-0.006 0.383 0.159 0.385 0.364 0.003 0.206-0.167 0.375-0.376 0.374-0.213-0.001-0.378-0.168-0.374-0.375 0.003-0.197 0.165-0.357 0.365-0.362zM17.204 18.842c0.248 0.009 0.437 0.212 0.431 0.461-0.005 0.248-0.209 0.448-0.452 0.445-0.244-0.002-0.445-0.207-0.445-0.453 0.001-0.258 0.209-0.461 0.465-0.453zM17.596 17.44c-0.212 0.010-0.38-0.146-0.384-0.357-0.003-0.21 0.161-0.38 0.367-0.378 0.199 0.002 0.357 0.161 0.361 0.361 0.003 0.207-0.143 0.365-0.344 0.374zM17.779 16.193c-0.201 0.002-0.381-0.178-0.375-0.377 0.005-0.197 0.167-0.357 0.367-0.357 0.204-0.002 0.366 0.152 0.374 0.351 0.008 0.204-0.162 0.382-0.366 0.383zM18.706 11.468c-0.364-0.002-0.639-0.285-0.633-0.653 0.006-0.362 0.294-0.638 0.66-0.63 0.351 0.007 0.624 0.289 0.624 0.644-0.001 0.365-0.281 0.643-0.651 0.639zM19.855 13.986c0.008 0.304-0.233 0.56-0.531 0.565-0.292 0.006-0.557-0.26-0.553-0.549 0.002-0.289 0.248-0.533 0.54-0.536 0.3-0.005 0.539 0.224 0.544 0.52zM18.481 11.827c0.29-0.001 0.539 0.24 0.543 0.529 0.005 0.293-0.262 0.555-0.551 0.548s-0.532-0.257-0.528-0.547c0.001-0.293 0.24-0.529 0.536-0.531zM19.028 15.045c0.007 0.239-0.22 0.469-0.461 0.469-0.247 0-0.446-0.198-0.449-0.448-0.005-0.266 0.184-0.462 0.449-0.462 0.238 0.001 0.453 0.204 0.461 0.441zM18.566 16.147c0.248 0 0.451 0.2 0.449 0.445 0 0.241-0.206 0.445-0.449 0.445-0.249 0-0.446-0.198-0.446-0.446 0.001-0.252 0.194-0.444 0.446-0.444zM18.715 20.17c0.354 0 0.643 0.296 0.643 0.656-0.003 0.358-0.301 0.651-0.654 0.643-0.35-0.009-0.629-0.294-0.63-0.644-0.002-0.36 0.287-0.654 0.641-0.655zM17.944 19.275c0.005-0.294 0.246-0.527 0.542-0.526 0.293 0.001 0.536 0.244 0.539 0.534 0.001 0.286-0.246 0.537-0.534 0.543-0.297 0.003-0.551-0.253-0.547-0.551zM19.317 18.182c-0.288-0.002-0.536-0.249-0.54-0.536-0.003-0.297 0.254-0.543 0.555-0.537 0.297 0.006 0.526 0.244 0.52 0.542-0.002 0.293-0.247 0.534-0.535 0.532zM19.584 16.376c-0.297-0.015-0.529-0.273-0.518-0.577 0.013-0.31 0.25-0.524 0.572-0.512 0.289 0.011 0.527 0.266 0.518 0.553-0.013 0.295-0.282 0.55-0.572 0.536zM20.706 16.282c0.358 0.002 0.649 0.295 0.649 0.651-0.003 0.353-0.298 0.644-0.657 0.644-0.357 0.001-0.655-0.287-0.661-0.641-0.006-0.359 0.297-0.657 0.669-0.653zM20.696 15.373c-0.35 0-0.655-0.308-0.653-0.657 0.001-0.35 0.309-0.653 0.656-0.652 0.351 0.002 0.654 0.308 0.654 0.657-0.002 0.35-0.308 0.653-0.657 0.652zM20.499 10.137c0.425 0.003 0.765 0.346 0.763 0.771-0.003 0.418-0.357 0.767-0.775 0.763-0.42-0.006-0.768-0.359-0.763-0.776 0.003-0.423 0.35-0.758 0.775-0.757zM20.013 11.967c0.356 0.001 0.655 0.304 0.649 0.654-0.003 0.353-0.312 0.651-0.661 0.643-0.346-0.009-0.635-0.3-0.639-0.643-0.001-0.352 0.3-0.654 0.651-0.654zM18.625 8.273c0.434-0.008 0.781 0.33 0.784 0.766 0.006 0.439-0.33 0.782-0.765 0.783-0.427 0.001-0.787-0.356-0.784-0.776 0.001-0.413 0.352-0.767 0.765-0.773zM18.101 13.147c0.25 0.006 0.438 0.2 0.436 0.454-0.003 0.249-0.202 0.45-0.446 0.45-0.24 0-0.451-0.209-0.454-0.45-0.006-0.249 0.209-0.46 0.464-0.454zM17.191 11.596c-0.305 0.005-0.555-0.241-0.551-0.542 0.003-0.29 0.252-0.536 0.54-0.537 0.288 0 0.533 0.244 0.535 0.536 0.001 0.3-0.228 0.537-0.524 0.543zM17.575 9.516c0.003 0.369-0.287 0.67-0.649 0.669-0.348-0.001-0.649-0.298-0.659-0.647-0.010-0.349 0.308-0.67 0.659-0.67 0.354 0 0.647 0.292 0.649 0.648zM16.288 7.089c0.433-0.008 0.784 0.332 0.787 0.763 0.003 0.431-0.346 0.784-0.772 0.782-0.415-0.003-0.766-0.354-0.771-0.767-0.005-0.416 0.34-0.771 0.756-0.778zM15.476 8.85c-0.001 0.353-0.304 0.652-0.656 0.649-0.352-0.003-0.655-0.31-0.651-0.657 0.003-0.351 0.311-0.654 0.659-0.652 0.352 0.001 0.651 0.306 0.648 0.66zM13.724 6.682c0.424 0.003 0.758 0.343 0.756 0.772-0.001 0.424-0.345 0.768-0.765 0.765-0.42-0.002-0.767-0.354-0.764-0.773 0.005-0.422 0.352-0.766 0.773-0.764zM12.614 8.195c0.356 0 0.644 0.297 0.641 0.656-0.005 0.359-0.301 0.649-0.655 0.643s-0.636-0.305-0.629-0.668c0.007-0.349 0.296-0.631 0.643-0.631zM11.127 7.091c0.425-0.001 0.765 0.336 0.766 0.764 0.002 0.425-0.337 0.772-0.759 0.774-0.42 0.003-0.763-0.342-0.765-0.767-0.002-0.428 0.334-0.767 0.758-0.771zM10.5 8.877c0.354-0.009 0.652 0.285 0.653 0.643 0.002 0.36-0.286 0.656-0.641 0.657-0.352 0.002-0.645-0.294-0.643-0.655 0.002-0.35 0.282-0.636 0.631-0.645zM10.267 10.517c0.29 0.006 0.527 0.252 0.526 0.545-0.001 0.3-0.232 0.533-0.531 0.534-0.296 0.001-0.537-0.233-0.542-0.528-0.006-0.3 0.25-0.557 0.547-0.551zM9.794 13.585c0.005 0.263-0.192 0.47-0.448 0.471-0.245 0.001-0.468-0.228-0.461-0.471 0.007-0.239 0.215-0.438 0.461-0.439 0.256 0 0.444 0.182 0.448 0.439zM8.791 8.273c0.433-0.003 0.773 0.336 0.773 0.774 0 0.441-0.335 0.776-0.772 0.775-0.424-0.003-0.784-0.368-0.776-0.786 0.010-0.414 0.36-0.76 0.775-0.764zM8.071 12.607c0.006 0.358-0.281 0.655-0.639 0.664-0.354 0.008-0.652-0.286-0.655-0.646-0.002-0.364 0.278-0.656 0.636-0.661 0.36-0.007 0.653 0.28 0.659 0.643zM6.945 10.136c0.424 0 0.768 0.338 0.772 0.759 0.003 0.425-0.362 0.789-0.784 0.782s-0.756-0.356-0.755-0.782c0.002-0.43 0.334-0.759 0.767-0.759zM5.751 12.469c0.424-0.002 0.764 0.337 0.765 0.764 0 0.428-0.336 0.772-0.759 0.773-0.422 0.002-0.763-0.34-0.764-0.766-0.002-0.429 0.334-0.77 0.758-0.771zM4.583 15.827c-0.002-0.43 0.33-0.766 0.758-0.767 0.43-0.001 0.765 0.33 0.765 0.759 0.001 0.426-0.336 0.773-0.757 0.775s-0.764-0.342-0.766-0.767zM4.978 18.408c0.003-0.429 0.36-0.776 0.792-0.768 0.422 0.009 0.764 0.357 0.759 0.778-0.005 0.427-0.373 0.787-0.791 0.774-0.42-0.015-0.763-0.369-0.76-0.783zM6.953 21.522c-0.428 0.006-0.779-0.35-0.775-0.786 0.005-0.431 0.337-0.758 0.768-0.757 0.425 0 0.77 0.342 0.771 0.764 0.002 0.415-0.348 0.772-0.764 0.779zM7.415 19.688c-0.362-0.007-0.64-0.292-0.64-0.659 0.001-0.37 0.274-0.645 0.644-0.645 0.368 0 0.652 0.274 0.659 0.639 0.007 0.362-0.301 0.671-0.662 0.664zM8.803 23.359c-0.428 0.003-0.771-0.332-0.778-0.755-0.005-0.419 0.34-0.766 0.765-0.768 0.429-0.002 0.765 0.328 0.768 0.756 0.003 0.43-0.327 0.764-0.756 0.767zM9.337 18.498c-0.247-0.006-0.444-0.212-0.437-0.456 0.006-0.248 0.207-0.438 0.456-0.433 0.252 0.005 0.437 0.199 0.432 0.453-0.002 0.247-0.206 0.444-0.452 0.437zM10.269 20.040c0.29 0.008 0.526 0.253 0.526 0.548 0 0.311-0.233 0.542-0.549 0.536-0.293-0.003-0.533-0.245-0.534-0.536 0-0.296 0.266-0.556 0.557-0.548zM9.87 22.102c0.006-0.356 0.282-0.624 0.64-0.624 0.365-0.001 0.645 0.28 0.643 0.645-0.001 0.364-0.286 0.641-0.652 0.637-0.364-0.002-0.638-0.289-0.631-0.657zM11.122 24.552c-0.427-0.007-0.757-0.348-0.752-0.775s0.342-0.756 0.772-0.751c0.428 0.005 0.758 0.343 0.752 0.771-0.007 0.427-0.348 0.762-0.772 0.756zM11.363 21.408c0.008-0.296 0.247-0.524 0.547-0.518 0.297 0.003 0.525 0.238 0.523 0.537-0.002 0.294-0.244 0.535-0.532 0.536-0.298 0-0.544-0.256-0.537-0.556zM11.972 22.809c-0.002-0.366 0.278-0.648 0.643-0.648 0.366 0 0.644 0.28 0.64 0.647-0.002 0.366-0.284 0.643-0.651 0.638-0.356-0.007-0.63-0.285-0.632-0.637zM13.71 24.976c-0.413-0.008-0.764-0.358-0.772-0.771-0.009-0.42 0.349-0.778 0.778-0.78 0.439 0 0.772 0.333 0.771 0.774-0.001 0.431-0.356 0.786-0.776 0.776zM14.814 23.449c-0.357-0.005-0.652-0.298-0.649-0.651 0.002-0.351 0.302-0.646 0.657-0.647 0.365-0.001 0.667 0.303 0.659 0.667-0.008 0.354-0.304 0.635-0.667 0.631zM14.984 21.43c-0.005-0.292 0.252-0.547 0.552-0.548 0.313 0 0.543 0.23 0.54 0.547-0.003 0.3-0.262 0.556-0.55 0.547-0.282-0.009-0.536-0.264-0.542-0.545zM16.302 24.559c-0.42-0.002-0.77-0.353-0.771-0.77-0.001-0.422 0.343-0.765 0.768-0.768 0.432-0.003 0.772 0.327 0.775 0.754 0.005 0.436-0.342 0.787-0.773 0.784zM16.936 22.764c-0.365 0.002-0.655-0.274-0.663-0.636-0.008-0.356 0.282-0.651 0.643-0.656 0.364-0.005 0.655 0.276 0.659 0.636 0.007 0.364-0.277 0.653-0.638 0.656zM17.173 21.123c-0.293-0.001-0.536-0.244-0.54-0.533-0.003-0.294 0.262-0.556 0.552-0.55 0.3 0.006 0.539 0.261 0.532 0.565-0.008 0.298-0.241 0.521-0.544 0.518zM17.643 18.059c-0.006-0.244 0.194-0.447 0.441-0.451 0.254-0.005 0.447 0.182 0.451 0.434 0.005 0.248-0.189 0.449-0.436 0.453-0.246 0.007-0.452-0.193-0.456-0.437zM18.642 23.359c-0.427 0.001-0.765-0.335-0.766-0.76s0.337-0.763 0.764-0.762c0.432 0 0.764 0.33 0.764 0.759 0 0.431-0.332 0.763-0.762 0.763zM19.364 19.031c0-0.356 0.296-0.645 0.656-0.643 0.349 0.001 0.637 0.282 0.643 0.631 0.009 0.353-0.286 0.652-0.643 0.656-0.359 0.001-0.656-0.29-0.656-0.645zM20.499 21.517c-0.414 0.006-0.772-0.348-0.775-0.764-0.006-0.419 0.341-0.768 0.763-0.772 0.425-0.002 0.772 0.336 0.775 0.758 0.002 0.419-0.344 0.772-0.763 0.778zM21.672 19.19c-0.415-0.010-0.764-0.358-0.768-0.772-0.007-0.424 0.349-0.78 0.778-0.78 0.438 0.001 0.771 0.336 0.768 0.778 0 0.43-0.358 0.783-0.778 0.774zM22.094 16.6c-0.42 0.003-0.787-0.369-0.778-0.789 0.009-0.421 0.357-0.755 0.784-0.752 0.428 0.001 0.759 0.338 0.758 0.768 0 0.42-0.345 0.77-0.765 0.773z"></path>
</svg>
