<!-- Generated by IcoMoon.io -->
<svg version="1.1" xmlns="http://www.w3.org/2000/svg" width="32" height="32" viewBox="0 0 32 32">
<title>Figshare</title>
<path d="M8.6 6.817c0.655 0.003 1.159-0.501 1.159-1.162 0-0.656-0.509-1.166-1.161-1.162-0.621 0.006-1.148 0.527-1.163 1.148-0.013 0.625 0.529 1.173 1.164 1.175zM27.935 18.545c-0.643 0-1.174 0.532-1.166 1.169 0.008 0.619 0.531 1.141 1.153 1.157 0.631 0.014 1.166-0.518 1.167-1.162 0.001-0.661-0.497-1.163-1.154-1.164zM23.378 6.817c0.653-0.001 1.156-0.515 1.148-1.172-0.006-0.654-0.524-1.162-1.175-1.15-0.62 0.011-1.145 0.541-1.148 1.161-0.003 0.63 0.536 1.164 1.175 1.162zM15.986 27.227c-0.643 0.002-1.179 0.539-1.167 1.167 0.013 0.619 0.54 1.143 1.158 1.156 0.632 0.014 1.164-0.518 1.165-1.165 0.001-0.661-0.496-1.161-1.156-1.158zM19.862 26.617c-0.639 0.005-1.154 0.52-1.153 1.153 0.001 0.625 0.526 1.151 1.156 1.155 0.645 0.005 1.166-0.523 1.159-1.177-0.006-0.64-0.515-1.135-1.163-1.131zM28.564 14.671c-0.64-0.003-1.162 0.499-1.175 1.13-0.013 0.63 0.539 1.188 1.167 1.183 0.628-0.005 1.146-0.529 1.146-1.162 0.003-0.644-0.495-1.149-1.138-1.151zM5.834 22.054c-0.647-0.002-1.147 0.489-1.153 1.135-0.006 0.653 0.521 1.187 1.162 1.178 0.625-0.009 1.149-0.544 1.147-1.167-0.003-0.631-0.519-1.146-1.156-1.146zM5.812 9.6c0.632 0.013 1.181-0.534 1.177-1.171-0.007-0.633-0.521-1.141-1.158-1.141-0.649 0.001-1.146 0.494-1.149 1.14-0.003 0.639 0.5 1.161 1.131 1.172zM19.867 5.035c0.639 0.003 1.163-0.525 1.158-1.171s-0.529-1.156-1.18-1.145c-0.624 0.010-1.14 0.542-1.133 1.166 0.006 0.62 0.533 1.145 1.155 1.149zM5.208 19.71c0.006-0.63-0.505-1.153-1.139-1.165-0.647-0.013-1.183 0.508-1.189 1.151-0.003 0.622 0.511 1.154 1.14 1.174 0.628 0.019 1.182-0.521 1.188-1.161zM26.143 9.591c0.625 0.008 1.157-0.515 1.162-1.143 0.006-0.636-0.503-1.15-1.142-1.155-0.64-0.003-1.157 0.501-1.164 1.134-0.007 0.625 0.516 1.157 1.145 1.164zM4.572 15.814c-0.002-0.643-0.503-1.141-1.148-1.139-0.641 0.001-1.141 0.507-1.138 1.15 0.003 0.638 0.518 1.155 1.149 1.15 0.632-0.003 1.138-0.521 1.137-1.162zM15.985 4.413c0.631 0.005 1.147-0.51 1.148-1.148 0.003-0.644-0.496-1.153-1.134-1.157-0.631-0.003-1.153 0.512-1.158 1.145-0.003 0.629 0.517 1.157 1.145 1.161zM26.143 22.056c-0.633 0.005-1.153 0.529-1.145 1.157 0.006 0.625 0.543 1.155 1.164 1.147 0.628-0.009 1.148-0.54 1.142-1.167-0.005-0.632-0.524-1.141-1.162-1.137zM26.781 11.924c-0.011 0.619 0.518 1.159 1.14 1.167 0.629 0.009 1.158-0.509 1.163-1.139 0.005-0.636-0.501-1.158-1.132-1.167-0.627-0.007-1.159 0.51-1.171 1.139zM4.050 13.092c0.635-0.001 1.139-0.518 1.137-1.159-0.001-0.64-0.51-1.149-1.146-1.145-0.638 0.003-1.141 0.513-1.138 1.156 0.001 0.639 0.512 1.151 1.147 1.148zM12.114 5.030c0.633-0.005 1.142-0.523 1.139-1.162-0.002-0.643-0.511-1.148-1.149-1.145-0.638 0.005-1.14 0.513-1.138 1.155 0.003 0.638 0.518 1.156 1.148 1.151zM8.6 24.838c-0.637 0.005-1.154 0.524-1.146 1.153 0.009 0.636 0.524 1.138 1.164 1.133 0.643-0.005 1.139-0.507 1.134-1.151-0.006-0.641-0.51-1.138-1.153-1.134zM23.373 24.839c-0.64-0.001-1.148 0.504-1.147 1.143 0.002 0.638 0.509 1.142 1.15 1.141 0.644 0 1.141-0.499 1.141-1.143 0-0.644-0.496-1.141-1.145-1.141zM12.124 26.624c-0.644-0.008-1.15 0.486-1.157 1.126-0.007 0.643 0.489 1.153 1.129 1.162 0.638 0.009 1.149-0.493 1.158-1.132 0.008-0.641-0.488-1.15-1.13-1.156zM19.813 6.393c0.014 0.525 0.468 0.97 0.988 0.972 0.545 0.001 0.98-0.449 0.976-1.004-0.005-0.536-0.442-0.974-0.976-0.974-0.528 0-1.003 0.484-0.988 1.006zM6.544 19.662c-0.555 0-0.965 0.412-0.966 0.968 0 0.55 0.415 0.978 0.958 0.988s1.004-0.453 0.995-0.999c-0.009-0.545-0.434-0.957-0.987-0.957zM8.501 7.355c-0.543-0.002-0.984 0.422-0.995 0.957-0.011 0.536 0.453 0.995 1.002 0.988 0.542-0.005 0.971-0.438 0.97-0.978s-0.432-0.966-0.976-0.967zM26.462 13.18c-0.524-0.002-0.983 0.453-0.984 0.978-0.002 0.525 0.455 0.987 0.979 0.987 0.526 0.001 0.982-0.453 0.986-0.978 0.001-0.527-0.453-0.984-0.98-0.987zM8.499 24.297c0.528 0 0.976-0.452 0.976-0.983 0-0.535-0.444-0.98-0.976-0.98-0.527 0-0.984 0.454-0.986 0.98-0.001 0.523 0.461 0.983 0.986 0.983zM26.462 18.451c0.54 0 0.982-0.438 0.986-0.968 0-0.533-0.438-0.972-0.975-0.976-0.556-0.007-1.012 0.442-1.003 0.982 0.008 0.531 0.456 0.964 0.992 0.963zM17.646 25.311c-0.534 0.001-0.982 0.446-0.986 0.971-0.005 0.531 0.438 0.972 0.974 0.976 0.545 0.005 0.988-0.415 1-0.948 0.011-0.545-0.442-1-0.989-0.999zM16.665 5.346c-0.006 0.523 0.451 0.982 0.976 0.987 0.531 0.003 0.982-0.446 0.986-0.975 0.002-0.529-0.446-0.986-0.974-0.989-0.52-0.003-0.981 0.452-0.988 0.978zM5.579 11.022c0.005 0.541 0.452 0.98 0.982 0.97 0.536-0.013 0.966-0.459 0.957-0.996-0.007-0.543-0.446-0.973-0.984-0.964-0.539 0.008-0.959 0.445-0.955 0.99zM26.408 20.613c-0.011-0.523-0.442-0.946-0.965-0.947-0.542-0.003-0.984 0.433-0.984 0.965 0 0.533 0.447 0.971 0.984 0.966 0.536-0.007 0.978-0.456 0.965-0.984zM6.485 14.16c0-0.539-0.444-0.98-0.974-0.974-0.521 0.009-0.947 0.438-0.952 0.96-0.007 0.543 0.421 0.982 0.957 0.99 0.531 0.006 0.97-0.436 0.97-0.976zM20.787 24.294c-0.542 0.008-0.976 0.452-0.965 0.984 0.013 0.542 0.447 0.957 0.995 0.952 0.542-0.006 0.967-0.441 0.958-0.983-0.006-0.539-0.444-0.96-0.988-0.954zM14.314 6.325c0.532 0.013 0.976-0.424 0.982-0.963 0.005-0.541-0.429-0.986-0.963-0.986-0.52 0-0.954 0.424-0.965 0.947-0.008 0.545 0.412 0.991 0.946 1.002zM25.416 11.98c0.523 0.014 0.987-0.434 0.992-0.963 0.008-0.526-0.442-0.98-0.974-0.981-0.528-0.001-0.979 0.452-0.976 0.979 0.007 0.516 0.438 0.951 0.958 0.965zM23.467 24.288c0.532 0.013 0.976-0.428 0.981-0.965 0.002-0.541-0.432-0.983-0.964-0.983-0.532 0.001-0.966 0.442-0.963 0.982 0.003 0.526 0.422 0.954 0.946 0.966zM11.18 7.352c0.534-0.001 0.965-0.446 0.963-0.986-0.003-0.539-0.45-0.978-0.981-0.965-0.523 0.014-0.942 0.442-0.946 0.968-0.002 0.54 0.434 0.983 0.964 0.982zM5.5 18.441c0.553 0.009 0.98-0.401 0.986-0.949 0.006-0.55-0.407-0.975-0.956-0.976-0.533-0.003-0.959 0.404-0.971 0.93-0.015 0.552 0.399 0.987 0.941 0.996zM23.513 7.362c-0.55-0.011-0.981 0.401-0.99 0.944-0.008 0.553 0.404 0.976 0.95 0.98 0.551 0.007 0.974-0.41 0.976-0.958 0-0.533-0.409-0.956-0.936-0.966zM12.143 25.271c0.002-0.548-0.417-0.971-0.965-0.97-0.536 0-0.951 0.405-0.96 0.936-0.011 0.55 0.402 0.98 0.947 0.987 0.55 0.007 0.975-0.409 0.979-0.954zM15.293 26.295c0.006-0.55-0.41-0.971-0.96-0.971-0.547 0-0.966 0.423-0.964 0.973 0.003 0.529 0.415 0.947 0.947 0.954 0.552 0.008 0.974-0.406 0.978-0.956zM19.528 24.23c0.005-0.476-0.337-0.82-0.81-0.82-0.452 0.002-0.835 0.383-0.828 0.821 0.007 0.42 0.389 0.804 0.811 0.818 0.436 0.014 0.822-0.372 0.827-0.819zM8.876 20.203c-0.483-0.011-0.831 0.316-0.836 0.788-0.008 0.455 0.353 0.84 0.795 0.85 0.429 0.009 0.836-0.39 0.839-0.823 0.006-0.425-0.366-0.803-0.798-0.814zM25.647 15.844c0.015-0.43-0.343-0.814-0.775-0.831-0.483-0.016-0.84 0.304-0.859 0.768-0.018 0.455 0.332 0.844 0.779 0.867 0.432 0.022 0.837-0.362 0.855-0.804zM18.731 6.611c-0.453-0.002-0.838 0.368-0.839 0.807-0.002 0.432 0.4 0.831 0.832 0.83 0.432-0.003 0.798-0.37 0.804-0.807 0.007-0.477-0.33-0.827-0.797-0.83zM8.039 10.647c0.005 0.434 0.369 0.805 0.799 0.81 0.432 0.006 0.835-0.393 0.835-0.827 0.001-0.441-0.381-0.813-0.834-0.81-0.473 0.002-0.806 0.346-0.8 0.827zM23.57 13.087c-0.006 0.437 0.394 0.832 0.831 0.826 0.446-0.008 0.807-0.393 0.796-0.848-0.010-0.445-0.368-0.787-0.819-0.781-0.437 0.005-0.805 0.37-0.808 0.804zM21.192 22.144c-0.438-0.008-0.834 0.385-0.83 0.827 0.005 0.433 0.37 0.796 0.808 0.799 0.456 0.005 0.807-0.329 0.818-0.779 0.010-0.457-0.348-0.838-0.796-0.847zM6.775 13.079c-0.007 0.443 0.382 0.837 0.822 0.834 0.431-0.003 0.796-0.37 0.8-0.808 0.006-0.466-0.345-0.822-0.812-0.821-0.44 0-0.802 0.358-0.811 0.796zM11.607 22.965c0-0.441-0.356-0.808-0.789-0.821-0.438-0.013-0.836 0.378-0.836 0.821 0.001 0.438 0.361 0.799 0.8 0.805 0.473 0.008 0.824-0.336 0.824-0.805zM23.122 11.44c0.437 0.013 0.834-0.381 0.828-0.82-0.007-0.433-0.378-0.795-0.814-0.794-0.445 0.001-0.803 0.357-0.806 0.795-0.006 0.434 0.357 0.807 0.792 0.819zM23.949 21.009c-0.003-0.436-0.369-0.798-0.807-0.799-0.445-0.002-0.806 0.349-0.813 0.788-0.007 0.449 0.374 0.834 0.82 0.826 0.431-0.008 0.802-0.384 0.8-0.814zM7.165 16.632c0.434-0.005 0.8-0.374 0.804-0.808 0.001-0.44-0.357-0.799-0.798-0.806-0.438-0.005-0.811 0.351-0.823 0.784-0.013 0.441 0.374 0.835 0.818 0.83zM21.181 7.861c-0.431 0.001-0.804 0.37-0.808 0.805-0.006 0.452 0.37 0.821 0.829 0.813 0.444-0.009 0.787-0.364 0.783-0.814-0.003-0.437-0.37-0.804-0.804-0.804zM10.805 9.479c0.447-0.001 0.794-0.351 0.795-0.8 0.002-0.441-0.353-0.808-0.788-0.818-0.445-0.009-0.827 0.376-0.82 0.827 0.008 0.443 0.369 0.794 0.813 0.791zM15.999 25.464c0.438-0.005 0.791-0.367 0.791-0.81 0.002-0.445-0.354-0.807-0.79-0.813-0.434-0.005-0.806 0.356-0.818 0.792-0.010 0.451 0.367 0.835 0.816 0.83zM15.99 6.179c-0.438 0.002-0.807 0.359-0.818 0.794-0.010 0.444 0.367 0.826 0.821 0.826 0.447 0 0.797-0.346 0.804-0.792 0.006-0.47-0.343-0.827-0.807-0.827zM25.193 18.562c0.007-0.449-0.336-0.804-0.783-0.813-0.453-0.009-0.836 0.359-0.832 0.805 0.005 0.43 0.376 0.8 0.808 0.804 0.436 0.005 0.802-0.358 0.807-0.796zM13.235 6.615c-0.44 0.014-0.787 0.378-0.778 0.822 0.009 0.437 0.382 0.799 0.813 0.794 0.447-0.006 0.804-0.39 0.79-0.845-0.013-0.441-0.378-0.783-0.826-0.771zM7.59 19.359c0.438-0.001 0.798-0.359 0.802-0.8 0.006-0.451-0.337-0.803-0.782-0.81-0.46-0.009-0.827 0.351-0.822 0.808 0.005 0.438 0.372 0.804 0.803 0.802zM14.062 24.226c0.003-0.451-0.337-0.8-0.784-0.807-0.449-0.007-0.807 0.334-0.82 0.778-0.011 0.451 0.359 0.835 0.806 0.834 0.433-0.001 0.796-0.365 0.798-0.804zM10.795 21.712c0.37-0.005 0.661-0.303 0.664-0.679 0.005-0.388-0.268-0.675-0.647-0.687-0.382-0.010-0.709 0.297-0.715 0.67-0.007 0.365 0.332 0.701 0.697 0.696zM22.588 14.686c0.007 0.375 0.304 0.671 0.674 0.671 0.362 0 0.702-0.345 0.692-0.703-0.013-0.357-0.333-0.661-0.692-0.661-0.397 0-0.679 0.292-0.674 0.693zM19.317 23.069c0.368 0.014 0.688-0.308 0.688-0.692 0-0.389-0.271-0.664-0.659-0.67-0.391-0.006-0.706 0.295-0.706 0.675 0.001 0.351 0.318 0.675 0.676 0.687zM8.743 12.463c-0.010 0.365 0.325 0.708 0.691 0.706 0.384-0.001 0.679-0.31 0.671-0.706-0.006-0.385-0.287-0.659-0.671-0.657-0.369 0-0.683 0.298-0.691 0.657zM17.156 7.857c-0.36-0.010-0.704 0.329-0.704 0.694 0.002 0.364 0.306 0.667 0.675 0.672 0.401 0.007 0.691-0.278 0.691-0.677-0.003-0.365-0.304-0.678-0.661-0.689zM8.715 15.351c0.357 0.005 0.679-0.31 0.688-0.669s-0.295-0.679-0.657-0.691c-0.369-0.013-0.684 0.278-0.7 0.644-0.018 0.377 0.296 0.712 0.669 0.716zM22.55 13.163c0.366 0 0.663-0.303 0.668-0.676 0.005-0.382-0.277-0.674-0.653-0.681-0.381-0.009-0.704 0.308-0.696 0.683 0.007 0.362 0.32 0.675 0.681 0.675zM21.189 21.707c0.362 0.005 0.67-0.296 0.676-0.667 0.009-0.375-0.273-0.679-0.645-0.692-0.384-0.013-0.696 0.292-0.696 0.679-0.001 0.367 0.3 0.675 0.665 0.679zM12.646 23.061c0.38 0.002 0.686-0.318 0.674-0.706-0.013-0.381-0.301-0.654-0.684-0.647-0.374 0.007-0.667 0.306-0.662 0.677 0.002 0.366 0.31 0.674 0.672 0.676zM14.163 8.558c0.003 0.367 0.303 0.662 0.676 0.664 0.377 0.001 0.669-0.288 0.675-0.663 0.005-0.368-0.288-0.677-0.656-0.691-0.372-0.013-0.699 0.311-0.694 0.689zM14.842 23.759c0.37-0.001 0.662-0.297 0.662-0.672-0.001-0.37-0.304-0.677-0.667-0.674-0.365 0.001-0.664 0.31-0.662 0.679 0.001 0.374 0.296 0.669 0.667 0.667zM10.788 9.952c-0.375 0-0.679 0.297-0.679 0.663 0 0.362 0.308 0.665 0.677 0.665 0.373 0.001 0.67-0.295 0.67-0.665 0-0.375-0.289-0.663-0.668-0.663zM19.336 8.595c-0.368-0.001-0.679 0.302-0.68 0.664-0.001 0.358 0.311 0.676 0.671 0.679 0.364 0.003 0.67-0.304 0.67-0.671 0.002-0.378-0.286-0.67-0.661-0.672zM17.811 23.096c0.002-0.365-0.3-0.678-0.663-0.684-0.354-0.005-0.676 0.311-0.681 0.67-0.005 0.358 0.306 0.674 0.67 0.676 0.372 0.005 0.67-0.289 0.675-0.662zM23.262 17.639c0.366 0 0.675-0.305 0.675-0.667 0.001-0.366-0.303-0.665-0.675-0.665-0.378 0-0.667 0.287-0.667 0.664 0 0.372 0.295 0.668 0.667 0.668zM9.398 16.978c0.006-0.362-0.296-0.667-0.669-0.67-0.375-0.005-0.675 0.285-0.68 0.655-0.003 0.367 0.295 0.67 0.667 0.675 0.366 0.005 0.677-0.295 0.683-0.66zM23.214 19.151c-0.006-0.38-0.295-0.659-0.676-0.652-0.369 0.005-0.67 0.31-0.661 0.675 0.008 0.366 0.317 0.665 0.684 0.657 0.37-0.008 0.66-0.31 0.653-0.68zM11.984 9.281c0.009 0.369 0.319 0.667 0.686 0.655s0.649-0.317 0.643-0.692-0.303-0.656-0.683-0.647c-0.37 0.009-0.654 0.308-0.646 0.684zM9.448 18.497c-0.375-0.007-0.676 0.279-0.685 0.649-0.009 0.368 0.286 0.677 0.655 0.686 0.368 0.009 0.672-0.286 0.679-0.656 0.006-0.381-0.271-0.671-0.649-0.679zM21.192 9.952c-0.382 0.002-0.668 0.294-0.661 0.675 0.006 0.365 0.288 0.647 0.649 0.654 0.38 0.007 0.675-0.281 0.678-0.66 0-0.384-0.285-0.67-0.667-0.669zM16.023 10.301c0.298-0.016 0.557-0.296 0.543-0.588-0.016-0.297-0.295-0.557-0.588-0.548-0.302 0.010-0.556 0.276-0.555 0.576 0.003 0.313 0.284 0.577 0.599 0.559zM20.349 12.238c-0.003 0.298 0.261 0.567 0.558 0.572 0.296 0.005 0.567-0.262 0.571-0.559 0.002-0.297-0.262-0.571-0.56-0.572-0.293-0.003-0.565 0.265-0.568 0.559zM19.551 20.176c-0.3 0.009-0.56 0.277-0.556 0.572 0.006 0.298 0.27 0.553 0.572 0.556 0.31 0 0.565-0.248 0.569-0.552 0.003-0.318-0.266-0.584-0.585-0.575zM9.631 13.93c-0.007 0.306 0.276 0.582 0.592 0.574 0.304-0.007 0.556-0.268 0.551-0.572-0.005-0.301-0.263-0.553-0.568-0.555-0.3-0.001-0.567 0.257-0.575 0.552zM12.405 21.304c0.321 0.005 0.557-0.225 0.563-0.549 0.007-0.319-0.232-0.572-0.542-0.579-0.31-0.005-0.561 0.244-0.566 0.557-0.002 0.327 0.223 0.564 0.545 0.571zM20.911 19.949c0.312 0.002 0.568-0.252 0.564-0.559-0.003-0.309-0.264-0.555-0.577-0.547-0.302 0.007-0.543 0.248-0.548 0.543-0.006 0.31 0.242 0.561 0.561 0.563zM22.331 13.945c0.001-0.327-0.226-0.563-0.548-0.567-0.321-0.003-0.556 0.229-0.559 0.553-0.006 0.317 0.236 0.571 0.545 0.573 0.312 0.005 0.559-0.244 0.561-0.559zM14.095 22.173c0.296 0.011 0.567-0.248 0.576-0.549 0.007-0.304-0.241-0.572-0.543-0.583-0.304-0.013-0.56 0.238-0.569 0.549-0.008 0.313 0.229 0.572 0.536 0.583zM9.894 16.379c0.31 0.007 0.569-0.247 0.572-0.556 0.002-0.3-0.232-0.545-0.533-0.558-0.312-0.014-0.577 0.229-0.59 0.537-0.008 0.303 0.247 0.572 0.551 0.576zM13.556 10.057c0.013 0.305 0.248 0.528 0.553 0.528 0.321 0 0.563-0.242 0.56-0.559-0.007-0.316-0.254-0.552-0.575-0.548-0.316 0.008-0.549 0.258-0.539 0.579zM17.326 10.063c0.014 0.305 0.25 0.524 0.56 0.517 0.304-0.008 0.536-0.241 0.537-0.544 0.001-0.312-0.249-0.558-0.566-0.552-0.317 0.007-0.545 0.258-0.532 0.58zM12.427 11.453c0.295-0.006 0.532-0.248 0.535-0.549 0.003-0.304-0.222-0.542-0.524-0.551-0.319-0.013-0.569 0.224-0.569 0.542-0.002 0.314 0.249 0.566 0.558 0.558zM19.59 10.352c-0.318-0.013-0.572 0.229-0.575 0.543 0 0.297 0.239 0.548 0.534 0.558 0.297 0.013 0.574-0.252 0.576-0.55 0.001-0.295-0.237-0.541-0.535-0.551zM11.080 11.684c-0.298-0.006-0.572 0.268-0.567 0.566 0.005 0.292 0.255 0.543 0.547 0.549 0.309 0.006 0.563-0.25 0.558-0.563-0.005-0.297-0.246-0.547-0.537-0.552zM11.616 19.384c-0.003-0.301-0.24-0.536-0.543-0.54-0.312-0.002-0.567 0.254-0.56 0.561 0.006 0.298 0.246 0.532 0.549 0.536 0.319 0.005 0.56-0.237 0.555-0.558zM15.993 22.458c0.31 0 0.559-0.261 0.548-0.572-0.009-0.303-0.247-0.528-0.553-0.527-0.304 0.003-0.545 0.236-0.553 0.532-0.010 0.3 0.256 0.568 0.559 0.567zM22.323 17.686c-0.006-0.302-0.245-0.54-0.542-0.543-0.31-0.001-0.557 0.254-0.551 0.567 0.007 0.316 0.26 0.549 0.576 0.535 0.303-0.013 0.523-0.25 0.517-0.559zM18.424 21.61c0.001-0.306-0.263-0.569-0.566-0.563-0.296 0.009-0.532 0.254-0.533 0.556-0.001 0.314 0.25 0.567 0.561 0.559 0.29-0.008 0.536-0.26 0.537-0.552zM22.631 15.799c-0.013-0.3-0.257-0.529-0.56-0.527-0.301 0.003-0.545 0.241-0.551 0.536-0.008 0.3 0.262 0.571 0.563 0.567 0.304-0.002 0.56-0.271 0.549-0.576zM10.191 18.246c0.313 0.007 0.573-0.244 0.572-0.549-0.002-0.286-0.255-0.543-0.541-0.551-0.294-0.009-0.549 0.228-0.566 0.52-0.017 0.317 0.218 0.573 0.535 0.58zM11.059 14.568c-0.254-0.008-0.486 0.22-0.486 0.473 0.003 0.239 0.215 0.448 0.463 0.453 0.26 0.006 0.491-0.215 0.484-0.464-0.002-0.24-0.218-0.456-0.461-0.462zM11.044 16.141c-0.248 0.003-0.462 0.215-0.463 0.456-0.001 0.254 0.233 0.477 0.488 0.464 0.244-0.010 0.454-0.233 0.446-0.473-0.007-0.241-0.225-0.449-0.471-0.447zM19.541 12.749c0.25-0.006 0.469-0.246 0.454-0.496-0.016-0.237-0.241-0.444-0.477-0.438-0.238 0.007-0.452 0.221-0.455 0.46-0.003 0.249 0.229 0.481 0.478 0.475zM13.736 20.75c0.268-0.029 0.432-0.19 0.453-0.463 0.018-0.246-0.223-0.483-0.471-0.481-0.246 0.002-0.479 0.239-0.473 0.483 0.005 0.247 0.248 0.486 0.492 0.462zM15.239 21.228c0.238-0.017 0.444-0.244 0.434-0.478-0.009-0.25-0.253-0.472-0.497-0.453-0.24 0.018-0.441 0.241-0.433 0.48 0.009 0.249 0.249 0.468 0.496 0.451zM14.74 10.876c0 0.268 0.207 0.463 0.486 0.455 0.244-0.006 0.457-0.215 0.457-0.453 0.003-0.253-0.229-0.468-0.492-0.46-0.256 0.009-0.452 0.206-0.452 0.457zM11.991 18.097c0.002-0.239-0.215-0.459-0.454-0.463-0.24-0.003-0.46 0.214-0.463 0.453-0.002 0.241 0.213 0.462 0.453 0.463 0.241 0.003 0.46-0.212 0.464-0.453zM19.55 19.816c0.255-0.009 0.452-0.21 0.451-0.46-0.002-0.266-0.214-0.462-0.491-0.453-0.245 0.009-0.456 0.223-0.455 0.459 0 0.25 0.232 0.463 0.495 0.454zM19.996 13.537c-0.001 0.284 0.142 0.444 0.425 0.462 0.276 0.021 0.485-0.172 0.489-0.44 0.005-0.257-0.177-0.453-0.433-0.464-0.281-0.013-0.48 0.166-0.481 0.443zM20.474 18.558c0.247-0.015 0.438-0.229 0.43-0.483-0.007-0.25-0.218-0.456-0.461-0.452-0.256 0.005-0.463 0.237-0.446 0.501 0.016 0.246 0.239 0.447 0.477 0.433zM13.703 10.908c-0.247 0.008-0.455 0.221-0.453 0.46 0.006 0.244 0.22 0.447 0.466 0.446 0.266 0 0.483-0.222 0.466-0.478-0.014-0.249-0.224-0.437-0.48-0.428zM16.789 10.43c-0.258-0.007-0.462 0.178-0.471 0.431-0.009 0.247 0.191 0.456 0.441 0.465 0.254 0.008 0.459-0.182 0.468-0.433 0.008-0.253-0.184-0.455-0.438-0.463zM18.264 10.912c-0.258 0-0.448 0.19-0.448 0.447-0.002 0.257 0.19 0.449 0.447 0.449 0.256 0.001 0.448-0.19 0.449-0.447-0.001-0.258-0.191-0.449-0.448-0.449zM17.222 20.768c0-0.255-0.2-0.46-0.447-0.462-0.245-0.001-0.455 0.21-0.456 0.454-0.002 0.241 0.212 0.46 0.452 0.461 0.244 0.003 0.452-0.205 0.452-0.453zM12.002 19.343c-0.007 0.26 0.176 0.453 0.433 0.462 0.262 0.008 0.455-0.172 0.463-0.431 0.009-0.262-0.174-0.455-0.432-0.463s-0.455 0.175-0.464 0.432zM20.942 14.591c-0.257-0.005-0.455 0.185-0.459 0.439-0.003 0.25 0.193 0.455 0.442 0.461 0.252 0.005 0.452-0.189 0.456-0.444 0.003-0.257-0.184-0.452-0.44-0.456zM11.545 13.1c-0.249-0.008-0.463 0.191-0.471 0.434-0.009 0.244 0.197 0.454 0.446 0.462 0.252 0.006 0.463-0.188 0.472-0.436 0.008-0.241-0.198-0.453-0.447-0.461zM18.71 20.287c0.005-0.252-0.192-0.462-0.438-0.469-0.242-0.005-0.453 0.204-0.456 0.452-0.007 0.248 0.197 0.463 0.438 0.469 0.241 0.007 0.452-0.201 0.456-0.452zM20.483 16.606c0.001 0.247 0.207 0.453 0.452 0.453 0.252-0.001 0.446-0.199 0.447-0.455s-0.192-0.449-0.448-0.449c-0.253 0-0.451 0.199-0.451 0.452zM12.454 11.821c-0.242-0.002-0.448 0.208-0.449 0.456-0.002 0.249 0.204 0.46 0.445 0.461 0.244 0.002 0.45-0.207 0.45-0.456-0.001-0.25-0.204-0.461-0.446-0.461z"></path>
</svg>
