<!-- Generated by IcoMoon.io -->
<svg version="1.1" xmlns="http://www.w3.org/2000/svg" width="27" height="32" viewBox="0 0 27 32">
<title>GoogleScholar1</title>
<path d="M14.019 9.595c-0.432-0.482-0.932-0.722-1.498-0.722-0.64 0-1.132 0.23-1.474 0.69-0.342 0.458-0.514 1.014-0.514 1.666 0 0.556 0.094 1.121 0.281 1.698s0.493 1.091 0.922 1.545c0.427 0.455 0.925 0.682 1.49 0.682 0.63 0 1.122-0.211 1.475-0.633 0.351-0.421 0.528-0.953 0.528-1.594 0-0.546-0.093-1.117-0.28-1.714s-0.496-1.138-0.93-1.618zM25.932 3.618c-1.006-1.007-2.218-1.51-3.636-1.51h-17.151c-1.418 0-2.628 0.503-3.636 1.51-1.007 1.005-1.51 2.218-1.51 3.636v17.151c0 1.418 0.503 2.631 1.51 3.638 1.007 1.003 2.22 1.508 3.636 1.508h17.151c1.418 0 2.63-0.505 3.636-1.51 1.007-1.007 1.511-2.218 1.511-3.636v-17.151c0-1.418-0.504-2.631-1.511-3.636zM20.288 9.221v6.13c0 0.284-0.232 0.516-0.516 0.516h-0.19c-0.284 0-0.516-0.232-0.516-0.516v-6.13c0-0.252-0.037-0.462 0.316-0.507v-0.816l-2.711 2.224c0.031 0.058 0.061 0.095 0.089 0.144 0.238 0.422 0.36 0.946 0.36 1.587 0 0.491-0.082 0.933-0.248 1.322s-0.366 0.708-0.601 0.953c-0.235 0.246-0.47 0.471-0.705 0.673s-0.436 0.414-0.601 0.634c-0.166 0.219-0.248 0.445-0.248 0.68s0.107 0.473 0.321 0.714c0.213 0.241 0.475 0.475 0.785 0.706 0.31 0.229 0.62 0.484 0.93 0.761s0.571 0.632 0.784 1.065c0.215 0.434 0.322 0.911 0.322 1.436 0 0.692-0.177 1.318-0.528 1.874-0.353 0.554-0.813 0.996-1.378 1.321-0.567 0.326-1.172 0.572-1.819 0.738-0.648 0.164-1.29 0.247-1.932 0.247-0.405 0-0.814-0.031-1.225-0.095-0.412-0.064-0.826-0.177-1.242-0.337-0.417-0.16-0.786-0.357-1.106-0.594-0.321-0.234-0.579-0.536-0.777-0.904s-0.296-0.782-0.296-1.242c0-0.545 0.152-1.051 0.456-1.523 0.305-0.468 0.708-0.859 1.21-1.169 0.875-0.545 2.249-0.881 4.118-1.008-0.427-0.534-0.642-1.037-0.642-1.508 0-0.268 0.070-0.555 0.208-0.864-0.223 0.031-0.453 0.049-0.688 0.049-1.004 0-1.852-0.326-2.541-0.984-0.689-0.656-1.033-1.478-1.033-2.471 0-0.104 0.003-0.195 0.011-0.297h-4.081l6.153-5.349h10.19l-0.942 0.735v1.297c0.35 0.045 0.313 0.255 0.313 0.506zM14.075 18.745c-0.118-0.021-0.283-0.033-0.496-0.033-0.459 0-0.911 0.041-1.355 0.122-0.444 0.079-0.881 0.212-1.313 0.4-0.433 0.187-0.783 0.462-1.050 0.825-0.268 0.363-0.401 0.79-0.401 1.282 0 0.469 0.118 0.887 0.353 1.251 0.235 0.362 0.544 0.645 0.929 0.848s0.788 0.357 1.21 0.457c0.422 0.1 0.852 0.152 1.289 0.152 0.866 0 1.611-0.195 2.236-0.585 0.624-0.39 0.936-0.991 0.936-1.804 0-0.171-0.024-0.339-0.071-0.503-0.049-0.166-0.098-0.308-0.145-0.426-0.048-0.116-0.138-0.255-0.272-0.416s-0.235-0.28-0.304-0.36c-0.070-0.082-0.201-0.199-0.394-0.353-0.191-0.155-0.313-0.252-0.368-0.288-0.054-0.038-0.193-0.139-0.417-0.304-0.224-0.166-0.347-0.254-0.368-0.265z"></path>
</svg>
