<!-- Generated by IcoMoon.io -->
<svg version="1.1" xmlns="http://www.w3.org/2000/svg" width="27" height="32" viewBox="0 0 27 32">
<title>IDEASRePEc1</title>
<path d="M25.932 3.618c-1.006-1.007-2.218-1.51-3.636-1.51h-17.151c-1.418 0-2.628 0.503-3.636 1.51-1.007 1.005-1.51 2.218-1.51 3.636v17.151c0 1.418 0.503 2.631 1.51 3.638 1.007 1.003 2.22 1.508 3.636 1.508h17.151c1.418 0 2.63-0.505 3.636-1.51 1.007-1.007 1.511-2.218 1.511-3.636v-17.151c0-1.418-0.504-2.631-1.511-3.636zM16.687 24.879l-4.618 1.237c-0.284 0.076-0.579-0.094-0.655-0.378l-0.035-0.129c-0.076-0.284 0.094-0.579 0.378-0.655l4.618-1.237c0.284-0.076 0.579 0.094 0.655 0.378l0.035 0.129c0.076 0.284-0.094 0.579-0.378 0.655zM19.348 18.473c-0.284 0.302-0.585 0.588-0.888 0.872-0.564 0.53-0.911 1.152-0.929 1.95-0.012 0.535-0.298 0.91-0.825 1.055-0.075 0.021-5.758 1.548-5.758 1.548-0.313 0.084-0.638-0.104-0.722-0.417l-0.013-0.049c-0.084-0.313 0.104-0.638 0.417-0.722 0 0 4.954-1.388 4.869-1.31 0.452-0.111 0.713-0.343 0.822-0.809 0.233-0.997 0.882-1.739 1.594-2.429 1.179-1.143 1.974-2.472 2.188-4.137 0.32-2.492-0.888-5.069-3.111-6.32-2.393-1.347-4.794-1.258-7.028 0.337-3.11 2.22-3.566 6.507-1.074 9.407 0.694 0.808 1.4 1.606 2.175 2.494 2.038-0.298 2.038-0.298 2.038-2.371 0-1.289 0.008-2.578-0.003-3.866-0.004-0.459 0.146-0.817 0.636-0.805 0.484 0.011 0.626 0.382 0.624 0.832-0.007 1.988-0.012 3.975 0.002 5.963 0.003 0.492-0.182 0.765-0.671 0.884-0.953 0.232-1.893 0.515-2.846 0.746-0.686 0.166-0.777-0.032-1.058-0.664-0.281-0.631-0.739-1.223-1.238-1.711-2.126-2.082-2.966-4.568-2.291-7.458 0.682-2.92 2.557-4.819 5.432-5.659 3.286-0.96 6.823 0.473 8.609 3.422 1.785 2.948 1.398 6.726-0.95 9.216zM14.544 11.101c-0.040 0.547-0.35 0.856-0.83 0.848-0.479-0.008-0.827-0.336-0.815-0.835 0.011-0.486 0.316-0.805 0.834-0.799s0.775 0.312 0.812 0.787z"></path>
</svg>
