<!-- Generated by IcoMoon.io -->
<svg version="1.1" xmlns="http://www.w3.org/2000/svg" width="32" height="32" viewBox="0 0 32 32">
<title>IDEASRePEc</title>
<path d="M19.875 27.917l-5.985 1.604c-0.426 0.114-0.869-0.141-0.983-0.567v0c-0.114-0.426 0.141-0.869 0.567-0.983l5.985-1.604c0.426-0.114 0.869 0.141 0.983 0.567v0c0.114 0.426-0.141 0.869-0.567 0.983zM17.104 9.526c-0.054 0.729-0.466 1.141-1.107 1.13-0.638-0.010-1.102-0.447-1.087-1.113 0.015-0.648 0.421-1.073 1.112-1.066s1.033 0.415 1.082 1.049zM24.776 7.068c-2.381-3.932-7.096-5.843-11.477-4.563-3.834 1.12-6.333 3.652-7.242 7.544-0.9 3.853 0.22 7.167 3.054 9.943 0.665 0.651 1.276 1.439 1.65 2.281 0.376 0.843 0.496 1.107 1.411 0.886 1.271-0.307 2.524-0.685 3.795-0.994 0.651-0.158 0.899-0.522 0.894-1.178-0.017-2.65-0.012-5.3-0.002-7.95 0.002-0.6-0.186-1.094-0.832-1.109-0.653-0.015-0.853 0.462-0.848 1.074 0.015 1.718 0.005 3.436 0.004 5.154-0 2.764 0 2.764-2.718 3.161-1.033-1.184-1.974-2.248-2.9-3.325-3.323-3.866-2.715-9.581 1.432-12.541 2.979-2.127 6.179-2.245 9.37-0.449 2.963 1.667 4.574 5.102 4.147 8.425-0.285 2.22-1.345 3.992-2.917 5.515-0.949 0.919-1.813 1.909-2.125 3.238-0.146 0.622-0.494 0.93-1.096 1.078 0.113-0.105-6.491 1.746-6.491 1.746-0.418 0.112-0.668 0.545-0.556 0.963l0.017 0.065c0.112 0.418 0.545 0.668 0.963 0.556 0 0 7.577-2.036 7.677-2.064 0.702-0.194 1.084-0.693 1.1-1.406 0.024-1.064 0.486-1.893 1.239-2.6 0.403-0.379 0.804-0.761 1.183-1.163 3.13-3.319 3.646-8.356 1.266-12.287z"></path>
</svg>
