<!-- Generated by IcoMoon.io -->
<svg version="1.1" xmlns="http://www.w3.org/2000/svg" width="32" height="32" viewBox="0 0 32 32">
<title>IEEE</title>
<path d="M29.199 14.997l-0.074-0.012c-2.324-1.581-4.489-3.369-6.529-5.397l-2.254-2.355c-0.913-1.012-1.801-2.134-2.645-3.204l-1.026-1.454c-0.126-0.077-0.283-0.204-0.421-0.241-0.303-0.131-0.629 0.027-0.876 0.215l-1.857 2.418c-2.978 3.689-6.504 7.133-10.35 9.773-0.304 0.238-0.756 0.469-0.85 0.861-0.101 0.352 0.082 0.643 0.301 0.862 3.080 2.122 6.025 4.64 8.646 7.513 0.465 0.489 0.842 0.975 1.298 1.434 0.767 1.020 1.667 2.048 2.372 3.143 0.221 0.231 0.259 0.611 0.604 0.723 0.271 0.094 0.605 0.157 0.863 0l0.257-0.258c3.187-4.515 7.229-8.57 11.745-11.843 0.452-0.404 1.316-0.554 1.328-1.303-0.032-0.346-0.233-0.686-0.53-0.875zM26.113 16.205c-0.514 1.286-1.559 2.311-2.473 3.433-1.977 2.128-4.062 4.187-6.396 5.829-0.472 0.334-1.109 0.642-1.675 0.377-1.718-0.899-3.167-2.373-4.671-3.715-1.744-1.617-3.495-3.5-4.817-5.47-0.197-0.276-0.252-0.617-0.246-0.982 0.17-0.68 0.636-1.24 1.077-1.813 1.562-1.991 3.475-3.879 5.408-5.604 0.044-0.044 0.127-0.138 0.197-0.183 0.83-0.718 1.654-1.353 2.524-1.977 0.906-0.705 2.046-0.12 2.808 0.529 0.798 0.61 1.63 1.302 2.36 2.009l0.133 0.076c2.021 1.875 3.899 3.96 5.441 6.163 0.25 0.383 0.471 0.818 0.331 1.327zM25.239 15.090c-1.996-2.888-4.615-5.445-7.391-7.679-0.718-0.504-1.549-1.387-2.476-0.755-2.877 1.988-5.646 4.684-7.876 7.434-0.454 0.668-1.247 1.304-0.887 2.191 0.258 0.655 0.837 1.128 1.207 1.706 2.187 2.627 4.766 5.076 7.461 7.046 1.184 0.757 2.028-0.465 2.947-1.024 1.883-1.488 3.626-3.293 5.276-5.050v-0.044c0.662-0.8 1.36-1.588 1.877-2.451 0.226-0.422 0.112-1-0.14-1.373zM15.707 9.274l0.251-0.806h0.033c0.516 1.478 1.052 2.953 1.605 4.413l-1.108 0.019-0.025 0.134 0.165 3.958v0.064c-0.411 0.070-0.914 0.050-1.317 0.010l-0.032-0.043 0.184-4.080v-0.030c-0.31-0.032-0.7 0-1.015-0.032l1.259-3.607zM15.053 22.432c0.107-1.453 0.126-2.793 0.201-4.242 0.51 0.050 0.951 0.032 1.416 0.014l0.032 0.193 0.183 4.049c-0.612 0.089-1.259 0.039-1.832-0.013zM19.694 17.384c-2.645 0.824-5.97 0.786-8.476-0.317-0.453-0.217-1.026-0.559-1.177-1.088-0.115-0.969 0.925-1.504 1.631-1.858 0.416-0.181 0.837-0.383 1.298-0.408 0.427 0.316 0.875 0.567 1.315 0.851-0.857 0.228-1.883 0.423-2.28 1.359 0.069 0.712 0.876 0.938 1.435 1.114 2.023 0.537 4.206 0.468 6.146-0.238 0.366-0.215 0.945-0.473 0.894-1.002-0.064-0.566-0.712-0.818-1.164-0.994-0.278 0.038-0.543 0.101-0.8 0.183-0.138-0.391-0.257-0.788-0.422-1.165 0.858 0.227 1.713 0.459 2.599 0.617v0.018c-0.182 0.019-0.383 0.081-0.558 0.151v0.031c0.503 0.253 1.202 0.669 1.209 1.33-0.12 0.8-0.996 1.165-1.649 1.416z"></path>
</svg>
