<!-- Generated by IcoMoon.io -->
<svg version="1.1" xmlns="http://www.w3.org/2000/svg" width="27" height="32" viewBox="0 0 27 32">
<title>IEEE1</title>
<path d="M16.472 15.153v-0.021c0.117-0.046 0.251-0.088 0.372-0.1v-0.012c-0.591-0.106-1.161-0.26-1.733-0.412 0.11 0.251 0.19 0.516 0.281 0.777 0.172-0.055 0.348-0.097 0.534-0.122 0.302 0.117 0.734 0.285 0.776 0.663 0.034 0.353-0.353 0.524-0.596 0.668-1.293 0.471-2.749 0.516-4.097 0.159-0.373-0.117-0.91-0.268-0.956-0.743 0.264-0.624 0.948-0.754 1.52-0.906-0.294-0.189-0.592-0.357-0.877-0.567-0.307 0.017-0.588 0.151-0.865 0.272-0.471 0.236-1.164 0.593-1.087 1.239 0.101 0.353 0.483 0.581 0.785 0.726 1.67 0.736 3.887 0.761 5.65 0.212 0.435-0.168 1.020-0.411 1.1-0.944-0.005-0.441-0.471-0.718-0.806-0.887zM13.358 14.024l-0.123 2.72 0.021 0.029c0.269 0.026 0.604 0.040 0.878-0.007v-0.043l-0.11-2.638 0.017-0.089 0.739-0.013c-0.368-0.973-0.726-1.957-1.070-2.942h-0.022l-0.167 0.537-0.84 2.405c0.21 0.021 0.471 0 0.677 0.021v0.020zM16.61 11.205l-0.088-0.051c-0.487-0.471-1.041-0.932-1.573-1.339-0.508-0.432-1.268-0.823-1.872-0.353-0.58 0.416-1.129 0.84-1.682 1.318-0.047 0.030-0.102 0.093-0.131 0.122-1.288 1.15-2.564 2.409-3.605 3.736-0.294 0.382-0.604 0.755-0.718 1.208-0.004 0.243 0.033 0.47 0.164 0.655 0.881 1.313 2.048 2.569 3.211 3.647 1.003 0.895 1.969 1.877 3.114 2.477 0.377 0.177 0.802-0.029 1.117-0.252 1.556-1.095 2.946-2.468 4.264-3.886 0.609-0.748 1.306-1.432 1.649-2.289 0.093-0.339-0.054-0.629-0.221-0.885-1.028-1.469-2.28-2.859-3.627-4.109zM19.968 16.371c-0.345 0.575-0.81 1.1-1.252 1.634v0.029c-1.1 1.171-2.262 2.375-3.517 3.367-0.613 0.373-1.175 1.187-1.964 0.683-1.797-1.313-3.517-2.946-4.974-4.697-0.247-0.385-0.633-0.7-0.805-1.137-0.24-0.591 0.289-1.016 0.592-1.461 1.486-1.833 3.332-3.631 5.25-4.956 0.618-0.421 1.172 0.167 1.65 0.504 1.85 1.489 3.597 3.194 4.927 5.12 0.168 0.248 0.244 0.634 0.093 0.915zM14.162 17.53c-0.31 0.012-0.604 0.024-0.944-0.009-0.050 0.966-0.062 1.86-0.134 2.828 0.382 0.035 0.814 0.068 1.221 0.009l-0.122-2.699-0.021-0.129zM25.932 3.618c-1.006-1.007-2.218-1.51-3.636-1.51h-17.151c-1.418 0-2.628 0.503-3.636 1.51-1.007 1.005-1.51 2.218-1.51 3.636v17.151c0 1.418 0.503 2.631 1.51 3.638 1.007 1.003 2.22 1.508 3.636 1.508h17.151c1.418 0 2.63-0.505 3.636-1.51 1.007-1.007 1.511-2.218 1.511-3.636v-17.151c0-1.418-0.504-2.631-1.511-3.636zM21.983 16.845c-3.011 2.183-5.705 4.886-7.83 7.896l-0.171 0.172c-0.172 0.105-0.395 0.062-0.575 0-0.23-0.075-0.256-0.328-0.403-0.482-0.47-0.73-1.070-1.415-1.581-2.095-0.303-0.306-0.555-0.63-0.865-0.956-1.747-1.915-3.711-3.594-5.764-5.008-0.146-0.146-0.268-0.34-0.201-0.575 0.063-0.261 0.364-0.416 0.567-0.574 2.564-1.76 4.915-4.056 6.9-6.515l1.238-1.612c0.165-0.125 0.382-0.231 0.584-0.143 0.093 0.025 0.197 0.109 0.281 0.161l0.684 0.969c0.563 0.713 1.155 1.461 1.763 2.136l1.503 1.57c1.36 1.352 2.804 2.544 4.353 3.598l0.049 0.008c0.198 0.126 0.332 0.353 0.354 0.583-0.008 0.499-0.584 0.599-0.885 0.869z"></path>
</svg>
