<!-- Generated by IcoMoon.io -->
<svg version="1.1" xmlns="http://www.w3.org/2000/svg" width="27" height="32" viewBox="0 0 27 32">
<title>Impactstory</title>
<path d="M13.721 7.885c-4.278 0-7.744 3.557-7.744 7.943 0 4.388 3.467 7.946 7.744 7.946s7.744-3.557 7.744-7.946c0-4.386-3.466-7.943-7.744-7.943zM13.722 22.956c-3.936 0-7.127-3.191-7.127-7.128 0-3.934 3.191-7.126 7.127-7.126 3.937 0 7.128 3.191 7.128 7.126 0.001 3.937-3.19 7.128-7.128 7.128zM15.665 18.448h-0.827v-4.283c0-0.167-0.135-0.302-0.301-0.302h-2.631c-0.167 0-0.302 0.134-0.302 0.302v1.276c0 0.167 0.135 0.301 0.302 0.301h0.827v2.706h-0.827c-0.167 0-0.302 0.134-0.302 0.302v1.352c0 0.167 0.135 0.302 0.302 0.302h3.758c0.166 0 0.301-0.135 0.301-0.302v-1.352c0-0.168-0.135-0.302-0.301-0.302zM13.034 12.808h1.504c0.166 0 0.301-0.132 0.301-0.3v-1.277c0-0.167-0.135-0.302-0.301-0.302h-1.504c-0.166 0-0.301 0.134-0.301 0.302v1.277c0 0.168 0.135 0.3 0.301 0.3zM25.933 3.617c-1.006-1.007-2.218-1.509-3.636-1.509h-17.151c-1.418 0-2.629 0.502-3.636 1.509-1.007 1.005-1.509 2.218-1.509 3.636v17.151c0 1.418 0.502 2.631 1.509 3.638 1.007 1.003 2.221 1.507 3.636 1.507h17.151c1.418 0 2.63-0.504 3.636-1.509 1.007-1.007 1.51-2.217 1.51-3.636v-17.151c0-1.418-0.503-2.631-1.51-3.636zM22.61 18.267c-0.109 0.436-0.447 0.798-0.774 1.15-0.238 0.256-0.484 0.52-0.645 0.814-0.162 0.296-0.253 0.646-0.342 0.984-0.121 0.465-0.247 0.943-0.553 1.265-0.306 0.318-0.759 0.455-1.239 0.6-0.334 0.102-0.681 0.208-0.973 0.38-0.278 0.167-0.529 0.412-0.772 0.651-0.348 0.343-0.707 0.695-1.153 0.816-0.12 0.034-0.247 0.049-0.389 0.049-0.33 0-0.68-0.090-1.018-0.178-0.329-0.085-0.67-0.173-0.994-0.177h-0.023c-0.332 0-0.677 0.080-1.010 0.159-0.321 0.074-0.655 0.152-0.964 0.152-0.151 0-0.285-0.018-0.409-0.054-0.425-0.125-0.774-0.477-1.111-0.82-0.246-0.248-0.501-0.507-0.789-0.681-0.286-0.174-0.631-0.28-0.965-0.383-0.46-0.142-0.934-0.287-1.245-0.608-0.3-0.312-0.422-0.764-0.551-1.242-0.094-0.346-0.19-0.7-0.36-1.003-0.16-0.288-0.407-0.547-0.647-0.795-0.334-0.348-0.68-0.708-0.797-1.149-0.119-0.441 0-0.925 0.117-1.395 0.082-0.335 0.168-0.683 0.165-1.012-0.003-0.346-0.099-0.702-0.19-1.047-0.127-0.479-0.247-0.931-0.143-1.351 0.107-0.434 0.446-0.798 0.773-1.15 0.238-0.255 0.484-0.52 0.645-0.815 0.162-0.295 0.254-0.645 0.341-0.984 0.12-0.464 0.246-0.944 0.552-1.263 0.305-0.317 0.759-0.455 1.239-0.601 0.334-0.102 0.68-0.207 0.973-0.378 0.279-0.167 0.529-0.412 0.772-0.652 0.348-0.342 0.707-0.696 1.153-0.815 0.121-0.033 0.248-0.049 0.389-0.049 0.33 0 0.679 0.090 1.017 0.177 0.329 0.086 0.67 0.174 0.995 0.177l0.023 0.001c0.332 0 0.676-0.080 1.008-0.159 0.322-0.073 0.655-0.153 0.964-0.153 0.151 0 0.285 0.018 0.41 0.055 0.425 0.125 0.774 0.478 1.11 0.818 0.246 0.25 0.501 0.509 0.789 0.684 0.286 0.174 0.631 0.28 0.965 0.382 0.46 0.143 0.934 0.288 1.244 0.609 0.301 0.311 0.423 0.764 0.552 1.243 0.093 0.344 0.19 0.699 0.359 1.002 0.161 0.288 0.408 0.545 0.648 0.795 0.334 0.349 0.679 0.707 0.797 1.149 0.118 0.441-0.001 0.926-0.117 1.395-0.083 0.335-0.168 0.683-0.166 1.012 0.005 0.346 0.099 0.702 0.191 1.047 0.131 0.479 0.25 0.932 0.148 1.352z"></path>
</svg>
