<!-- Generated by IcoMoon.io -->
<svg version="1.1" xmlns="http://www.w3.org/2000/svg" width="32" height="32" viewBox="0 0 32 32">
<title>Inspire</title>
<path d="M19.142 18.086c0.269 1.891 1.893 3.345 3.858 3.345 2.153 0 3.898-1.745 3.898-3.898s-1.745-3.898-3.898-3.898c-1.965 0-3.59 1.454-3.858 3.345h-10.208c0.011-0.913 0.028-1.789 0.049-2.626l7.688-3.972c0.468 0.652 1.23 1.078 2.094 1.078 1.424 0 2.578-1.154 2.578-2.578 0-0.295-0.052-0.576-0.143-0.84l2.413-1.247-0.508-0.983-2.484 1.284c-0.469-0.488-1.127-0.792-1.857-0.792-1.424 0-2.578 1.154-2.578 2.578 0 0.165 0.017 0.326 0.047 0.482l-7.213 3.727c0.036-1.109 0.082-2.146 0.137-3.107l-4.039 0.545c0.471 2.639 0.707 5.903 0.707 9.793 0 3.46-0.094 6.536-0.283 9.228h3.655c-0.157-2.434-0.248-4.976-0.274-7.625l7.31 3.777c-0.030 0.156-0.047 0.317-0.047 0.482 0 1.424 1.154 2.578 2.578 2.578 0.73 0 1.388-0.305 1.857-0.792l2.484 1.284 0.508-0.983-2.413-1.247c0.091-0.264 0.143-0.546 0.143-0.84 0-1.424-1.154-2.578-2.578-2.578-0.864 0-1.626 0.426-2.094 1.078l-7.755-4.007c-0-0.118-0.001-0.236-0.001-0.354 0-1.142 0.007-2.233 0.019-3.276v1.040h10.209zM7.5 6.853c0.808 0 1.434-0.252 1.878-0.757s0.666-1.1 0.666-1.787c0-0.592-0.192-1.107-0.575-1.545s-0.905-0.656-1.565-0.656c-0.808 0-1.441 0.249-1.898 0.747s-0.687 1.084-0.687 1.757c0 0.619 0.192 1.148 0.575 1.585s0.919 0.656 1.605 0.656z"></path>
</svg>
