<!-- Generated by IcoMoon.io -->
<svg version="1.1" xmlns="http://www.w3.org/2000/svg" width="27" height="32" viewBox="0 0 27 32">
<title>MathOverflow</title>
<path d="M21.957 13.456c-1.589 0-1.922 2.92-1.922 3.437 0 0.702 0.37 1.109 0.998 1.109 1.626 0 1.922-2.957 1.922-3.326 0.037-0.813-0.296-1.22-0.998-1.22zM25.932 3.618c-1.006-1.007-2.218-1.51-3.636-1.51h-17.151c-1.418 0-2.628 0.503-3.636 1.51-1.007 1.005-1.51 2.218-1.51 3.636v17.151c0 1.418 0.503 2.631 1.51 3.638 1.007 1.003 2.22 1.508 3.636 1.508h17.151c1.418 0 2.63-0.505 3.636-1.51 1.007-1.007 1.511-2.218 1.511-3.636v-17.151c0-1.418-0.504-2.631-1.511-3.636zM3.43 24.976v-18.295h18.295l-0 4.116h-1.189v-2.927h-15.986v15.916h15.986v-2.927h1.189l0 4.116h-18.295zM14.233 13.796c-0.185-0.222-0.48-0.333-0.887-0.333-0.185 0-0.407 0.037-0.665 0.111s-0.517 0.185-0.813 0.333v4.324l0.222 0.222 0.628 0.074v0.48h-2.772v-0.48l0.628-0.074 0.222-0.222v-3.4c0-0.444-0.111-0.776-0.296-0.998s-0.48-0.333-0.85-0.333c-0.222 0-0.444 0.037-0.665 0.111s-0.517 0.185-0.776 0.333v4.324l0.222 0.222 0.628 0.074v0.48h-2.846v-0.48l0.702-0.074 0.222-0.222v-4.657h-0.924v-0.406l1.515-0.444h0.48v0.702c0.444-0.259 0.85-0.444 1.183-0.591 0.333-0.111 0.628-0.185 0.887-0.185 0.333 0 0.591 0.074 0.85 0.222 0.222 0.111 0.444 0.296 0.591 0.591 0.48-0.296 0.924-0.517 1.294-0.665s0.665-0.222 0.924-0.222c0.518 0 0.924 0.185 1.22 0.517s0.444 0.813 0.444 1.404v3.659l0.222 0.222 0.702 0.074v0.48h-2.809v-0.48l0.591-0.074 0.222-0.222v-3.4c0-0.443-0.111-0.776-0.296-0.998zM20.922 19.148c-1.922 0-3.141-1.035-3.141-2.624 0-1.294 0.85-4.213 4.213-4.213 2.033 0 3.142 0.998 3.142 2.735 0 1.109-0.813 4.102-4.213 4.102z"></path>
</svg>
