<!-- Generated by IcoMoon.io -->
<svg version="1.1" xmlns="http://www.w3.org/2000/svg" width="32" height="32" viewBox="0 0 32 32">
<title>MathOverflow1</title>
<path d="M13.019 12.919c0.601-0.37 1.155-0.647 1.617-0.832s0.832-0.277 1.155-0.277c0.647 0 1.155 0.231 1.525 0.647s0.554 1.016 0.554 1.755v4.574l0.277 0.277 0.878 0.092v0.601h-3.511v-0.601l0.739-0.092 0.277-0.277v-4.25c0-0.554-0.139-0.97-0.37-1.247s-0.601-0.416-1.109-0.416c-0.231 0-0.508 0.046-0.832 0.139s-0.647 0.231-1.016 0.416v5.405l0.277 0.277 0.785 0.092v0.601h-3.465v-0.601l0.785-0.092 0.277-0.277v-4.25c0-0.554-0.139-0.97-0.37-1.247s-0.601-0.416-1.063-0.416c-0.277 0-0.554 0.046-0.832 0.139s-0.647 0.231-0.97 0.416v5.405l0.277 0.277 0.785 0.092v0.601h-3.557v-0.601l0.878-0.092 0.277-0.277v-5.821h-1.155v-0.508l1.894-0.554h0.601v0.878c0.554-0.323 1.063-0.554 1.478-0.739 0.416-0.139 0.785-0.231 1.109-0.231 0.416 0 0.739 0.092 1.063 0.277 0.277 0.139 0.554 0.37 0.739 0.739zM25.861 11.43c-4.204 0-5.267 3.65-5.267 5.267 0 1.987 1.525 3.28 3.927 3.28 4.25 0 5.267-3.742 5.267-5.128 0-2.171-1.386-3.419-3.927-3.419zM24.66 18.545c-0.785 0-1.247-0.508-1.247-1.386 0-0.647 0.416-4.296 2.402-4.296 0.878 0 1.294 0.508 1.247 1.525 0 0.462-0.37 4.158-2.402 4.158zM2.657 4.395v22.868h22.868l-0.001-5.145h-1.486v3.659h-19.982v-19.895h19.982v3.659h1.486l0.001-5.145z"></path>
</svg>
