<!-- Generated by IcoMoon.io -->
<svg version="1.1" xmlns="http://www.w3.org/2000/svg" width="27" height="32" viewBox="0 0 27 32">
<title>Mendeley1</title>
<path d="M13.744 13.143c-1.25-0.005-2.258 0.986-2.262 2.223-0.005 1.121 0.867 2.254 2.25 2.254 1.379 0 2.246-1.124 2.249-2.242 0.002-1.229-1.001-2.233-2.238-2.234zM25.933 3.617c-1.006-1.007-2.218-1.509-3.636-1.509h-17.151c-1.418 0-2.629 0.502-3.636 1.509-1.007 1.005-1.509 2.218-1.509 3.636v17.151c0 1.418 0.502 2.631 1.509 3.638 1.007 1.003 2.221 1.507 3.636 1.507h17.151c1.418 0 2.63-0.504 3.636-1.509 1.007-1.007 1.51-2.217 1.51-3.636v-17.151c0-1.418-0.503-2.631-1.51-3.636zM25.071 20.57c-0.22 1.010-1.229 1.641-2.152 1.608-1.032-0.037-1.88-0.789-2.042-1.793-0.074-0.456-0.016-0.898 0.158-1.328 0.093-0.236 0.18-0.477 0.22-0.726 0.108-0.66-0.159-1.172-0.691-1.556-0.447-0.322-0.96-0.481-1.498-0.553-0.724-0.095-1.437-0.051-2.126 0.208-0.295 0.11-0.567 0.26-0.799 0.474-0.556 0.516-0.629 1.251-0.28 1.865 0.834 1.467-0.143 3.212-1.787 3.37-0.695 0.067-1.342-0.048-1.909-0.486-0.878-0.679-1.111-1.868-0.583-2.839 0.407-0.75 0.268-1.587-0.496-2.097-0.42-0.284-0.887-0.431-1.381-0.495-0.764-0.099-1.517-0.043-2.24 0.245-0.31 0.122-0.595 0.29-0.827 0.533-0.465 0.483-0.552 1.049-0.357 1.673 0.090 0.287 0.222 0.564 0.289 0.859 0.273 1.209-0.493 2.385-1.708 2.609-0.811 0.152-1.486-0.134-2.040-0.73-0.439-0.472-0.54-1.061-0.534-1.677 0.001-0.186 0.029-0.377 0.067-0.564 0.063-0.308 0.208-0.572 0.446-0.787 0.368-0.335 0.763-0.616 1.269-0.689 0.143-0.017 0.288-0.008 0.432-0.017 0.167-0.009 0.336-0.007 0.499-0.040 0.613-0.122 0.962-0.51 1.071-1.161 0.097-0.571 0.049-1.14-0.047-1.701-0.069-0.405-0.193-0.798-0.26-1.204-0.234-1.442 0.208-2.74 1.43-3.542 1.534-1.010 3.533-0.585 4.566 0.93 0.304 0.449 0.687 0.845 1.127 1.17 0.556 0.41 1.263 0.4 1.788-0.072 0.385-0.351 0.759-0.736 1.061-1.157 0.78-1.086 2.106-1.629 3.41-1.338 1.348 0.297 2.359 1.354 2.565 2.689 0.032 0.209 0.033 0.423 0.050 0.633 0.005 0.428-0.094 0.832-0.204 1.243-0.102 0.382-0.157 0.781-0.185 1.174-0.027 0.38-0.035 0.764 0.021 1.139 0.125 0.852 0.651 1.26 1.514 1.243 0.221-0.005 0.448-0.001 0.661 0.049 0.95 0.218 1.458 0.895 1.569 1.818 0.041 0.345 0.009 0.686-0.067 1.021z"></path>
</svg>
