<!-- Generated by IcoMoon.io -->
<svg version="1.1" xmlns="http://www.w3.org/2000/svg" width="32" height="32" viewBox="0 0 32 32">
<title>Mendeley</title>
<path d="M31.99 23.581c-0.153-1.291-0.864-2.239-2.195-2.546-0.298-0.070-0.616-0.073-0.926-0.067-1.209 0.023-1.944-0.548-2.12-1.741-0.078-0.524-0.065-1.063-0.027-1.594 0.040-0.552 0.117-1.111 0.26-1.645 0.152-0.575 0.29-1.141 0.285-1.739-0.024-0.295-0.025-0.595-0.071-0.887-0.287-1.868-1.704-3.347-3.59-3.764-1.825-0.407-3.682 0.353-4.773 1.874-0.423 0.591-0.947 1.127-1.485 1.62-0.735 0.66-1.725 0.676-2.504 0.101-0.616-0.454-1.151-1.010-1.578-1.639-1.445-2.12-4.242-2.714-6.391-1.303-1.713 1.124-2.331 2.941-2.003 4.959 0.093 0.568 0.269 1.119 0.364 1.687 0.135 0.787 0.201 1.584 0.065 2.383-0.153 0.91-0.641 1.452-1.499 1.624-0.226 0.047-0.466 0.045-0.699 0.056-0.201 0.014-0.406 0-0.605 0.024-0.71 0.101-1.262 0.495-1.777 0.964-0.333 0.303-0.536 0.674-0.624 1.103-0.053 0.262-0.091 0.528-0.094 0.789-0.009 0.863 0.133 1.685 0.749 2.347 0.775 0.834 1.721 1.234 2.856 1.022 1.701-0.314 2.774-1.962 2.391-3.654-0.096-0.412-0.281-0.798-0.407-1.202-0.273-0.875-0.153-1.666 0.5-2.342 0.326-0.338 0.725-0.573 1.157-0.744 1.012-0.404 2.067-0.481 3.136-0.343 0.691 0.089 1.346 0.296 1.932 0.691 1.069 0.716 1.266 1.885 0.694 2.936-0.739 1.36-0.413 3.025 0.816 3.976 0.794 0.613 1.7 0.774 2.673 0.68 2.303-0.221 3.669-2.664 2.503-4.718-0.488-0.859-0.386-1.889 0.391-2.609 0.326-0.303 0.706-0.512 1.119-0.667 0.965-0.362 1.963-0.423 2.976-0.289 0.752 0.101 1.47 0.322 2.097 0.774 0.744 0.54 1.117 1.258 0.966 2.18-0.056 0.348-0.178 0.687-0.308 1.017-0.242 0.601-0.325 1.219-0.221 1.859 0.229 1.405 1.413 2.457 2.859 2.509 1.293 0.045 2.705-0.836 3.014-2.25 0.105-0.472 0.151-0.948 0.093-1.429zM16.023 20.88c-1.936 0-3.156-1.584-3.15-3.155 0.005-1.731 1.418-3.118 3.167-3.114 1.732 0.002 3.138 1.406 3.133 3.128-0.007 1.565-1.22 3.14-3.15 3.14z"></path>
</svg>
