<!-- Generated by IcoMoon.io -->
<svg version="1.1" xmlns="http://www.w3.org/2000/svg" width="27" height="32" viewBox="0 0 27 32">
<title>OpenAccess1</title>
<path d="M25.932 3.618c-1.006-1.007-2.218-1.51-3.636-1.51h-17.151c-1.418 0-2.628 0.503-3.636 1.51-1.007 1.005-1.51 2.218-1.51 3.636v17.151c0 1.418 0.503 2.631 1.51 3.638 1.007 1.003 2.22 1.508 3.636 1.508h17.151c1.418 0 2.63-0.505 3.636-1.51 1.007-1.007 1.511-2.218 1.511-3.636v-17.151c0-1.418-0.504-2.631-1.511-3.636zM19.036 21.454c-0.291 0.687-0.706 1.304-1.236 1.833s-1.146 0.945-1.833 1.236c-0.712 0.301-1.467 0.454-2.246 0.454s-1.534-0.153-2.246-0.454c-0.687-0.291-1.304-0.706-1.833-1.236s-0.945-1.146-1.236-1.833c-0.301-0.712-0.454-1.467-0.454-2.246s0.153-1.534 0.454-2.246c0.291-0.687 0.706-1.304 1.236-1.833s1.146-0.945 1.833-1.236c0.712-0.301 1.467-0.454 2.246-0.454s1.534 0.153 2.246 0.454c0.242 0.102 0.474 0.22 0.698 0.353v-2.674c-0-1.616-1.316-2.931-2.932-2.932h-0.001c-0.783 0-1.519 0.305-2.073 0.858s-0.859 1.29-0.859 2.074v0.668h-1.959v-0.668c0-1.307 0.509-2.535 1.434-3.459s2.152-1.432 3.458-1.432c0 0 0.001 0 0.001 0 1.306 0 2.534 0.509 3.458 1.433s1.432 2.152 1.433 3.458v4.595c0.157 0.253 0.295 0.518 0.412 0.795 0.301 0.712 0.454 1.467 0.454 2.246s-0.153 1.534-0.454 2.246zM13.722 15.399c-2.1 0-3.809 1.709-3.809 3.809s1.709 3.809 3.809 3.809 3.809-1.709 3.809-3.809c0-2.1-1.709-3.809-3.809-3.809zM13.74 20.842c-0.893 0-1.616-0.724-1.616-1.616s0.724-1.616 1.616-1.616c0.893 0 1.616 0.724 1.616 1.616s-0.724 1.616-1.616 1.616z"></path>
</svg>
