<!-- Generated by IcoMoon.io -->
<svg version="1.1" xmlns="http://www.w3.org/2000/svg" width="32" height="32" viewBox="0 0 32 32">
<title>OpenAccess</title>
<path d="M23.98 17.529c-0.176-0.415-0.382-0.813-0.618-1.192v-6.893c-0-1.959-0.764-3.801-2.149-5.187s-3.227-2.149-5.187-2.149c0 0-0.001 0-0.002 0-1.959 0-3.801 0.763-5.187 2.148s-2.15 3.228-2.15 5.188v1.002h2.939v-1.002c0-1.175 0.458-2.28 1.289-3.11s1.935-1.288 3.11-1.288c0 0 0.001 0 0.001 0 2.424 0.001 4.397 1.974 4.398 4.398v4.011c-0.335-0.199-0.685-0.376-1.047-0.53-1.068-0.452-2.201-0.681-3.368-0.681s-2.301 0.229-3.368 0.681c-1.030 0.436-1.956 1.059-2.75 1.854s-1.418 1.719-1.854 2.75c-0.452 1.068-0.681 2.201-0.681 3.368s0.229 2.301 0.681 3.368c0.436 1.030 1.059 1.956 1.854 2.75s1.719 1.418 2.75 1.854c1.068 0.451 2.201 0.68 3.369 0.68s2.301-0.229 3.368-0.681c1.030-0.436 1.956-1.059 2.75-1.854s1.418-1.719 1.854-2.75c0.452-1.068 0.681-2.201 0.681-3.368s-0.229-2.301-0.681-3.368zM16.008 26.612c-3.151 0-5.714-2.563-5.714-5.714s2.563-5.714 5.714-5.714 5.714 2.563 5.714 5.714-2.563 5.714-5.714 5.714zM18.46 20.924c0 1.339-1.085 2.424-2.424 2.424s-2.424-1.085-2.424-2.424c0-1.339 1.085-2.424 2.424-2.424s2.424 1.085 2.424 2.424z"></path>
</svg>
