<!-- Generated by IcoMoon.io -->
<svg version="1.1" xmlns="http://www.w3.org/2000/svg" width="32" height="32" viewBox="0 0 32 32">
<title>Orcid1</title>
<path d="M20.468 12.429c-0.394-0.184-0.767-0.308-1.121-0.366-0.352-0.061-0.917-0.089-1.699-0.089h-2.031v8.451h2.082c0.812 0 1.443-0.056 1.893-0.167s0.826-0.25 1.126-0.422c0.301-0.17 0.576-0.38 0.827-0.63 0.802-0.814 1.203-1.841 1.203-3.083 0-1.22-0.412-2.216-1.236-2.987-0.304-0.286-0.654-0.523-1.045-0.708zM16.008 2.108c-7.579 0-13.721 6.144-13.721 13.721s6.142 13.721 13.721 13.721 13.721-6.144 13.721-13.721-6.142-13.721-13.721-13.721zM11.452 21.888h-1.626v-11.362h1.626v11.362zM10.638 9.339c-0.616 0-1.118-0.499-1.118-1.118 0-0.615 0.501-1.117 1.118-1.117 0.619 0 1.119 0.501 1.119 1.117-0.001 0.621-0.501 1.118-1.119 1.118zM23.993 18.39c-0.293 0.694-0.71 1.305-1.253 1.831-0.552 0.544-1.195 0.951-1.928 1.228-0.429 0.167-0.821 0.28-1.179 0.338-0.359 0.056-1.042 0.083-2.051 0.083h-3.594v-11.345h3.83c1.547 0 2.768 0.23 3.669 0.694 0.9 0.463 1.614 1.147 2.146 2.046 0.532 0.9 0.798 1.882 0.798 2.943 0.001 0.762-0.148 1.489-0.439 2.182z"></path>
</svg>
