<!-- Generated by IcoMoon.io -->
<svg version="1.1" xmlns="http://www.w3.org/2000/svg" width="27" height="32" viewBox="0 0 27 32">
<title>Orcid</title>
<path d="M17.375 12.757c-0.6-0.311-1.414-0.463-2.45-0.463h-2.551v7.563h2.397c0.676 0 1.129-0.016 1.369-0.055 0.237-0.038 0.501-0.116 0.787-0.228 0.487-0.182 0.915-0.453 1.285-0.818 0.359-0.35 0.639-0.758 0.834-1.222 0.194-0.461 0.296-0.944 0.296-1.451 0-0.709-0.181-1.363-0.536-1.96-0.353-0.604-0.829-1.057-1.429-1.366zM17.413 18.079c-0.166 0.168-0.35 0.306-0.551 0.42-0.2 0.116-0.451 0.208-0.75 0.282s-0.72 0.111-1.262 0.111h-1.388v-5.634h1.355c0.524 0 0.896 0.021 1.131 0.059 0.236 0.039 0.485 0.122 0.75 0.245 0.26 0.123 0.492 0.279 0.694 0.47 0.55 0.516 0.822 1.179 0.822 1.992 0 0.829-0.266 1.509-0.8 2.055zM9.6 19.868h1.083v-7.574h-1.083v7.574zM25.933 3.617c-1.006-1.007-2.218-1.509-3.636-1.509h-17.151c-1.418 0-2.629 0.502-3.636 1.509-1.007 1.005-1.509 2.218-1.509 3.636v17.151c0 1.418 0.502 2.631 1.509 3.638 1.007 1.003 2.221 1.507 3.636 1.507h17.151c1.418 0 2.63-0.504 3.636-1.509 1.007-1.007 1.51-2.217 1.51-3.636v-17.151c0-1.418-0.503-2.631-1.51-3.636zM13.721 24.976c-5.052 0-9.147-4.097-9.147-9.147s4.096-9.147 9.147-9.147 9.147 4.097 9.147 9.147-4.096 9.147-9.147 9.147zM10.137 10.015c-0.408 0-0.741 0.334-0.741 0.742 0 0.414 0.333 0.743 0.741 0.743 0.414 0 0.75-0.329 0.75-0.743 0-0.408-0.335-0.742-0.75-0.742z"></path>
</svg>
