<!-- Generated by IcoMoon.io -->
<svg version="1.1" xmlns="http://www.w3.org/2000/svg" width="27" height="32" viewBox="0 0 27 32">
<title>OSF</title>
<path d="M25.932 3.618c-1.006-1.007-2.218-1.51-3.636-1.51h-17.151c-1.418 0-2.628 0.503-3.636 1.51-1.007 1.005-1.51 2.218-1.51 3.636v17.151c0 1.418 0.503 2.631 1.51 3.638 1.007 1.003 2.22 1.508 3.636 1.508h17.151c1.418 0 2.63-0.505 3.636-1.51 1.007-1.007 1.511-2.218 1.511-3.636v-17.151c0-1.418-0.504-2.631-1.511-3.636zM17.75 7.744c1.12-1.12 2.936-1.12 4.057 0s1.12 2.936 0 4.057c-0.662 0.662-1.566 0.922-2.427 0.802-0.004 0.004-0.006 0.008-0.010 0.012-0.672 0.672-1.762 0.672-2.434 0s-0.672-1.762 0-2.434c0.004-0.004 0.008-0.006 0.012-0.010-0.12-0.861 0.14-1.765 0.802-2.427zM13.722 4.395c1.584 0 2.868 1.284 2.868 2.869 0 0.936-0.455 1.759-1.149 2.283-0.009-0.943-0.774-1.706-1.72-1.706s-1.711 0.762-1.72 1.706c-0.694-0.524-1.149-1.347-1.149-2.283 0-1.584 1.284-2.869 2.869-2.869zM5.636 7.744c1.12-1.12 2.936-1.12 4.057 0 0.662 0.662 0.922 1.566 0.802 2.427 0.004 0.004 0.008 0.006 0.012 0.010 0.672 0.672 0.672 1.762 0 2.434s-1.762 0.672-2.434 0c-0.004-0.004-0.006-0.008-0.010-0.012-0.861 0.12-1.765-0.14-2.427-0.802-1.12-1.12-1.12-2.936 0-4.057zM2.287 15.829c0-1.584 1.284-2.869 2.869-2.869 0.936 0 1.759 0.455 2.283 1.149-0.943 0.009-1.706 0.774-1.706 1.72s0.762 1.711 1.706 1.72c-0.524 0.694-1.347 1.149-2.283 1.149-1.584 0-2.869-1.284-2.869-2.869zM9.693 23.914c-1.12 1.12-2.936 1.12-4.057 0s-1.12-2.936 0-4.057c0.662-0.662 1.566-0.922 2.427-0.802 0.004-0.004 0.006-0.008 0.010-0.012 0.672-0.672 1.762-0.672 2.434 0s0.672 1.762 0 2.434c-0.004 0.004-0.008 0.006-0.012 0.010 0.12 0.861-0.14 1.765-0.802 2.427zM13.722 27.263c-1.584 0-2.868-1.284-2.868-2.869 0-0.936 0.455-1.759 1.149-2.283 0.009 0.943 0.774 1.706 1.72 1.706s1.711-0.762 1.72-1.706c0.694 0.524 1.149 1.347 1.149 2.283 0 1.584-1.284 2.869-2.869 2.869zM21.807 23.914c-1.12 1.12-2.936 1.12-4.057 0-0.662-0.662-0.922-1.566-0.802-2.427-0.004-0.004-0.008-0.006-0.012-0.010-0.672-0.672-0.672-1.762 0-2.434s1.762-0.672 2.434 0c0.004 0.004 0.006 0.008 0.010 0.012 0.861-0.12 1.765 0.14 2.427 0.802 1.12 1.12 1.12 2.937 0 4.057zM22.287 18.698c-0.936 0-1.759-0.455-2.283-1.149 0.943-0.009 1.706-0.774 1.706-1.72s-0.762-1.711-1.706-1.72c0.524-0.694 1.347-1.149 2.283-1.149 1.584 0 2.869 1.284 2.869 2.868s-1.284 2.869-2.869 2.869z"></path>
</svg>
