<!-- Generated by IcoMoon.io -->
<svg version="1.1" xmlns="http://www.w3.org/2000/svg" width="32" height="32" viewBox="0 0 32 32">
<title>OSF1</title>
<path d="M16.008 2.108c-1.901 0-3.442 1.541-3.442 3.442 0 1.123 0.546 2.111 1.379 2.74 0.010-1.132 0.929-2.047 2.064-2.047s2.053 0.915 2.064 2.047c0.832-0.628 1.379-1.616 1.379-2.74-0-1.901-1.541-3.442-3.442-3.442zM18.071 23.368c-0.010 1.132-0.929 2.047-2.064 2.047s-2.053-0.915-2.063-2.047c-0.833 0.628-1.379 1.616-1.379 2.74 0 1.901 1.541 3.442 3.442 3.442s3.442-1.541 3.442-3.442c0-1.123-0.546-2.111-1.379-2.74zM26.287 12.387c-1.123 0-2.111 0.546-2.74 1.379 1.132 0.010 2.047 0.929 2.047 2.063s-0.915 2.053-2.047 2.064c0.628 0.832 1.616 1.379 2.74 1.379 1.901-0 3.442-1.541 3.442-3.442s-1.541-3.442-3.442-3.442zM6.422 15.829c0-1.134 0.915-2.053 2.047-2.063-0.628-0.833-1.616-1.379-2.74-1.379-1.901 0-3.442 1.541-3.442 3.442s1.541 3.442 3.442 3.442c1.123 0 2.111-0.546 2.74-1.379-1.132-0.010-2.047-0.929-2.047-2.063zM25.71 6.127c-1.344-1.344-3.524-1.344-4.868 0-0.794 0.794-1.107 1.879-0.962 2.912-0.005 0.004-0.010 0.007-0.015 0.012-0.807 0.807-0.807 2.114 0 2.921s2.114 0.807 2.921 0c0.005-0.005 0.007-0.010 0.012-0.015 1.033 0.144 2.118-0.168 2.912-0.962 1.344-1.344 1.344-3.524-0-4.868zM12.15 22.607c0.807-0.807 0.807-2.114 0-2.921s-2.114-0.807-2.921 0c-0.005 0.005-0.007 0.010-0.012 0.015-1.033-0.144-2.118 0.168-2.912 0.962-1.344 1.344-1.344 3.524 0 4.868s3.524 1.344 4.868 0c0.794-0.794 1.107-1.879 0.962-2.912 0.005-0.004 0.010-0.007 0.015-0.012zM12.15 9.051c-0.005-0.005-0.010-0.007-0.015-0.012 0.144-1.033-0.168-2.118-0.962-2.912-1.344-1.344-3.524-1.344-4.868 0s-1.344 3.524 0 4.868c0.794 0.794 1.879 1.107 2.912 0.962 0.004 0.005 0.007 0.010 0.012 0.015 0.807 0.807 2.114 0.807 2.921 0s0.807-2.114 0-2.921zM25.71 20.663c-0.794-0.794-1.879-1.107-2.912-0.962-0.004-0.005-0.007-0.010-0.012-0.015-0.807-0.807-2.114-0.807-2.921 0s-0.807 2.114 0 2.921c0.005 0.005 0.010 0.007 0.015 0.012-0.144 1.033 0.168 2.118 0.962 2.912 1.344 1.344 3.524 1.344 4.868 0s1.344-3.524 0-4.868z"></path>
</svg>
