<!-- Generated by IcoMoon.io -->
<svg version="1.1" xmlns="http://www.w3.org/2000/svg" width="27" height="32" viewBox="0 0 27 32">
<title>Overleaf1</title>
<path d="M25.932 3.618c-1.006-1.007-2.218-1.51-3.636-1.51h-17.151c-1.418 0-2.628 0.503-3.636 1.51-1.007 1.005-1.51 2.218-1.51 3.636v17.151c0 1.418 0.503 2.631 1.51 3.638 1.007 1.003 2.22 1.508 3.636 1.508h17.151c1.418 0 2.63-0.505 3.636-1.51 1.007-1.007 1.511-2.218 1.511-3.636v-17.151c0-1.418-0.504-2.631-1.511-3.636zM13.066 11.627c1.798-1.349 4.368-2.588 5.793-3.342-4.366 1.082-10.239 3.902-11.047 8.848-0.231 1.413 0.063 2.859 1.204 4.192 0.771 0.902 1.918 1.473 3.197 1.473 2.322 0 4.204-1.882 4.204-4.205 0-2.091-1.527-3.826-3.526-4.15-1.358-0.218-2.89 0.295-3.872 1.473 0.661-1.49 2.055-2.985 3.2-3.713 0.801-0.067 1.805 0.249 2.267 0.424 2.402 0.915 4.11 3.242 4.11 5.966 0 3.525-2.857 6.382-6.382 6.382s-6.383-2.857-6.383-6.382c0-2.917 1.73-5.643 4.343-7.316 0.015-5.343 8.969-4.987 11.44-4.024-2.455 1.978-3.303 6.397-8.547 4.373z"></path>
</svg>
