<!-- Generated by IcoMoon.io -->
<svg version="1.1" xmlns="http://www.w3.org/2000/svg" width="32" height="32" viewBox="0 0 32 32">
<title>Overleaf</title>
<path d="M10.685 9.002c-3.919 2.509-6.515 6.599-6.515 10.974-0 5.288 4.286 9.574 9.575 9.574s9.573-4.286 9.573-9.573c0-4.087-2.561-7.578-6.164-8.95-0.693-0.264-2.199-0.738-3.401-0.637-1.717 1.092-3.809 3.335-4.8 5.57 1.474-1.767 3.771-2.537 5.808-2.21 2.999 0.486 5.289 3.088 5.289 6.225 0 3.484-2.824 6.307-6.307 6.307-1.919 0-3.639-0.857-4.796-2.21-1.712-2-2.152-4.17-1.807-6.289 1.213-7.42 10.022-11.649 16.571-13.272-2.137 1.131-5.993 2.99-8.69 5.013 7.866 3.036 9.137-3.593 12.82-6.559-3.706-1.445-17.138-1.978-17.159 6.036z"></path>
</svg>
