<!-- Generated by IcoMoon.io -->
<svg version="1.1" xmlns="http://www.w3.org/2000/svg" width="32" height="32" viewBox="0 0 32 32">
<title>PhilPapers1</title>
<path d="M17.807 15.26c0.775-0.21 1.486-0.609 2.069-1.159 1.415-1.286 2.123-2.998 2.123-5.137 0.013-1.118-0.197-2.227-0.618-3.262-0.376-0.941-0.983-1.773-1.766-2.417-0.693-0.58-1.516-0.984-2.398-1.177h-4.839v13.465h2.123c1.432 0.001 2.534-0.104 3.307-0.313zM22.69 2.11c0.526 0.24 1.022 0.541 1.478 0.895 2.052 1.56 3.078 3.641 3.078 6.242 0 2.644-1.041 4.58-3.122 5.808-1.083 0.636-2.398 1.019-3.944 1.149-0.492 0.043-1.676 0.065-3.554 0.065h-4.245v7.78c0 1.473 0.083 2.568 0.249 3.283 0.138 0.662 0.457 1.273 0.921 1.766 0.161 0.166 0.336 0.318 0.524 0.452h15.654v-27.441h-7.039zM6.915 3.569c-0.349-0.553-0.844-1-1.43-1.289-0.133-0.064-0.27-0.121-0.41-0.17h-2.786v27.441h3.648c0.188-0.135 0.364-0.286 0.524-0.452 0.472-0.483 0.795-1.093 0.929-1.755 0.159-0.708 0.239-1.805 0.239-3.294v-15.972c0.017-0.96-0.037-1.92-0.163-2.872-0.075-0.576-0.262-1.132-0.55-1.636z"></path>
</svg>
