<!-- Generated by IcoMoon.io -->
<svg version="1.1" xmlns="http://www.w3.org/2000/svg" width="27" height="32" viewBox="0 0 27 32">
<title>PhilPapers</title>
<path d="M25.932 3.618c-1.006-1.007-2.218-1.51-3.636-1.51h-17.151c-1.418 0-2.628 0.503-3.636 1.51-1.007 1.005-1.51 2.218-1.51 3.636v17.151c0 1.418 0.503 2.631 1.51 3.638 1.007 1.003 2.22 1.508 3.636 1.508h17.151c1.418 0 2.63-0.505 3.636-1.51 1.007-1.007 1.511-2.218 1.511-3.636v-17.151c0-1.418-0.504-2.631-1.511-3.636zM8.133 21.309c0 0.992-0.053 1.724-0.159 2.196-0.089 0.441-0.304 0.848-0.619 1.17-0.107 0.111-0.224 0.212-0.349 0.302h-2.432v-18.294h1.857c0.093 0.033 0.184 0.070 0.273 0.113 0.391 0.193 0.721 0.491 0.953 0.86 0.192 0.336 0.317 0.706 0.367 1.090 0.084 0.635 0.12 1.275 0.109 1.915v10.648zM11.299 6.682h3.226c0.588 0.129 1.137 0.398 1.599 0.784 0.522 0.43 0.926 0.984 1.177 1.611 0.281 0.69 0.421 1.43 0.412 2.175 0 1.426-0.472 2.567-1.415 3.424-0.389 0.367-0.863 0.633-1.38 0.773-0.515 0.14-1.25 0.209-2.205 0.209h-1.415v-8.977zM22.867 24.976h-10.436c-0.125-0.090-0.242-0.191-0.349-0.302-0.309-0.328-0.522-0.736-0.614-1.177-0.111-0.477-0.166-1.207-0.166-2.189v-5.187h2.83c1.252 0 2.041-0.014 2.369-0.043 1.031-0.087 1.907-0.342 2.629-0.766 1.387-0.818 2.081-2.109 2.081-3.872 0-1.734-0.684-3.121-2.052-4.161-0.304-0.236-0.635-0.437-0.985-0.597h4.693v18.294z"></path>
</svg>
