<!-- Generated by IcoMoon.io -->
<svg version="1.1" xmlns="http://www.w3.org/2000/svg" width="27" height="32" viewBox="0 0 27 32">
<title>Piazza</title>
<path d="M14.753 9.1c-0.297-0.085-0.433-0.098-1.045-0.096-0.639 0.002-0.738 0.013-1.078 0.118-0.748 0.229-1.336 0.597-1.853 1.159-0.332 0.361-0.511 0.641-0.722 1.13-0.445 1.028-0.407 2.289 0.098 3.298 0.669 1.337 1.93 2.146 3.493 2.243 0.047 0.003 0.258-0.014 0.469-0.038 0.515-0.058 0.818-0.144 1.299-0.368 1.082-0.504 1.857-1.437 2.163-2.605 0.149-0.568 0.158-1.348 0.021-1.904-0.348-1.419-1.422-2.527-2.843-2.936zM25.932 3.618c-1.006-1.007-2.218-1.51-3.636-1.51h-17.151c-1.418 0-2.628 0.503-3.636 1.51-1.007 1.005-1.51 2.218-1.51 3.636v17.151c0 1.418 0.503 2.631 1.51 3.638 1.007 1.003 2.22 1.508 3.636 1.508h17.151c1.418 0 2.63-0.505 3.636-1.51 1.007-1.007 1.511-2.218 1.511-3.636v-17.151c0-1.418-0.504-2.631-1.511-3.636zM19.639 14.829c-0.301 0.901-0.741 1.624-1.408 2.314-0.517 0.535-0.998 0.895-1.62 1.216-0.614 0.316-1.154 0.498-1.815 0.611-0.708 0.121-1.745 0.092-2.426-0.067-0.81-0.19-1.654-0.582-2.313-1.075-0.445-0.333-0.402-0.706-0.402 3.481v3.668h-2.176v-6.345h0c0-5.389 0.010-6.403 0.063-6.729 0.412-2.515 2.322-4.512 4.879-5.103 0.531-0.123 1.714-0.157 2.288-0.066 1.336 0.212 2.488 0.796 3.434 1.741 1.672 1.67 2.245 4.107 1.494 6.355z"></path>
</svg>
