<!-- Generated by IcoMoon.io -->
<svg version="1.1" xmlns="http://www.w3.org/2000/svg" width="32" height="32" viewBox="0 0 32 32">
<title>Piazza1</title>
<path d="M22.427 4.797c-1.419-1.417-3.147-2.293-5.151-2.611-0.861-0.137-2.636-0.086-3.432 0.098-3.836 0.887-6.701 3.883-7.319 7.655-0.080 0.489-0.095 2.010-0.095 10.094h-0v9.518h3.263v-5.503c0-6.28-0.065-5.72 0.603-5.221 0.988 0.739 2.255 1.328 3.469 1.613 1.021 0.24 2.576 0.283 3.638 0.101 0.991-0.17 1.802-0.442 2.723-0.916 0.934-0.481 1.654-1.021 2.43-1.823 1.001-1.035 1.66-2.119 2.111-3.471 1.126-3.373 0.267-7.028-2.241-9.533zM21.574 12.995c-0.46 1.752-1.622 3.152-3.245 3.907-0.721 0.336-1.176 0.464-1.948 0.552-0.317 0.036-0.633 0.062-0.704 0.057-2.344-0.144-4.235-1.359-5.239-3.364-0.758-1.514-0.814-3.404-0.147-4.947 0.317-0.733 0.586-1.154 1.084-1.695 0.776-0.843 1.658-1.395 2.78-1.739 0.51-0.156 0.659-0.173 1.618-0.176 0.918-0.003 1.122 0.015 1.568 0.143 2.132 0.613 3.742 2.276 4.265 4.404 0.205 0.835 0.192 2.004-0.031 2.857z"></path>
</svg>
