<!-- Generated by IcoMoon.io -->
<svg version="1.1" xmlns="http://www.w3.org/2000/svg" width="32" height="32" viewBox="0 0 32 32">
<title>PlataformaLattes1</title>
<path d="M7.996 27.183c-2.944-6.031-4.695-9.674-4.695-9.764 0-0.148 0.18-0.127 1.948 0.22 3.11 0.611 4.772 0.783 7.542 0.784 3.665 0.001 6.65-0.579 8.969-1.746 1.227-0.617 1.965-1.164 2.569-1.905 0.744-0.913 0.983-1.542 0.992-2.601 0.008-1.007-0.128-1.538-0.711-2.77-0.231-0.487-0.433-1.046-0.452-1.242-0.030-0.316-0.004-0.361 0.228-0.388 0.508-0.060 3.018 2.376 3.942 3.827 1.593 2.502 1.722 5.208 0.374 7.826-0.828 1.608-1.744 2.721-3.276 3.985-2.547 2.1-5.508 3.563-9.596 4.741-2.196 0.633-5.747 1.401-6.478 1.401-0.155 0-0.446-0.508-1.353-2.368l-0.002 0.001zM8.816 17.456c-2.86-0.37-5.259-0.693-5.333-0.716-0.127-0.041-0.582-1.557-0.838-2.792-0.065-0.312-0.159-1.14-0.211-1.84-0.231-3.123 0.449-5.283 2.27-7.225 3.084-3.285 9.686-3.685 17.135-1.037 1.307 0.465 1.827 0.788 1.587 0.99-0.178 0.149-1.382 0.146-3.463-0.006-3.253-0.239-5.729 0.213-7.005 1.282-1.943 1.626-1.647 5.191 0.86 10.334 0.271 0.557 0.545 1.102 0.607 1.213 0.145 0.255 0.040 0.492-0.213 0.48-0.108-0.005-2.536-0.312-5.395-0.683zM18.409 14.658c-2.282-0.41-4.334-1.826-4.996-3.444-0.318-0.778-0.303-1.792 0.037-2.4 0.307-0.549 1.1-1.185 1.809-1.451 1.181-0.443 3.25-0.266 4.758 0.407 1.431 0.639 2.7 1.762 3.172 2.807 0.605 1.341 0.101 2.837-1.196 3.551-0.86 0.473-2.53 0.719-3.585 0.53h0.001z"></path>
</svg>
