<!-- Generated by IcoMoon.io -->
<svg version="1.1" xmlns="http://www.w3.org/2000/svg" width="28" height="32" viewBox="0 0 28 32">
<title>PlataformaLattes</title>
<path d="M25.932 3.618c-1.006-1.007-2.218-1.51-3.636-1.51h-17.151c-1.418 0-2.628 0.503-3.636 1.51-1.007 1.005-1.51 2.218-1.51 3.636v17.151c0 1.418 0.503 2.631 1.51 3.638 1.007 1.003 2.22 1.508 3.636 1.508h17.151c1.418 0 2.63-0.505 3.636-1.51 1.007-1.007 1.511-2.218 1.511-3.636v-17.151c0-1.418-0.504-2.631-1.511-3.636zM3.54 13.039c-0.173-2.343 0.337-3.962 1.703-5.419 2.313-2.464 7.264-2.763 12.851-0.778 0.981 0.349 1.37 0.591 1.19 0.742-0.133 0.112-1.036 0.11-2.597-0.005-2.439-0.179-4.296 0.16-5.254 0.961-1.457 1.22-1.235 3.893 0.645 7.751 0.204 0.418 0.409 0.826 0.456 0.91 0.109 0.191 0.030 0.369-0.16 0.36-0.081-0.004-1.902-0.234-4.046-0.512s-3.944-0.519-4-0.537c-0.095-0.031-0.436-1.168-0.628-2.094-0.049-0.234-0.12-0.854-0.158-1.38zM11.775 12.368c-0.238-0.583-0.227-1.344 0.027-1.8 0.23-0.412 0.825-0.889 1.357-1.088 0.886-0.332 2.438-0.2 3.569 0.305 1.074 0.479 2.025 1.322 2.379 2.105 0.454 1.006 0.076 2.128-0.897 2.663-0.645 0.355-1.898 0.54-2.689 0.397h0.001c-1.712-0.308-3.251-1.369-3.747-2.583zM23.242 18.524c-0.621 1.206-1.308 2.040-2.457 2.989-1.91 1.575-4.131 2.672-7.197 3.556-1.647 0.475-4.31 1.051-4.859 1.051-0.116 0-0.334-0.381-1.015-1.776l-0.002 0.001c-2.208-4.524-3.521-7.255-3.521-7.323 0-0.111 0.135-0.095 1.461 0.165 2.333 0.458 3.579 0.587 5.657 0.588 2.749 0.001 4.987-0.435 6.726-1.309 0.92-0.463 1.473-0.873 1.927-1.429 0.558-0.685 0.738-1.157 0.744-1.951 0.006-0.755-0.096-1.154-0.533-2.078-0.173-0.365-0.325-0.784-0.339-0.931-0.023-0.237-0.003-0.271 0.171-0.291 0.381-0.045 2.263 1.782 2.956 2.87 1.195 1.877 1.292 3.906 0.28 5.869z"></path>
</svg>
