<!-- Generated by IcoMoon.io -->
<svg version="1.1" xmlns="http://www.w3.org/2000/svg" width="27" height="32" viewBox="0 0 27 32">
<title>Publons1</title>
<path d="M15.801 8.854c-0.504-0.499-1.244-0.729-1.943-0.626-0.737 0.101-1.443 0.495-1.877 1.104-0.016 1.925-0.001 3.851-0.008 5.776-0.006 0.442 0.114 0.912 0.439 1.23 0.379 0.327 0.828 0.582 1.324 0.68 0.638 0.127 1.343 0.167 1.931-0.161 0.696-0.373 1.117-1.103 1.324-1.843 0.33-1.189 0.264-2.451 0.028-3.65-0.198-0.913-0.535-1.845-1.217-2.51zM25.932 3.618c-1.006-1.007-2.218-1.51-3.636-1.51h-17.151c-1.418 0-2.628 0.503-3.636 1.51-1.007 1.005-1.51 2.218-1.51 3.636v17.151c0 1.418 0.503 2.631 1.51 3.638 1.007 1.003 2.22 1.508 3.636 1.508h17.151c1.418 0 2.63-0.505 3.636-1.51 1.007-1.007 1.511-2.218 1.511-3.636v-17.151c0-1.418-0.504-2.631-1.511-3.636zM19.344 14.596c-0.505 1.212-1.398 2.279-2.562 2.904-0.924 0.507-2.003 0.714-3.051 0.613-0.603-0.053-1.204-0.183-1.758-0.433 0.005 1.338 0.025 2.675 0.039 4.012 0.022 0.602-0.022 1.211 0.097 1.805 0.040 0.159 0.092 0.339 0.24 0.43 0.149 0.083 0.327 0.059 0.491 0.064 0.281 0.003 0.563-0.010 0.844 0.005 0.089 0 0.194 0.049 0.196 0.152 0.016 0.232 0.018 0.468-0.002 0.7-0.023 0.129-0.184 0.128-0.286 0.128-1.301-0.079-2.604-0.102-3.907-0.076-0.682 0.008-1.363 0.057-2.044 0.075-0.033-0.041-0.098-0.069-0.098-0.129-0.010-0.218-0.003-0.436-0.004-0.653-0.006-0.082 0.028-0.188 0.126-0.192 0.365-0.032 0.733 0.009 1.099-0.019 0.244-0.044 0.372-0.294 0.411-0.517 0.077-0.474 0.046-0.956 0.070-1.434 0.001-3.782 0-7.564 0.001-11.346-0-0.104-0.004-0.208-0.014-0.311-0.022-0.312-0.151-0.621-0.396-0.823-0.272-0.235-0.607-0.378-0.918-0.553-0.118-0.072-0.264-0.133-0.322-0.267-0.018-0.136-0.020-0.277 0.002-0.412 0.065-0.101 0.192-0.126 0.294-0.175 0.963-0.418 1.923-0.844 2.887-1.263 0.224-0.091 0.452-0.195 0.697-0.2 0.099-0.016 0.154 0.077 0.212 0.138 0.112 0.491 0.142 0.997 0.237 1.492 0.2-0.229 0.415-0.445 0.658-0.629 1.13-0.87 2.666-1.233 4.052-0.85 0.922 0.253 1.695 0.88 2.281 1.62 0.246 0.32 0.466 0.663 0.619 1.037 0.277 0.658 0.362 1.379 0.365 2.088 0.018 1.028-0.158 2.066-0.558 3.016z"></path>
</svg>
