<!-- Generated by IcoMoon.io -->
<svg version="1.1" xmlns="http://www.w3.org/2000/svg" width="32" height="32" viewBox="0 0 32 32">
<title>Publons</title>
<path d="M24.731 6.323c-0.23-0.561-0.56-1.077-0.928-1.556-0.878-1.109-2.038-2.050-3.422-2.43-2.079-0.575-4.383-0.030-6.078 1.275-0.364 0.276-0.688 0.599-0.987 0.943-0.143-0.742-0.188-1.501-0.356-2.237-0.086-0.092-0.169-0.231-0.318-0.208-0.369 0.007-0.711 0.162-1.046 0.299-1.445 0.628-2.886 1.267-4.33 1.894-0.153 0.073-0.343 0.11-0.441 0.262-0.032 0.203-0.030 0.414-0.002 0.619 0.088 0.2 0.306 0.292 0.483 0.4 0.466 0.262 0.968 0.477 1.377 0.83 0.367 0.302 0.561 0.767 0.595 1.234 0.015 0.155 0.020 0.31 0.020 0.466-0.001 5.673 0.001 11.346-0.001 17.018-0.037 0.717 0.010 1.44-0.105 2.151-0.059 0.335-0.251 0.709-0.617 0.775-0.548 0.042-1.101-0.020-1.648 0.028-0.146 0.006-0.198 0.165-0.189 0.287 0.001 0.326-0.009 0.653 0.006 0.98-0.001 0.090 0.097 0.132 0.147 0.193 1.022-0.027 2.044-0.101 3.066-0.113 1.954-0.038 3.91-0.004 5.861 0.114 0.153 0.001 0.395 0.003 0.429-0.191 0.030-0.349 0.026-0.703 0.003-1.051-0.003-0.155-0.16-0.228-0.294-0.228-0.422-0.022-0.844-0.003-1.267-0.007-0.246-0.006-0.513 0.030-0.736-0.095-0.223-0.136-0.301-0.407-0.361-0.645-0.178-0.891-0.112-1.805-0.145-2.708-0.022-2.006-0.052-4.012-0.059-6.018 0.83 0.374 1.732 0.569 2.636 0.649 1.571 0.151 3.19-0.16 4.576-0.92 1.746-0.938 3.086-2.538 3.843-4.357 0.599-1.426 0.863-2.982 0.837-4.524-0.005-1.063-0.132-2.144-0.547-3.131zM20.911 14.607c-0.311 1.109-0.942 2.205-1.986 2.764-0.881 0.491-1.94 0.431-2.896 0.241-0.743-0.147-1.417-0.529-1.986-1.020-0.486-0.476-0.667-1.181-0.658-1.844 0.009-2.888-0.013-5.777 0.011-8.664 0.652-0.914 1.711-1.505 2.816-1.656 1.049-0.154 2.159 0.191 2.915 0.939 1.024 0.998 1.529 2.396 1.826 3.765 0.354 1.799 0.453 3.692-0.042 5.475z"></path>
</svg>
