<!-- Generated by IcoMoon.io -->
<svg version="1.1" xmlns="http://www.w3.org/2000/svg" width="32" height="32" viewBox="0 0 32 32">
<title>PubMed1</title>
<path d="M10.876 10.236c0.214-7.174-3.996-8.128-3.996-8.128v2.234c-1.675-0.833-3.284-0.953-3.284-0.953v18.236c0 0 7.011-0.816 7.011 6.032 0 0 2.614-10.961 17.784 1.892 0-4.402 0.027-15.503 0.027-19.173-13.986-10.19-17.543-0.141-17.543-0.141zM24.255 22.658l-0.884-6.979h-0.032l-2.911 6.979h-1.255l-2.782-6.979h-0.032l-1.013 6.979h-3.135l2.058-12.122h3.103l2.461 6.478 2.606-6.478h3.135l1.835 12.122h-3.154z"></path>
</svg>
