<!-- Generated by IcoMoon.io -->
<svg version="1.1" xmlns="http://www.w3.org/2000/svg" width="27" height="32" viewBox="0 0 27 32">
<title>PubMed</title>
<path d="M12.562 12.301l-1.372 8.081h2.090l0.675-4.652h0.021l1.855 4.652h0.837l1.94-4.652h0.021l0.59 4.652h2.103l-1.224-8.081h-2.090l-1.737 4.319-1.641-4.319h-2.069zM25.932 3.618c-1.006-1.007-2.218-1.51-3.636-1.51h-17.151c-1.418 0-2.628 0.503-3.636 1.51-1.007 1.005-1.51 2.218-1.51 3.636v17.151c0 1.418 0.503 2.631 1.51 3.638 1.007 1.003 2.22 1.508 3.636 1.508h17.151c1.418 0 2.63-0.505 3.636-1.51 1.007-1.007 1.511-2.218 1.511-3.636v-17.151c0-1.418-0.504-2.631-1.511-3.636zM21.978 24.976c-10.113-8.569-11.856-1.262-11.856-1.262 0-4.565-4.674-4.021-4.674-4.021v-12.157c0 0 1.072 0.080 2.189 0.635v-1.489c0 0 2.807 0.636 2.664 5.419 0 0 2.371-6.699 11.695 0.094 0 2.446-0.018 9.847-0.018 12.782z"></path>
</svg>
