<!-- Generated by IcoMoon.io -->
<svg version="1.1" xmlns="http://www.w3.org/2000/svg" width="27" height="32" viewBox="0 0 27 32">
<title>ResearcherID1</title>
<path d="M15.781 13.508c0.233-0.366 0.349-0.853 0.349-1.46 0-0.582-0.116-1.050-0.349-1.404s-0.549-0.597-0.948-0.73c-0.283-0.091-1.102-0.137-2.458-0.137h-2.371v4.642h2.246c1.373 0 2.246-0.060 2.621-0.181s0.678-0.364 0.911-0.73zM25.932 3.618c-1.006-1.007-2.218-1.51-3.636-1.51h-17.151c-1.418 0-2.628 0.503-3.636 1.51-1.007 1.005-1.51 2.218-1.51 3.636v17.151c0 1.418 0.503 2.631 1.51 3.638 1.007 1.003 2.22 1.508 3.636 1.508h17.151c1.418 0 2.63-0.505 3.636-1.51 1.007-1.007 1.511-2.218 1.511-3.636v-17.151c0-1.418-0.504-2.631-1.511-3.636zM16.846 24.976l-2.191-3.981c-0.789-1.439-1.325-2.34-1.608-2.702s-0.582-0.611-0.899-0.749-0.824-0.206-1.522-0.206h-0.624v7.637h-3.020v-18.295h6.377c1.631 0 2.795 0.164 3.494 0.493s1.273 0.899 1.722 1.71 0.674 1.782 0.674 2.914c0 1.431-0.343 2.583-1.030 3.457s-1.662 1.423-2.926 1.647c0.649 0.466 1.186 0.975 1.61 1.529s1.003 1.545 1.735 2.976l1.822 3.569h-3.614z"></path>
</svg>
