<!-- Generated by IcoMoon.io -->
<svg version="1.1" xmlns="http://www.w3.org/2000/svg" width="32" height="32" viewBox="0 0 32 32">
<title>ResearcherID</title>
<path d="M5.9 29.55v-27.442h9.566c2.446 0 4.193 0.247 5.241 0.74s1.91 1.348 2.583 2.565 1.011 2.673 1.011 4.371c0 2.146-0.515 3.875-1.545 5.185s-2.493 2.134-4.39 2.471c0.973 0.699 1.778 1.464 2.415 2.293 0.637 0.83 1.504 2.318 2.602 4.465l2.732 5.352h-5.42l-3.286-5.971c-1.183-2.159-1.987-3.51-2.411-4.052s-0.874-0.917-1.348-1.123c-0.475-0.206-1.235-0.309-2.283-0.309h-0.938v11.455h-4.529zM10.429 13.714h3.37c2.059 0 3.37-0.090 3.931-0.271s1.017-0.545 1.366-1.095c0.35-0.549 0.524-1.279 0.524-2.19 0-0.874-0.175-1.576-0.524-2.106s-0.823-0.895-1.422-1.095c-0.424-0.137-1.653-0.206-3.688-0.206h-3.557v6.963z"></path>
</svg>
