<!-- Generated by IcoMoon.io -->
<svg version="1.1" xmlns="http://www.w3.org/2000/svg" width="32" height="32" viewBox="0 0 32 32" fill="currentColor" stroke="none">
<title>ResearchGate</title>
<path d="M18.675 26.897c-1.469-1.599-3.436-4.167-5.072-7.070 2.702-0.632 4.703-3.169 4.703-5.704 0-3.736-2.902-5.47-6.706-5.47-1.966 0-3.535 0.099-5 0.099-1.337 0-2.672 0-3.504-0.032v0.968l1.266 0.232c0.871 0.168 1.367 0.565 1.367 2.635v13.142c0 2.069-0.496 2.469-1.367 2.634l-1.266 0.237v0.965c0.9-0.032 2.468-0.098 4.037-0.098 1.501 0 3.436 0.066 4.27 0.098v-0.965l-1.735-0.237c-0.9-0.131-1.369-0.565-1.369-2.634v-5.57c0.801 0.067 1.501 0.067 2.571 0.067 2.034 3.635 3.969 6.371 5.068 7.638 1.003 1.203 2.536 1.969 4.471 1.969 0.566 0 1.166-0.099 1.532-0.268v-0.865c-1.2 0-2.401-0.835-3.265-1.77zM10.701 18.692c-1.135 0-1.632-0.030-2.402-0.103v-8.369c0.769-0.067 1.801-0.067 2.702-0.067 2.804 0 4.47 1.47 4.47 4.136 0 2.635-1.8 4.403-4.77 4.403zM20.883 10.273c-0.034-0.175-0.064-0.38-0.090-0.615-0.028-0.238-0.046-0.517-0.057-0.846-0.011-0.327-0.016-0.727-0.016-1.185 0-0.46 0.004-0.854 0.016-1.183 0.011-0.329 0.029-0.612 0.057-0.848 0.027-0.235 0.057-0.44 0.090-0.615 0.032-0.176 0.075-0.344 0.13-0.508 0.287-0.868 0.757-1.52 1.415-1.958 0.657-0.438 1.462-0.658 2.417-0.658 0.491 0 0.937 0.057 1.332 0.173 0.391 0.115 0.741 0.274 1.051 0.477 0.305 0.201 0.568 0.438 0.786 0.706 0.223 0.269 0.403 0.556 0.544 0.864 0.055 0.098 0.039 0.176-0.048 0.231l-1.214 0.499c-0.103 0.055-0.175 0.027-0.232-0.082-0.272-0.505-0.505-0.836-0.887-1.077-0.386-0.24-0.744-0.354-1.332-0.354-0.64 0-0.926 0.127-1.326 0.414-0.398 0.281-0.689 0.635-0.861 1.175-0.035 0.097-0.066 0.218-0.103 0.36-0.030 0.144-0.055 0.321-0.070 0.527s-0.030 0.462-0.044 0.764c-0.009 0.302-0.013 0.668-0.013 1.092 0 0.426 0.004 0.793 0.013 1.094 0.013 0.3 0.028 0.556 0.044 0.763 0.016 0.209 0.040 0.384 0.070 0.529 0.037 0.14 0.068 0.26 0.103 0.358 0.172 0.537 0.418 0.831 0.779 1.066 0.357 0.239 0.768 0.411 1.408 0.411 0.568 0 1.089-0.162 1.428-0.409 0.336-0.247 0.615-0.573 0.74-1.018 0.055-0.188 0.125-0.421 0.173-0.707 0.044-0.286 0.044-0.588 0.044-1.006 0-0.066-0.037-0.1-0.098-0.1h-1.944c-0.109 0-0.163-0.054-0.163-0.163v-1.114c0-0.111 0.054-0.164 0.163-0.164h3.568c0.112 0 0.164 0.054 0.164 0.164v0.952c0 0.505 0 0.973-0.052 1.406-0.050 0.433-0.118 0.808-0.204 1.082-0.272 0.857-0.705 1.466-1.367 1.921-0.664 0.458-1.521 0.705-2.451 0.705-0.956 0-1.761-0.22-2.417-0.657-0.658-0.442-1.128-1.091-1.415-1.959-0.055-0.164-0.097-0.333-0.13-0.509z"></path>
</svg>
