<!-- Generated by IcoMoon.io -->
<svg version="1.1" xmlns="http://www.w3.org/2000/svg" width="27" height="32" viewBox="0 0 27 32">
<title>ResearchGate1</title>
<path d="M25.932 3.618c-1.007-1.007-2.218-1.51-3.636-1.51h-17.151c-1.418 0-2.628 0.503-3.636 1.51-1.007 1.005-1.51 2.218-1.51 3.636v17.151c0 1.418 0.503 2.631 1.51 3.638 1.007 1.003 2.22 1.508 3.636 1.508h17.151c1.418 0 2.628-0.505 3.636-1.51 1.007-1.007 1.51-2.218 1.51-3.636v-17.151c0-1.418-0.503-2.631-1.51-3.636zM18.093 24.78c-0.27 0.123-0.712 0.197-1.13 0.197-1.425 0-2.555-0.565-3.292-1.451-0.811-0.932-2.237-2.947-3.735-5.625-0.786 0-1.302 0-1.892-0.049v4.104c0 1.523 0.344 1.843 1.007 1.941l1.277 0.172v0.712c-0.614-0.025-2.039-0.073-3.146-0.073-1.155 0-2.309 0.048-2.972 0.073v-0.712l0.934-0.172c0.64-0.123 1.007-0.418 1.007-1.941v-9.681c0-1.523-0.367-1.817-1.007-1.941l-0.934-0.172v-0.712c0.614 0.025 1.597 0.025 2.581 0.025 1.080 0 2.235-0.074 3.685-0.074 2.802 0 4.939 1.277 4.939 4.029 0 1.867-1.474 3.735-3.464 4.202 1.204 2.137 2.653 4.030 3.734 5.209 0.639 0.687 1.523 1.302 2.407 1.302v0.639zM23.231 9.128c0 0.372-0.001 0.717-0.038 1.035-0.036 0.318-0.086 0.596-0.151 0.798-0.202 0.63-0.519 1.079-1.008 1.414-0.488 0.336-1.119 0.518-1.804 0.518-0.702 0-1.296-0.162-1.78-0.483-0.485-0.324-0.831-0.804-1.042-1.442-0.040-0.121-0.073-0.247-0.096-0.376-0.025-0.128-0.047-0.279-0.067-0.453-0.020-0.173-0.035-0.381-0.042-0.623-0.008-0.241-0.011-0.534-0.011-0.872s0.003-0.629 0.011-0.871c0.008-0.242 0.022-0.45 0.042-0.624 0.020-0.173 0.042-0.325 0.067-0.453 0.023-0.13 0.056-0.255 0.096-0.375 0.211-0.638 0.557-1.118 1.042-1.441s1.078-0.485 1.78-0.485c0.363 0 0.69 0.042 0.98 0.126 0.29 0.086 0.548 0.202 0.775 0.352s0.42 0.323 0.581 0.521c0.162 0.198 0.295 0.409 0.4 0.634 0.040 0.074 0.028 0.131-0.037 0.171l-0.894 0.37c-0.073 0.040-0.128 0.019-0.17-0.060-0.201-0.372-0.372-0.617-0.654-0.794-0.283-0.179-0.545-0.26-0.98-0.26-0.469 0-0.681 0.091-0.976 0.303-0.295 0.21-0.507 0.47-0.635 0.865-0.025 0.073-0.049 0.161-0.074 0.267-0.024 0.104-0.041 0.235-0.054 0.386-0.012 0.153-0.022 0.341-0.031 0.563-0.007 0.222-0.011 0.491-0.011 0.805 0 0.315 0.004 0.584 0.011 0.806 0.009 0.221 0.019 0.409 0.031 0.562 0.012 0.154 0.030 0.284 0.054 0.389 0.024 0.104 0.049 0.192 0.074 0.266 0.128 0.396 0.309 0.611 0.574 0.785 0.263 0.175 0.568 0.304 1.037 0.304 0.419 0 0.803-0.12 1.052-0.301s0.453-0.421 0.547-0.752c0.040-0.137 0.093-0.31 0.126-0.52 0.031-0.21 0.031-0.434 0.031-0.74 0-0.048-0.025-0.074-0.073-0.074h-1.43c-0.080 0-0.121-0.039-0.121-0.121v-0.82c0-0.082 0.040-0.121 0.121-0.121h2.627c0.082 0 0.121 0.039 0.121 0.121v0.701zM13.326 13.552c0-1.966-1.228-3.047-3.292-3.047-0.663 0-1.425 0-1.99 0.049v6.166c0.565 0.051 0.934 0.074 1.769 0.074 2.186 0 3.513-1.301 3.513-3.241z"></path>
</svg>
