<!-- Generated by IcoMoon.io -->
<svg version="1.1" xmlns="http://www.w3.org/2000/svg" width="27" height="32" viewBox="0 0 27 32">
<title>Scirate1</title>
<path d="M25.932 3.618c-1.007-1.007-2.218-1.51-3.636-1.51h-17.151c-1.418 0-2.628 0.503-3.636 1.51-1.007 1.005-1.51 2.218-1.51 3.636v17.151c0 1.418 0.503 2.631 1.51 3.638 1.007 1.003 2.22 1.508 3.636 1.508h17.151c1.418 0 2.628-0.505 3.636-1.51 1.007-1.007 1.51-2.218 1.51-3.636v-17.151c0-1.418-0.503-2.631-1.51-3.636zM4.272 14.536v-3.112c0-1.265-0.107-2.077-0.326-2.431-0.218-0.353-0.611-0.528-1.175-0.528h-0.485v-0.677c0.202-0.036 0.417-0.064 0.648-0.084 0.231-0.017 0.48-0.027 0.753-0.027 1.244 0 2.136 0.35 2.67 1.048 0.536 0.698 0.802 1.899 0.802 3.607v2.507c0 1.836 0.307 3.091 0.918 3.765 0.37 0.409 0.948 0.695 1.698 0.89 0 0.323 0 0.582 0 0.922-1.573-0.236-2.809-0.728-3.707-1.482-1.199-1.005-1.796-2.472-1.796-4.4zM18.229 24.612h-9.046v-0.533c1.197-0.025 1.984-0.186 2.364-0.487 0.381-0.298 0.568-0.926 0.568-1.877v-11.786c0-0.909-0.188-1.517-0.568-1.826-0.38-0.306-1.167-0.482-2.364-0.526v-0.534h9.076v0.534c-1.176 0.044-1.959 0.22-2.344 0.526-0.384 0.308-0.575 0.917-0.575 1.826v11.786c0 0.907 0.198 1.524 0.583 1.843 0.389 0.323 1.169 0.497 2.336 0.521l-0.030 0.533zM25.155 8.465h-0.485c-0.564 0-0.957 0.175-1.175 0.528-0.219 0.354-0.326 1.166-0.326 2.431v3.112c0 1.927-0.596 3.395-1.796 4.4-0.898 0.754-2.134 1.246-3.707 1.482 0-0.341 0-0.6 0-0.922 0.75-0.195 1.329-0.481 1.698-0.89 0.611-0.674 0.918-1.93 0.918-3.765v-2.507c0-1.707 0.266-2.909 0.802-3.607 0.534-0.699 1.426-1.048 2.67-1.048 0.272 0 0.521 0.010 0.753 0.027 0.231 0.020 0.445 0.048 0.648 0.084v0.677z"></path>
</svg>
