<!-- Generated by IcoMoon.io -->
<svg version="1.1" xmlns="http://www.w3.org/2000/svg" width="32" height="32" viewBox="0 0 32 32">
<title>Scirate</title>
<path d="M9.234 20.054c-0.733-0.81-1.101-2.316-1.101-4.518v-3.008c0-2.049-0.319-3.491-0.963-4.328-0.641-0.84-1.711-1.258-3.204-1.258-0.327 0-0.626 0.012-0.903 0.032-0.277 0.023-0.535 0.057-0.777 0.101v0.812h0.582c0.677 0 1.148 0.21 1.409 0.633 0.262 0.425 0.392 1.399 0.392 2.918v3.734c0 2.313 0.715 4.073 2.154 5.279 1.078 0.904 2.56 1.495 4.449 1.779 0-0.409 0-0.72 0-1.108-0.9-0.235-1.595-0.577-2.038-1.067zM22.781 20.054c0.733-0.81 1.101-2.316 1.101-4.518v-3.008c0-2.049 0.319-3.491 0.963-4.328 0.641-0.84 1.711-1.258 3.204-1.258 0.327 0 0.626 0.012 0.903 0.032 0.277 0.023 0.535 0.057 0.777 0.101v0.812h-0.582c-0.677 0-1.148 0.21-1.409 0.633-0.262 0.425-0.392 1.399-0.392 2.918v3.734c0 2.313-0.715 4.073-2.154 5.279-1.078 0.904-2.56 1.495-4.449 1.779 0-0.409 0-0.72 0-1.108 0.9-0.235 1.595-0.577 2.038-1.067zM18.641 7.453c0.462-0.367 1.401-0.578 2.813-0.631v-0.641h-10.891v0.641c1.437 0.053 2.382 0.264 2.837 0.631 0.457 0.37 0.681 1.1 0.681 2.191v14.143c0 1.142-0.224 1.895-0.681 2.252-0.456 0.361-1.4 0.555-2.837 0.585v0.639h10.855l0.037-0.639c-1.4-0.030-2.337-0.239-2.804-0.626-0.462-0.382-0.699-1.122-0.699-2.211v-14.143c0-1.091 0.229-1.821 0.69-2.191z"></path>
</svg>
