<!-- Generated by IcoMoon.io -->
<svg version="1.1" xmlns="http://www.w3.org/2000/svg" width="27" height="32" viewBox="0 0 27 32">
<title>SemanticScholar</title>
<path d="M25.932 3.575c-1.006-1.007-2.218-1.51-3.636-1.51h-17.151c-1.418 0-2.628 0.503-3.636 1.51-1.007 1.005-1.51 2.218-1.51 3.636v17.151c0 1.418 0.503 2.631 1.51 3.638 1.007 1.003 2.22 1.508 3.636 1.508h17.151c1.418 0 2.63-0.505 3.636-1.51 1.007-1.007 1.511-2.218 1.511-3.636v-17.151c0-1.418-0.504-2.631-1.511-3.636zM19.949 6.682c0.919 2.058 1.292 4.244 1.64 6.436-0.064 0.018-0.128 0.037-0.192 0.055-0.046-0.128-0.1-0.254-0.137-0.385-0.264-0.944-0.53-1.887-0.783-2.834-0.091-0.341-0.305-0.51-0.612-0.677-0.45-0.245-0.876-0.561-1.249-0.913-0.238-0.225-0.442-0.362-0.78-0.358-2.249 0.024-4.499 0.026-6.748 0.047-0.15 0.002-0.335 0.057-0.442 0.155-0.409 0.379-0.793 0.785-1.297 1.293 1.331 3.24 2 6.772 1.712 10.526-0.639-0.409-1.133-0.733-1.163-1.59-0.147-4.283-1.468-8.157-4.229-11.49-0.062-0.075-0.093-0.176-0.138-0.265h14.417zM3.235 8.334c0.641 0 1.282-0.010 1.922 0.009 0.127 0.004 0.305 0.084 0.368 0.186 1.914 3.076 3.407 6.306 3.6 10.002 0.001 0.015-0.014 0.030-0.069 0.137-1.144-3.911-3.208-7.222-5.862-10.189 0.014-0.048 0.028-0.096 0.041-0.145zM1.174 11.024c0.915-0.033 1.689-0.067 2.463-0.081 0.078-0.002 0.17 0.102 0.235 0.174 1.51 1.68 2.881 3.455 3.725 5.577 0.161 0.404 0.271 0.828 0.404 1.242-1.75-2.754-4.185-4.813-6.828-6.913zM11.014 24.976c-1.593-2.533-3.127-4.973-4.661-7.413 0.019-0.024 0.038-0.048 0.056-0.072 0.129 0.104 2.865 2.298 4.094 3.304 0.342 0.28 0.601 0.275 0.957-0.014 4.178-3.394 8.841-5.963 13.791-8.035 0.264-0.111 0.538-0.198 0.809-0.294 0.060-0.021 0.123-0.033 0.21-0.011-5.749 3.339-11.233 6.994-15.255 12.535z"></path>
</svg>
