<!-- Generated by IcoMoon.io -->
<svg version="1.1" xmlns="http://www.w3.org/2000/svg" width="32" height="32" viewBox="0 0 32 32">
<title>SemanticScholar1</title>
<path d="M12.8 26.623c4.765-6.564 11.262-10.895 18.072-14.85-0.103-0.026-0.178-0.012-0.249 0.013-0.32 0.114-0.645 0.218-0.958 0.349-5.865 2.454-11.388 5.498-16.338 9.519-0.422 0.343-0.728 0.349-1.134 0.016-1.456-1.192-2.927-2.366-4.392-3.546-0.152-0.123-0.305-0.245-0.457-0.368-0.022 0.029-0.045 0.057-0.067 0.086 1.818 2.891 3.635 5.781 5.522 8.782zM3.584 6.906c-0.016 0.057-0.033 0.114-0.049 0.171 3.145 3.516 5.59 7.438 6.945 12.071 0.065-0.127 0.083-0.146 0.082-0.163-0.229-4.378-1.997-8.205-4.265-11.849-0.075-0.121-0.286-0.216-0.436-0.221-0.758-0.022-1.518-0.010-2.277-0.010zM9.233 18.283c-0.158-0.491-0.288-0.994-0.479-1.472-1.001-2.515-2.624-4.617-4.413-6.607-0.077-0.086-0.186-0.208-0.279-0.206-0.917 0.017-1.834 0.057-2.919 0.096 3.132 2.488 6.016 4.927 8.089 8.189zM23.385 4.949c1.089 2.438 1.53 5.028 1.943 7.625-0.076 0.022-0.152 0.043-0.227 0.065-0.055-0.152-0.119-0.301-0.162-0.456-0.313-1.118-0.628-2.236-0.927-3.357-0.108-0.403-0.362-0.604-0.725-0.802-0.534-0.29-1.038-0.664-1.48-1.082-0.282-0.266-0.524-0.429-0.924-0.424-2.665 0.028-5.33 0.031-7.995 0.055-0.177 0.002-0.397 0.067-0.523 0.184-0.485 0.449-0.939 0.93-1.537 1.532 1.576 3.838 2.369 8.022 2.029 12.47-0.757-0.485-1.343-0.868-1.377-1.883-0.174-5.074-1.739-9.664-5.010-13.612-0.074-0.089-0.11-0.208-0.164-0.314 5.693 0 11.386 0 17.080 0zM12.8 26.623c-1.887-3.001-3.704-5.891-5.522-8.782 0.022-0.029 0.045-0.057 0.067-0.086 0.152 0.123 3.394 2.722 4.849 3.914 0.406 0.332 0.712 0.326 1.134-0.016 4.95-4.021 10.473-7.064 16.338-9.519 0.313-0.131 0.638-0.235 0.958-0.349 0.071-0.025 0.146-0.039 0.249-0.013-6.81 3.955-13.307 8.286-18.073 14.85zM3.584 6.906c0.759 0 1.518-0.012 2.277 0.010 0.151 0.004 0.361 0.1 0.436 0.221 2.268 3.644 4.036 7.47 4.265 11.849 0.001 0.017-0.017 0.036-0.082 0.163-1.355-4.633-3.8-8.555-6.945-12.071 0.016-0.057 0.033-0.114 0.049-0.171zM9.233 18.283c-2.073-3.262-4.958-5.702-8.089-8.19 1.084-0.039 2.001-0.079 2.919-0.096 0.092-0.002 0.201 0.12 0.279 0.207 1.789 1.99 3.413 4.092 4.413 6.607 0.19 0.478 0.321 0.981 0.479 1.472z"></path>
</svg>
