<!-- Generated by IcoMoon.io -->
<svg version="1.1" xmlns="http://www.w3.org/2000/svg" width="27" height="32" viewBox="0 0 27 32">
<title>Springer1</title>
<path d="M14.264 8.788c0.025 0.259 0.025 0.466 0.025 0.671 0 0.31-0.025 0.568-0.025 0.568l-0.749-0.128c0.027-0.259 0.078-2.015-0.542-2.402 0 0 0 0.93-0.207 1.859l-0.697-0.129c0-0.645-0.284-0.904-0.671-1.085l0.181 1.265-0.439 0.646 0.207 0.594-1.368 0.465-0.387 1.11-2.401 3.305 0.904 1.084 1.007-0.852 0.232 0.154v1.265h0.542c0.232-0.903 0.981-1.962 1.678-2.479l-0.387-0.464 0.568-0.49 0.542 0.671c0 0 1.936 0 1.936-0.025 0.284-0.62 0.465-1.37 0.465-2.247h0.749c0 2.944-1.472 4.105-3.305 5.912-0.671 0.671-1.265 1.394-1.343 2.375h8.52c1.497-6.171-0.258-11.076-5.034-11.644zM8.326 15.837l-0.542-0.206c0.18-0.258 0.284-0.62 0.284-0.93l0.465 0.026c0.026 0.336-0.026 0.852-0.206 1.11zM10.339 12.481l-0.078-0.956 1.213-0.129 0.026 0.466-1.162 0.62zM25.932 3.618c-1.006-1.007-2.218-1.51-3.636-1.51h-17.151c-1.418 0-2.628 0.503-3.636 1.51-1.007 1.005-1.51 2.218-1.51 3.636v17.151c0 1.418 0.503 2.631 1.51 3.638 1.007 1.003 2.22 1.508 3.636 1.508h17.151c1.418 0 2.63-0.505 3.636-1.51 1.007-1.007 1.511-2.218 1.511-3.636v-17.151c0-1.418-0.504-2.631-1.511-3.636zM21.131 24.976h-12.16v-1.497h12.16v1.497zM21.157 21.155h-12.186v-0.749h1.033c0.181-2.427 2.504-3.329 3.795-5.292h-1.497c-0.723 0.258-1.807 1.86-1.807 2.788h-1.885l0.026-0.775-0.62 0.517-1.652-1.91c0 0-0.077-0.104-0.077-0.182 0-0.077 0.026-0.129 0.026-0.129l2.608-3.536 0.465-1.394 0.697-0.259 0.723-1.006-0.258-1.756c0.697-0.258 1.368-0.026 1.705 0.31 0.025-0.516-0.027-1.083-0.027-1.083 1.239-0.13 1.678 0.542 1.885 1.291 0.336 0.026 0.645 0.077 0.93 0.128 0.052-0.154 0.207-0.284 0.387-0.284 0.232 0 0.387 0.181 0.387 0.387v0.104c0.542 0.181 1.058 0.439 1.523 0.723 0.078-0.104 0.181-0.155 0.31-0.155 0.232 0 0.387 0.181 0.387 0.388 0 0.102-0.026 0.18-0.078 0.231 0.439 0.362 0.801 0.801 1.136 1.265 0.051-0.026 0.129-0.052 0.181-0.052 0.232 0 0.413 0.181 0.413 0.388 0 0.156-0.078 0.284-0.207 0.335 0.258 0.466 0.465 0.982 0.62 1.523 0.026-0.025 0.077-0.025 0.103-0.025 0.232 0 0.387 0.181 0.387 0.387s-0.129 0.362-0.284 0.388c0.103 0.541 0.181 1.084 0.232 1.652 0.232 0 0.413 0.18 0.413 0.388 0 0.232-0.181 0.386-0.387 0.413 0 0.542-0.026 1.136-0.078 1.704 0.207 0.026 0.361 0.206 0.361 0.413 0 0.206-0.181 0.387-0.413 0.387h-0.026c-0.103 0.568-0.207 1.136-0.336 1.73h1.084v0.749z"></path>
</svg>
