<!-- Generated by IcoMoon.io -->
<svg version="1.1" xmlns="http://www.w3.org/2000/svg" width="32" height="32" viewBox="0 0 32 32">
<title>Springer</title>
<path d="M25.535 22.695c0.193-0.891 0.348-1.743 0.503-2.594h0.038c0.349 0 0.62-0.271 0.62-0.581 0-0.311-0.232-0.581-0.542-0.62 0.077-0.852 0.116-1.743 0.116-2.556 0.31-0.040 0.581-0.271 0.581-0.619 0-0.311-0.271-0.582-0.62-0.582-0.077-0.852-0.193-1.666-0.348-2.478 0.232-0.039 0.426-0.271 0.426-0.581s-0.233-0.581-0.581-0.581c-0.039 0-0.116 0-0.155 0.038-0.232-0.811-0.542-1.586-0.929-2.284 0.194-0.078 0.31-0.27 0.31-0.503 0-0.31-0.271-0.582-0.62-0.582-0.078 0-0.194 0.039-0.271 0.078-0.504-0.697-1.046-1.354-1.704-1.898 0.078-0.078 0.116-0.194 0.116-0.347 0-0.311-0.233-0.582-0.581-0.582-0.194 0-0.348 0.078-0.465 0.233-0.697-0.426-1.472-0.813-2.285-1.084v-0.155c0-0.308-0.233-0.58-0.581-0.58-0.271 0-0.503 0.195-0.581 0.425-0.426-0.077-0.891-0.153-1.394-0.192-0.31-1.124-0.968-2.131-2.827-1.936 0 0 0.078 0.852 0.040 1.625-0.504-0.504-1.511-0.852-2.557-0.465l0.387 2.635-1.084 1.509-1.046 0.389-0.697 2.091-3.912 5.304c0 0-0.039 0.077-0.039 0.193 0 0.117 0.116 0.273 0.116 0.273l2.479 2.865 0.929-0.775-0.039 1.162h2.827c0-1.393 1.627-3.795 2.711-4.182h2.246c-1.936 2.944-5.422 4.298-5.693 7.938h-1.549v1.123h18.279v-1.123h-1.626zM24.373 22.734h-12.78c0.116-1.471 1.007-2.557 2.014-3.563 2.75-2.712 4.957-4.452 4.957-8.869h-1.123c0 1.316-0.271 2.44-0.697 3.371 0 0.038-2.905 0.038-2.905 0.038l-0.814-1.006-0.852 0.735 0.581 0.697c-1.046 0.774-2.169 2.363-2.517 3.718h-0.813v-1.898l-0.348-0.232-1.51 1.277-1.356-1.626 3.602-4.957 0.581-1.665 2.053-0.697-0.31-0.892 0.658-0.968-0.271-1.898c0.581 0.271 1.007 0.66 1.007 1.628l1.046 0.193c0.31-1.395 0.31-2.789 0.31-2.789 0.929 0.581 0.853 3.215 0.813 3.603l1.123 0.192c0 0 0.038-0.387 0.038-0.852 0-0.308 0-0.619-0.038-1.007 7.164 0.853 9.798 8.21 7.552 17.466zM10.935 10.807l-0.116-1.434 1.82-0.194 0.039 0.699-1.743 0.93zM8.882 27.305h18.241v2.245h-18.241v-2.245zM7.914 15.84l-0.813-0.309c0.271-0.388 0.426-0.929 0.426-1.395l0.697 0.039c0.039 0.504-0.039 1.278-0.31 1.665z"></path>
</svg>
