<!-- Generated by IcoMoon.io -->
<svg version="1.1" xmlns="http://www.w3.org/2000/svg" width="27" height="32" viewBox="0 0 27 32">
<title>Zotero</title>
<path d="M25.933 3.617c-1.006-1.007-2.218-1.509-3.636-1.509h-17.151c-1.418 0-2.629 0.502-3.636 1.509-1.007 1.005-1.509 2.218-1.509 3.636v17.151c0 1.418 0.502 2.631 1.509 3.638 1.007 1.003 2.221 1.507 3.636 1.507h17.151c1.418 0 2.63-0.504 3.636-1.509 1.007-1.007 1.51-2.217 1.51-3.636v-17.151c0-1.418-0.503-2.631-1.51-3.636zM20.774 9.284l-10.908 13.472h10.908v2.221h-14.104v-2.545l10.946-13.53h-10.028v-2.219h13.186v2.602z"></path>
</svg>
