<?xml version="1.0" encoding="UTF-8" standalone="no"?>
<!-- Created with Inkscape (http://www.inkscape.org/) -->

<svg
   xmlns:dc="http://purl.org/dc/elements/1.1/"
   xmlns:cc="http://creativecommons.org/ns#"
   xmlns:rdf="http://www.w3.org/1999/02/22-rdf-syntax-ns#"
   xmlns:svg="http://www.w3.org/2000/svg"
   xmlns="http://www.w3.org/2000/svg"
   xmlns:sodipodi="http://sodipodi.sourceforge.net/DTD/sodipodi-0.dtd"
   xmlns:inkscape="http://www.inkscape.org/namespaces/inkscape"
   id="svg2"
   version="1.1"
   inkscape:version="0.91 r13725"
   xml:space="preserve"
   width="300.48749"
   height="203.03751"
   viewBox="0 0 300.48749 203.03751"
   sodipodi:docname="BCCN_logo_Goettingen_kurz_CMYK.svg"><metadata
     id="metadata8"><rdf:RDF><cc:Work
         rdf:about=""><dc:format>image/svg+xml</dc:format><dc:type
           rdf:resource="http://purl.org/dc/dcmitype/StillImage" /><dc:title></dc:title></cc:Work></rdf:RDF></metadata><defs
     id="defs6" /><sodipodi:namedview
     pagecolor="#ffffff"
     bordercolor="#666666"
     borderopacity="1"
     objecttolerance="10"
     gridtolerance="10"
     guidetolerance="10"
     inkscape:pageopacity="0"
     inkscape:pageshadow="2"
     inkscape:window-width="1920"
     inkscape:window-height="1014"
     id="namedview4"
     showgrid="false"
     inkscape:zoom="1.1623468"
     inkscape:cx="151.9644"
     inkscape:cy="101.51875"
     inkscape:window-x="0"
     inkscape:window-y="27"
     inkscape:window-maximized="1"
     inkscape:current-layer="g10" /><g
     id="g10"
     inkscape:groupmode="layer"
     inkscape:label="ink_ext_XXXXXX"
     transform="matrix(1.25,0,0,-1.25,0,203.0375)"><path
       inkscape:connector-curvature="0"
       id="path14"
       style="fill:#1c4f9c;fill-opacity:1;fill-rule:nonzero;stroke:none"
       d="m 135.664,13.3012 c 0,-1.8891 0.375,-3.2684 1.125,-4.13518 0.751,-0.86797 1.69,-1.30196 2.82,-1.30196 1.121,0 2.062,0.43203 2.821,1.29492 0.759,0.86292 1.139,2.21722 1.139,4.06012 0,1.7629 -0.391,3.0918 -1.173,3.9868 -0.782,0.8953 -1.724,1.3429 -2.827,1.3429 -1.085,0 -2.006,-0.4406 -2.766,-1.3226 -0.759,-0.8813 -1.139,-2.1891 -1.139,-3.925 z m -2.02,-8.6512 2.373,-0.35195 c 0.099,-0.73321 0.375,-1.26602 0.827,-1.6 0.605,-0.45196 1.432,-0.67813 2.481,-0.67813 1.13,0 2.002,0.22617 2.617,0.67813 0.615,0.45195 1.031,1.08476 1.247,1.89804 0.127,0.49688 0.186,1.54102 0.177,3.13204 -1.067,-1.25704 -2.396,-1.88516 -3.987,-1.88516 -1.98,0 -3.512,0.71406 -4.596,2.14297 -1.085,1.42812 -1.628,3.14106 -1.628,5.13906 0,1.3738 0.249,2.641 0.746,3.8031 0.497,1.1617 1.218,2.059 2.163,2.6918 0.945,0.6332 2.054,0.9492 3.329,0.9492 1.699,0 3.1,-0.6871 4.204,-2.0609 l 0,1.7348 2.25,0 0,-12.44691 c 0,-2.24218 -0.228,-3.83007 -0.685,-4.76601 -0.456,-0.93594 -1.18,-1.675 -2.169,-2.217189 C 142.003,0.269922 140.785,0 139.339,0 c -1.718,0 -3.106,0.385156 -4.163,1.15898 -1.058,0.77188 -1.569,1.93594 -1.532,3.49102" /><path
       inkscape:connector-curvature="0"
       id="path16"
       style="fill:#1c4f9c;fill-opacity:1;fill-rule:nonzero;stroke:none"
       d="m 156.099,23.0629 0,2.7801 2.548,0 0,-2.7801 -2.548,0 z m -5.058,0 0,2.7801 2.549,0 0,-2.7801 -2.549,0 z m -0.434,-10.0188 c 0,-1.8453 0.403,-3.22613 1.207,-4.14293 0.804,-0.91797 1.817,-1.37617 3.038,-1.37617 1.211,0 2.218,0.46094 3.023,1.38281 0.805,0.92227 1.207,2.32739 1.207,4.21719 0,1.7801 -0.405,3.1301 -1.214,4.048 -0.809,0.9168 -1.814,1.3758 -3.016,1.3758 -1.221,0 -2.234,-0.4566 -3.038,-1.3699 -0.804,-0.9141 -1.207,-2.2918 -1.207,-4.1348 z m -2.508,0 c 0,2.6661 0.741,4.6411 2.223,5.9239 1.239,1.0672 2.748,1.6011 4.53,1.6011 1.979,0 3.597,-0.6492 4.853,-1.9461 1.257,-1.2968 1.885,-3.089 1.885,-5.3761 0,-1.8539 -0.277,-3.31096 -0.834,-4.37307 -0.556,-1.06289 -1.364,-1.88672 -2.427,-2.475 -1.062,-0.58672 -2.222,-0.88086 -3.477,-0.88086 -2.017,0 -3.646,0.64609 -4.889,1.93906 -1.243,1.29297 -1.864,3.15507 -1.864,5.58707" /><path
       inkscape:connector-curvature="0"
       id="path18"
       style="fill:#1c4f9c;fill-opacity:1;fill-rule:nonzero;stroke:none"
       d="m 169.253,8.02617 0.352,-2.15508 c -0.686,-0.14492 -1.301,-0.21718 -1.843,-0.21718 -0.887,0 -1.574,0.14023 -2.062,0.41992 -0.488,0.28008 -0.831,0.64805 -1.03,1.10508 -0.199,0.45625 -0.298,1.41718 -0.298,2.88129 l 0,8.2847 -1.79,0 0,1.8981 1.79,0 0,3.566 2.427,1.4648 0,-5.0308 2.454,0 0,-1.8981 -2.454,0 0,-8.4199 c 0,-0.69687 0.043,-1.14414 0.129,-1.34219 0.086,-0.19883 0.225,-0.35781 0.42,-0.47461 0.194,-0.11836 0.472,-0.17734 0.834,-0.17734 0.271,0 0.628,0.0332 1.071,0.09531" /><path
       inkscape:connector-curvature="0"
       id="path20"
       style="fill:#1c4f9c;fill-opacity:1;fill-rule:nonzero;stroke:none"
       d="m 176.44,8.02617 0.353,-2.15508 c -0.687,-0.14492 -1.302,-0.21718 -1.844,-0.21718 -0.886,0 -1.573,0.14023 -2.061,0.41992 -0.489,0.28008 -0.831,0.64805 -1.031,1.10508 -0.199,0.45625 -0.297,1.41718 -0.297,2.88129 l 0,8.2847 -1.79,0 0,1.8981 1.79,0 0,3.566 2.426,1.4648 0,-5.0308 2.454,0 0,-1.8981 -2.454,0 0,-8.4199 c 0,-0.69687 0.043,-1.14414 0.129,-1.34219 0.086,-0.19883 0.226,-0.35781 0.42,-0.47461 0.194,-0.11836 0.473,-0.17734 0.834,-0.17734 0.272,0 0.628,0.0332 1.071,0.09531" /><path
       inkscape:connector-curvature="0"
       id="path22"
       style="fill:#1c4f9c;fill-opacity:1;fill-rule:nonzero;stroke:none"
       d="m 178.313,5.84297 0,14.40003 2.441,0 0,-14.40003 -2.441,0 z m 0,17.07183 0,2.8063 2.441,0 0,-2.8063 -2.441,0" /><path
       inkscape:connector-curvature="0"
       id="path24"
       style="fill:#1c4f9c;fill-opacity:1;fill-rule:nonzero;stroke:none"
       d="m 183.94,5.84297 0,14.40003 2.198,0 0,-2.0469 c 1.057,1.582 2.585,2.373 4.583,2.373 0.867,0 1.665,-0.1562 2.392,-0.4679 0.728,-0.3121 1.273,-0.7211 1.634,-1.2274 0.362,-0.5058 0.615,-1.1078 0.76,-1.8039 0.09,-0.4519 0.136,-1.2418 0.136,-2.3719 l 0,-8.85503 -2.441,0 0,8.75903 c 0,0.9949 -0.096,1.739 -0.285,2.2308 -0.189,0.4934 -0.526,0.8863 -1.01,1.1793 -0.484,0.2938 -1.051,0.4418 -1.702,0.4418 -1.039,0 -1.936,-0.3301 -2.691,-0.9898 -0.755,-0.661 -1.132,-1.9129 -1.132,-3.7563 l 0,-7.86483 -2.442,0" /><path
       inkscape:connector-curvature="0"
       id="path26"
       style="fill:#1c4f9c;fill-opacity:1;fill-rule:nonzero;stroke:none"
       d="m 200.43,13.3012 c 0,-1.8891 0.375,-3.2684 1.125,-4.13518 0.751,-0.86797 1.69,-1.30196 2.82,-1.30196 1.121,0 2.062,0.43203 2.82,1.29492 0.76,0.86292 1.14,2.21722 1.14,4.06012 0,1.7629 -0.392,3.0918 -1.173,3.9868 -0.782,0.8953 -1.724,1.3429 -2.827,1.3429 -1.085,0 -2.007,-0.4406 -2.767,-1.3226 -0.758,-0.8813 -1.138,-2.1891 -1.138,-3.925 z M 198.409,4.65 200.782,4.29805 c 0.1,-0.73321 0.375,-1.26602 0.827,-1.6 0.606,-0.45196 1.433,-0.67813 2.482,-0.67813 1.13,0 2.002,0.22617 2.617,0.67813 0.614,0.45195 1.03,1.08476 1.247,1.89804 0.127,0.49688 0.186,1.54102 0.177,3.13204 -1.068,-1.25704 -2.397,-1.88516 -3.987,-1.88516 -1.98,0 -3.512,0.71406 -4.596,2.14297 -1.085,1.42812 -1.628,3.14106 -1.628,5.13906 0,1.3738 0.249,2.641 0.746,3.8031 0.497,1.1617 1.218,2.059 2.163,2.6918 0.944,0.6332 2.054,0.9492 3.328,0.9492 1.699,0 3.101,-0.6871 4.204,-2.0609 l 0,1.7348 2.25,0 0,-12.44691 c 0,-2.24218 -0.227,-3.83007 -0.684,-4.76601 -0.456,-0.93594 -1.18,-1.675 -2.169,-2.217189 C 206.769,0.269922 205.551,0 204.104,0 c -1.717,0 -3.105,0.385156 -4.163,1.15898 -1.057,0.77188 -1.568,1.93594 -1.532,3.49102" /><path
       inkscape:connector-curvature="0"
       id="path28"
       style="fill:#1c4f9c;fill-opacity:1;fill-rule:nonzero;stroke:none"
       d="m 215.618,14.4262 8.04,0 c -0.108,1.2109 -0.416,2.1207 -0.922,2.7258 -0.777,0.9402 -1.785,1.4101 -3.023,1.4101 -1.121,0 -2.064,-0.375 -2.827,-1.1262 -0.764,-0.75 -1.187,-1.7539 -1.268,-3.0097 z m 8.014,-3.9453 2.521,-0.3118 c -0.397,-1.47418 -1.134,-2.61793 -2.21,-3.43121 -1.076,-0.81289 -2.45,-1.21992 -4.122,-1.21992 -2.106,0 -3.776,0.64922 -5.009,1.94609 -1.235,1.2961 -1.852,3.11604 -1.852,5.45784 0,2.4211 0.624,4.3019 1.871,5.6402 1.248,1.3379 2.866,2.007 4.855,2.007 1.925,0 3.498,-0.6562 4.718,-1.9671 1.221,-1.3098 1.83,-3.154 1.83,-5.5309 0,-0.1449 -0.004,-0.3621 -0.012,-0.6512 l -10.74,0 c 0.09,-1.582 0.538,-2.79295 1.342,-3.63396 0.805,-0.84102 1.809,-1.26094 3.011,-1.26094 0.894,0 1.658,0.23398 2.291,0.70508 0.633,0.46992 1.135,1.21992 1.506,2.25082" /><path
       inkscape:connector-curvature="0"
       id="path30"
       style="fill:#1c4f9c;fill-opacity:1;fill-rule:nonzero;stroke:none"
       d="m 228.689,5.84297 0,14.40003 2.198,0 0,-2.0469 c 1.057,1.582 2.585,2.373 4.583,2.373 0.867,0 1.665,-0.1562 2.392,-0.4679 0.728,-0.3121 1.273,-0.7211 1.634,-1.2274 0.362,-0.5058 0.615,-1.1078 0.76,-1.8039 0.09,-0.4519 0.136,-1.2418 0.136,-2.3719 l 0,-8.85503 -2.441,0 0,8.75903 c 0,0.9949 -0.096,1.739 -0.285,2.2308 -0.189,0.4934 -0.526,0.8863 -1.01,1.1793 -0.484,0.2938 -1.051,0.4418 -1.702,0.4418 -1.039,0 -1.936,-0.3301 -2.691,-0.9898 -0.755,-0.661 -1.132,-1.9129 -1.132,-3.7563 l 0,-7.86483 -2.442,0" /><path
       inkscape:connector-curvature="0"
       id="path32"
       style="fill:#1c4f9c;fill-opacity:1;fill-rule:evenodd;stroke:none"
       d="m 92,98.4637 c 0.8074,7.7023 7.218,13.3403 14.318,12.5923 7.1,-0.746 12.201,-7.597 11.393,-15.3005 -0.809,-7.702 -7.22,-13.3399 -14.319,-12.5926 C 96.2922,83.9109 91.1926,90.7605 92,98.4637 l 0,0" /><path
       inkscape:connector-curvature="0"
       id="path34"
       style="fill:#1c4f9c;fill-opacity:1;fill-rule:evenodd;stroke:none"
       d="m 55.7629,87.5594 c 0.7664,7.2996 7.1434,12.6136 14.2422,11.866 C 77.1047,98.6773 82.2395,92.152 81.4734,84.8512 80.7078,77.5504 74.3313,72.2379 67.2313,72.9859 60.1316,73.7332 54.9973,80.2586 55.7629,87.5594 l 0,0" /><path
       inkscape:connector-curvature="0"
       id="path36"
       style="fill:#1c4f9c;fill-opacity:1;fill-rule:evenodd;stroke:none"
       d="m 71.541,113.982 c 0.5613,5.361 5.3613,9.246 10.7219,8.683 5.3582,-0.565 9.2469,-5.367 8.6836,-10.726 -0.5625,-5.359 -5.3625,-9.245 -10.7207,-8.682 -5.3598,0.565 -9.2473,5.367 -8.6848,10.725 l 0,0" /><path
       inkscape:connector-curvature="0"
       id="path38"
       style="fill:#1c4f9c;fill-opacity:1;fill-rule:evenodd;stroke:none"
       d="m 82.5508,71.607 c 0.5625,5.3606 5.3613,9.2461 10.7207,8.6828 5.3594,-0.5636 9.2475,-5.3652 8.6855,-10.7238 -0.562,-5.3601 -5.3625,-9.2461 -10.7207,-8.6832 -5.3593,0.5641 -9.2468,5.3668 -8.6855,10.7242 l 0,0" /><path
       inkscape:connector-curvature="0"
       id="path40"
       style="fill:#2857af;fill-opacity:1;fill-rule:evenodd;stroke:none"
       d="m 114.172,113.199 c -1.198,2.962 1.202,6.726 5.361,8.406 4.158,1.68 8.502,0.639 9.7,-2.323 1.199,-2.963 -1.202,-6.725 -5.36,-8.405 -4.159,-1.679 -8.502,-0.64 -9.701,2.322 l 0,0" /><path
       inkscape:connector-curvature="0"
       id="path42"
       style="fill:#2857af;fill-opacity:1;fill-rule:evenodd;stroke:none"
       d="m 45.5438,61.0441 c -1.7735,4.3844 -0.2047,9.1528 3.5058,10.652 3.7102,1.498 8.1567,-0.8418 9.9301,-5.2266 1.773,-4.3843 0.2039,-9.1535 -3.5063,-10.6523 -3.7097,-1.4981 -8.155,0.8418 -9.9296,5.2269 l 0,0" /><path
       inkscape:connector-curvature="0"
       id="path44"
       style="fill:#2857af;fill-opacity:1;fill-rule:evenodd;stroke:none"
       d="m 92.8887,129.907 c 1.6972,3.191 5.6883,4.386 8.9173,2.667 3.227,-1.718 4.468,-5.698 2.772,-8.89 -1.696,-3.19 -5.6874,-4.386 -8.9159,-2.666 -3.2273,1.719 -4.4687,5.698 -2.7734,8.889 l 0,0" /><path
       inkscape:connector-curvature="0"
       id="path46"
       style="fill:#2857af;fill-opacity:1;fill-rule:evenodd;stroke:none"
       d="m 64.2156,55.875 c 0.4211,4.0199 4.5102,6.8855 9.1352,6.3969 4.6219,-0.486 8.0281,-4.1399 7.607,-8.1598 -0.4219,-4.0199 -4.5113,-6.8851 -9.1355,-6.398 -4.6231,0.4871 -8.0293,4.1398 -7.6067,8.1609 l 0,0" /><path
       inkscape:connector-curvature="0"
       id="path48"
       style="fill:#5788c1;fill-opacity:1;fill-rule:evenodd;stroke:none"
       d="m 133.188,123.209 c 0.281,2.671 3.258,4.546 6.653,4.19 3.393,-0.357 5.918,-2.812 5.637,-5.485 -0.28,-2.67 -3.258,-4.547 -6.652,-4.19 -3.394,0.359 -5.919,2.814 -5.638,5.485 l 0,0" /><path
       inkscape:connector-curvature="0"
       id="path50"
       style="fill:#bad9f3;fill-opacity:1;fill-rule:evenodd;stroke:none"
       d="m 151.103,126.743 c 0.223,2.123 3.018,3.568 6.243,3.228 3.226,-0.339 5.66,-2.335 5.437,-4.458 -0.222,-2.123 -3.017,-3.568 -6.242,-3.229 -3.227,0.34 -5.66,2.336 -5.438,4.459 l 0,0" /><path
       inkscape:connector-curvature="0"
       id="path52"
       style="fill:#5788c1;fill-opacity:1;fill-rule:evenodd;stroke:none"
       d="m 97.7246,143.77 c 0.2434,2.325 3.0544,3.934 6.2814,3.593 3.225,-0.339 5.641,-2.498 5.397,-4.822 -0.243,-2.325 -3.055,-3.933 -6.281,-3.593 -3.2243,0.339 -5.6415,2.5 -5.3974,4.822 l 0,0" /><path
       inkscape:connector-curvature="0"
       id="path54"
       style="fill:#63a1d9;fill-opacity:1;fill-rule:evenodd;stroke:none"
       d="m 75.8105,22.3398 c -0.3476,1.9723 1.6758,3.975 4.5196,4.4762 2.8437,0.5012 5.4328,-0.6922 5.7804,-2.664 0.3473,-1.9711 -1.675,-3.975 -4.5199,-4.475 -2.8445,-0.5008 -5.4324,0.6921 -5.7801,2.6628 l 0,0" /><path
       inkscape:connector-curvature="0"
       id="path56"
       style="fill:#5788c1;fill-opacity:1;fill-rule:evenodd;stroke:none"
       d="m 30.2305,63.2723 c 1.7258,2.0574 5.3679,1.8386 8.1355,-0.4856 2.7688,-2.3238 3.6145,-5.8765 1.8891,-7.9355 -1.727,-2.0563 -5.3696,-1.8391 -8.1379,0.4859 -2.7688,2.3258 -3.6121,5.8777 -1.8867,7.9352 l 0,0" /><path
       inkscape:connector-curvature="0"
       id="path58"
       style="fill:#63a1d9;fill-opacity:1;fill-rule:evenodd;stroke:none"
       d="m 14.0391,57.6781 c 1.1047,1.7688 4.5859,1.584 7.7754,-0.4109 3.1894,-1.9942 4.8796,-5.0453 3.7753,-6.8121 -1.1043,-1.7672 -4.5847,-1.584 -7.7746,0.4109 -3.189,1.9949 -4.8804,5.0449 -3.7761,6.8121 l 0,0" /><path
       inkscape:connector-curvature="0"
       id="path60"
       style="fill:#bad9f3;fill-opacity:1;fill-rule:evenodd;stroke:none"
       d="M 0.224609,52.3441 C 1.08203,53.7148 4.13672,53.35 7.05195,51.5289 9.96602,49.707 11.6316,47.1172 10.7766,45.7461 9.91914,44.375 6.86328,44.741 3.94922,46.5629 1.03594,48.3852 -0.632031,50.9738 0.224609,52.3441 l 0,0" /><path
       inkscape:connector-curvature="0"
       id="path62"
       style="fill:#bad9f3;fill-opacity:1;fill-rule:evenodd;stroke:none"
       d="m 96.1914,159.261 c 0.209,1.992 2.3809,3.394 4.8506,3.134 2.472,-0.259 4.304,-2.085 4.096,-4.077 -0.208,-1.99 -2.38,-3.393 -4.852,-3.134 -2.4708,0.261 -4.3047,2.086 -4.0946,4.077 l 0,0" /><path
       inkscape:connector-curvature="0"
       id="path64"
       style="fill:#bad9f3;fill-opacity:1;fill-rule:evenodd;stroke:none"
       d="m 79.4895,9.78594 c -0.3274,1.85386 1.4421,3.71526 3.9531,4.15706 2.5086,0.4422 4.8094,-0.702 5.1375,-2.5571 C 88.907,9.53203 87.1379,7.67188 84.6277,7.22891 82.1172,6.78789 79.8176,7.93203 79.4895,9.78594 l 0,0" /><path
       inkscape:connector-curvature="0"
       id="path66"
       style="fill:#2857af;fill-opacity:1;fill-rule:evenodd;stroke:none"
       d="m 49.0945,114.138 c 0.3801,3.617 4.061,6.196 8.2207,5.758 4.1614,-0.437 7.2278,-3.725 6.8481,-7.346 -0.3801,-3.617 -4.061,-6.194 -8.2231,-5.757 -4.1597,0.438 -7.2254,3.727 -6.8457,7.345 l 0,0" /><path
       inkscape:connector-curvature="0"
       id="path68"
       style="fill:#5788c1;fill-opacity:1;fill-rule:evenodd;stroke:none"
       d="m 40.4719,130.394 c 0.2586,2.472 3.0574,4.201 6.2508,3.865 3.1914,-0.336 5.5703,-2.612 5.3117,-5.082 -0.259,-2.469 -3.0586,-4.2 -6.2512,-3.864 -3.1926,0.336 -5.5703,2.612 -5.3113,5.081 l 0,0" /><path
       inkscape:connector-curvature="0"
       id="path70"
       style="fill:#bad9f3;fill-opacity:1;fill-rule:evenodd;stroke:none"
       d="m 27.3895,141.849 c 0.1875,1.79 2.507,3.014 5.1781,2.732 2.6719,-0.281 4.6844,-1.96 4.4969,-3.751 -0.1875,-1.789 -2.5047,-3.012 -5.1778,-2.731 -2.6719,0.281 -4.6847,1.96 -4.4972,3.75 l 0,0" /><path
       inkscape:connector-curvature="0"
       id="path72"
       style="fill:#5788c1;fill-opacity:1;fill-rule:evenodd;stroke:none"
       d="m 71.7727,32.8129 c -1.6172,2.1449 -0.5903,5.6461 2.2964,7.8211 2.8872,2.1742 6.5383,2.1988 8.1555,0.0531 1.6172,-2.1441 0.5891,-5.6449 -2.2969,-7.8199 -2.8855,-2.1742 -6.5371,-2.1981 -8.155,-0.0543 l 0,0" /><path
       inkscape:connector-curvature="0"
       id="path74"
       style="fill:#1c4f9c;fill-opacity:1;fill-rule:evenodd;stroke:none"
       d="m 210.996,44.3441 c -1.793,8.3168 -8.367,10.2368 -14.344,10.2368 -8.964,0 -14.94,-4.4789 -14.94,-13.436 0,-9.5961 5.379,-13.4347 14.343,-13.4347 7.769,0 13.148,1.9187 14.941,10.8757 l -7.769,0 c -0.598,-3.1988 -2.989,-5.1179 -6.575,-5.1179 -4.781,0 -7.171,2.559 -7.171,7.6769 0,4.4789 2.39,7.677 7.171,7.677 2.989,0 5.379,-1.2789 6.575,-4.4778 l 7.769,0 0,0" /><path
       inkscape:connector-curvature="0"
       id="path76"
       style="fill:#1c4f9c;fill-opacity:1;fill-rule:evenodd;stroke:none"
       d="m 180.024,44.3441 c -1.792,8.3168 -8.366,10.2368 -14.342,10.2368 -8.964,0 -14.941,-4.4789 -14.941,-13.436 0,-9.5961 5.378,-13.4347 14.343,-13.4347 7.77,0 13.148,1.9187 14.94,10.8757 l -7.768,0 c -0.598,-3.1988 -2.988,-5.1179 -6.574,-5.1179 -4.782,0 -7.171,2.559 -7.171,7.6769 0,4.4789 2.389,7.677 7.171,7.677 2.988,0 5.379,-1.2789 6.574,-4.4778 l 7.768,0 0,0" /><path
       inkscape:connector-curvature="0"
       id="path78"
       style="fill:#1c4f9c;fill-opacity:1;fill-rule:evenodd;stroke:none"
       d="m 231.807,27.7102 7.769,0 0,17.0347 c 0,8.177 -5.976,9.5391 -10.16,9.5391 -4.184,0 -7.769,-2.0442 -8.964,-4.7699 l -0.598,0 0,4.089 -7.171,0 0,-25.8929 7.769,0 0,12.2636 c 0,5.4524 2.988,7.4961 6.573,7.4961 2.989,0 4.782,-1.3629 4.782,-5.4508 l 0,-14.3089" /><path
       inkscape:connector-curvature="0"
       id="path80"
       style="fill:#1c4f9c;fill-opacity:1;fill-rule:evenodd;stroke:none"
       d="m 126.942,28.9891 -7.171,0 0,33.2687 7.769,0 0,-12.1558 c 1.195,2.5589 4.78,3.839 8.964,3.839 7.172,0 12.55,-5.1191 12.55,-13.4351 0,-8.318 -5.378,-12.7957 -12.55,-12.7957 -3.586,0 -6.574,0.6386 -8.964,3.8386 l -0.598,0 0,-2.5597 z m 14.343,12.1558 c 0,4.4789 -2.988,7.0371 -7.172,7.0371 -3.585,0 -7.171,-2.5582 -7.171,-7.0371 0,-5.1179 3.586,-7.6769 7.171,-7.6769 4.184,0 7.172,2.559 7.172,7.6769 l 0,0" /></g></svg>